<?xml version="1.0" encoding="UTF-8"?> <svg xmlns="http://www.w3.org/2000/svg" id="Layer_1" viewBox="0 0 100 100"><defs><style>.cls-1{fill:#b10838;}.cls-1,.cls-2{stroke-width:0px;}.cls-2{fill:#fff;}</style></defs><circle class="cls-1" cx="50" cy="50" r="49.69"></circle><path class="cls-2" d="M58.83,49.38l13.77.05h0c.44,0,.85-.24,1.05-.63.21-.39.18-.86-.07-1.23l-5.99-8.66c-.22-.32-.59-.51-.98-.51h-7.78c-.66,0-1.19.53-1.19,1.19v8.6c0,.66.53,1.19,1.19,1.19ZM60.02,40.77h5.97l4.34,6.27-10.31-.04v-6.23Z"></path><path class="cls-2" d="M10.94,67.97h2.75c.58,3.8,3.86,6.72,7.81,6.72,2.83,0,5.32-1.5,6.71-3.74,1.4,2.24,3.88,3.74,6.71,3.74,3.96,0,7.23-2.92,7.81-6.72h29.64c.58,3.8,3.85,6.72,7.81,6.72s7.39-3.06,7.85-6.98h2.26c.66,0,1.19-.54,1.19-1.19v-8.82c-.37-5.69-4.23-10.52-9.61-12.04-1.3-.37-2.59-.56-3.83-.58l-9.03-12.64c-.17-.22-.4-.39-.67-.46-7.74-2-14.75-3.35-21.16-4.5-1.27-.23-2.57.11-3.56.94-.99.83-1.56,2.05-1.56,3.34l-.02,22.45H10.94c-.17,0-.32.04-.46.1-.51.14-.88.6-.88,1.15v11.13c0,.33.13.62.34.83.21.34.58.56,1,.56ZM27.02,66.98c-.11,2.95-2.55,5.32-5.53,5.32s-5.53-2.47-5.53-5.53,2.48-5.53,5.53-5.53,5.41,2.36,5.53,5.31c0,.07-.02.14-.02.22s0,.14.02.21ZM34.92,72.3c-2.98,0-5.41-2.36-5.52-5.32,0-.06,0-.14,0-.21s0-.14,0-.22c.11-2.95,2.54-5.31,5.52-5.31s5.53,2.47,5.53,5.53-2.47,5.53-5.53,5.53ZM80.17,72.3c-3.05,0-5.53-2.47-5.53-5.53s2.48-5.53,5.53-5.53,5.53,2.47,5.53,5.53-2.47,5.53-5.53,5.53ZM11.98,56.59h31.25c.66,0,1.19-.54,1.19-1.19,0-.09-.02-.18-.03-.26l.02-23.39c0-.58.26-1.14.71-1.51.45-.38,1.03-.53,1.61-.42,6.25,1.13,13.07,2.43,20.57,4.36l9.15,12.8c.29.4.78.57,1.23.46.03,0,.06.02.1.02,1.1,0,2.25.16,3.43.5,4.4,1.23,7.55,5.2,7.87,9.86v7.53h-1.15c-.68-3.68-3.91-6.46-7.77-6.46s-7.23,2.92-7.81,6.72h-29.64c-.58-3.8-3.85-6.72-7.81-6.72-2.83,0-5.31,1.5-6.71,3.74-1.39-2.24-3.88-3.74-6.71-3.74-3.95,0-7.23,2.92-7.81,6.72h-1.71v-8.99Z"></path><path class="cls-2" d="M21.5,62.72c-2.23,0-4.04,1.82-4.04,4.05s1.82,4.05,4.04,4.05,4.05-1.82,4.05-4.05-1.82-4.05-4.05-4.05ZM21.5,68.45c-.92,0-1.67-.75-1.67-1.67s.74-1.67,1.67-1.67,1.67.75,1.67,1.67-.75,1.67-1.67,1.67Z"></path><path class="cls-2" d="M34.92,62.72c-2.23,0-4.05,1.82-4.05,4.05s1.82,4.05,4.05,4.05,4.05-1.82,4.05-4.05-1.82-4.05-4.05-4.05ZM34.92,68.45c-.92,0-1.67-.75-1.67-1.67s.75-1.67,1.67-1.67,1.67.75,1.67,1.67-.75,1.67-1.67,1.67Z"></path><path class="cls-2" d="M80.16,62.72c-2.23,0-4.05,1.82-4.05,4.05s1.82,4.05,4.05,4.05,4.05-1.82,4.05-4.05-1.82-4.05-4.05-4.05ZM80.16,68.45c-.92,0-1.67-.75-1.67-1.67s.74-1.67,1.67-1.67,1.67.75,1.67,1.67-.75,1.67-1.67,1.67Z"></path><path class="cls-2" d="M10.8,46.4l12.54,5.61c.16.07.32.1.49.1.04,0,.08-.02.12-.02.05,0,.09.02.13.02.17,0,.34-.04.5-.11l12.22-5.62c.56-.1.99-.58.99-1.17v-13.68c0-.17-.04-.32-.1-.46,0-.06,0-.12,0-.18h0c.02-.46-.25-.91-.69-1.12l-12.44-5.72c-.19-.09-.4-.12-.61-.1-.22-.03-.45,0-.66.1l-12.97,6.29c-.48.23-.73.74-.66,1.23v13.62c0,.63.5,1.15,1.12,1.19ZM35.4,44.4l-10.47,4.82v-11.65s10.47-4.82,10.47-4.82v11.65ZM33.74,30.89l-9.82,4.52-4.09-1.63,9.74-4.8,4.17,1.92ZM23.96,26.39l2.82,1.3-9.92,4.9-3.12-1.24,10.22-4.96ZM15.91,34.78v3.62c0,.66.54,1.19,1.2,1.19s1.19-.54,1.19-1.19v-2.67l4.24,1.69v11.63l-10.47-4.68v-11.11s3.85,1.54,3.85,1.54Z"></path></svg> 