<?xml version="1.0" encoding="UTF-8"?> <svg xmlns="http://www.w3.org/2000/svg" id="Layer_1" viewBox="0 0 100 100"><defs><style>.cls-1{fill:#b10838;}.cls-1,.cls-2{stroke-width:0px;}.cls-2{fill:#fff;}</style></defs><circle class="cls-1" cx="50" cy="50" r="49.69"></circle><path class="cls-2" d="M71.93,39.78c-.2-.29-.53-.47-.89-.47h-7.1c-.6,0-1.08.48-1.08,1.09v7.84c0,.6.48,1.09,1.08,1.09l12.56.04h0c.4,0,.77-.22.96-.58.18-.36.16-.79-.07-1.12l-5.46-7.9ZM65.03,47.16v-5.68h5.44l3.96,5.72-9.4-.04Z"></path><path class="cls-2" d="M29.9,61.5c-2.04,0-3.7,1.66-3.7,3.7s1.66,3.7,3.7,3.7,3.7-1.66,3.7-3.7-1.66-3.7-3.7-3.7ZM29.9,66.72c-.84,0-1.53-.69-1.53-1.53s.69-1.53,1.53-1.53,1.52.69,1.52,1.53-.68,1.53-1.52,1.53Z"></path><path class="cls-2" d="M42.13,61.5c-2.04,0-3.7,1.66-3.7,3.7s1.66,3.7,3.7,3.7,3.7-1.66,3.7-3.7-1.66-3.7-3.7-3.7ZM42.13,66.72c-.84,0-1.52-.69-1.52-1.53s.68-1.53,1.52-1.53,1.53.69,1.53,1.53-.69,1.53-1.53,1.53Z"></path><path class="cls-2" d="M83.4,61.5c-2.03,0-3.69,1.66-3.69,3.7s1.66,3.7,3.69,3.7,3.7-1.66,3.7-3.7-1.66-3.7-3.7-3.7ZM83.4,66.72c-.84,0-1.52-.69-1.52-1.53s.68-1.53,1.52-1.53,1.53.69,1.53,1.53-.69,1.53-1.53,1.53Z"></path><path class="cls-2" d="M84.96,45.93c-1.19-.34-2.36-.51-3.5-.53l-8.24-11.53c-.15-.2-.37-.36-.61-.42-7.06-1.83-13.45-3.05-19.3-4.1-.9-.17-1.81,0-2.6.42v-3.51c0-.6-.48-1.08-1.08-1.08h-28.95c-.6,0-1.09.48-1.09,1.08v4.96h-10.16c-.61,0-1.09.49-1.09,1.09s.48,1.09,1.09,1.09h16.59c.6,0,1.09-.49,1.09-1.09s-.49-1.09-1.09-1.09h-4.27v-3.87h26.78v7.24c0,.15.04.31.09.44l-.02,18.71h-28.34c-.15,0-.29.04-.42.09-.46.12-.8.55-.8,1.04v10.15c0,.3.12.57.31.76.2.31.53.51.91.51h2.51c.53,3.46,3.51,6.13,7.12,6.13,2.58,0,4.84-1.37,6.12-3.41,1.27,2.04,3.53,3.41,6.11,3.41,3.61,0,6.6-2.67,7.13-6.13h27.02c.53,3.46,3.51,6.13,7.12,6.13s6.74-2.79,7.16-6.37h2.07c.6,0,1.08-.49,1.08-1.09v-8.05c-.34-5.19-3.86-9.6-8.76-10.98ZM34.93,65.39c-.1,2.7-2.32,4.85-5.03,4.85s-5.05-2.26-5.05-5.04,2.26-5.04,5.05-5.04,4.93,2.15,5.03,4.84c0,.07,0,.13,0,.2s0,.13,0,.19ZM42.13,70.24c-2.72,0-4.93-2.15-5.03-4.85,0-.06,0-.12,0-.19s0-.13,0-.2c.1-2.69,2.32-4.84,5.03-4.84s5.05,2.26,5.05,5.04-2.26,5.04-5.05,5.04ZM83.41,70.24c-2.78,0-5.04-2.26-5.04-5.04s2.26-5.04,5.04-5.04,5.05,2.26,5.05,5.04-2.26,5.04-5.05,5.04ZM91.55,63.88h-1.05c-.62-3.35-3.56-5.89-7.08-5.89s-6.6,2.67-7.12,6.13h-27.02c-.53-3.46-3.52-6.13-7.13-6.13-2.58,0-4.84,1.37-6.11,3.41-1.28-2.05-3.54-3.41-6.12-3.41-3.61,0-6.6,2.67-7.12,6.13h-1.57v-8.2h28.51c.6,0,1.09-.49,1.09-1.09,0-.08-.01-.16-.03-.23l.02-21.33c0-.53.24-1.04.65-1.38.41-.34.95-.48,1.47-.39,5.7,1.03,11.92,2.22,18.77,3.97l8.34,11.67c.26.37.71.52,1.12.42.03,0,.06.01.09.01,1.01,0,2.05.15,3.13.45,4.01,1.12,6.89,4.74,7.18,8.99v6.87Z"></path><path class="cls-2" d="M28.19,39.26c.6,0,1.09-.49,1.09-1.09s-.49-1.09-1.09-1.09H11.59c-.6,0-1.09.49-1.09,1.09s.49,1.09,1.09,1.09h16.6Z"></path><path class="cls-2" d="M24.29,44.06c0-.6-.49-1.09-1.09-1.09H7.63c-.6,0-1.09.49-1.09,1.09s.49,1.09,1.09,1.09h15.58c.6,0,1.09-.49,1.09-1.09Z"></path><path class="cls-2" d="M29.98,51.02c.6,0,1.09-.49,1.09-1.09s-.49-1.09-1.09-1.09H13.38c-.6,0-1.09.49-1.09,1.09s.49,1.09,1.09,1.09h16.6Z"></path></svg> 