<?xml version="1.0" encoding="UTF-8"?> <svg xmlns="http://www.w3.org/2000/svg" id="Layer_2" viewBox="0 0 120 100"><defs><style>.cls-1{fill:#b10838;stroke-width:0px;}</style></defs><path class="cls-1" d="M66.15,34.07c-.25-.35-.66-.57-1.1-.57h-8.76c-.74,0-1.34.6-1.34,1.34v9.69c0,.75.6,1.34,1.34,1.34l15.5.05c.5,0,.95-.27,1.19-.71.23-.45.2-.98-.09-1.39l-6.74-9.75ZM57.63,43.2v-7.02h6.72l4.88,7.05-11.6-.04Z"></path><path class="cls-1" d="M14.27,60.89c-2.52,0-4.56,2.04-4.56,4.55s2.04,4.56,4.56,4.56,4.56-2.04,4.56-4.56-2.04-4.55-4.56-4.55ZM14.27,67.32c-1.04,0-1.88-.84-1.88-1.88s.85-1.87,1.88-1.87,1.88.84,1.88,1.87-.85,1.88-1.88,1.88Z"></path><path class="cls-1" d="M29.37,60.89c-2.52,0-4.56,2.04-4.56,4.55s2.04,4.56,4.56,4.56,4.56-2.04,4.56-4.56-2.04-4.55-4.56-4.55ZM29.37,67.32c-1.04,0-1.88-.84-1.88-1.88s.85-1.87,1.88-1.87,1.88.84,1.88,1.87-.85,1.88-1.88,1.88Z"></path><path class="cls-1" d="M80.31,60.89c-2.52,0-4.56,2.04-4.56,4.55s2.04,4.56,4.56,4.56,4.56-2.04,4.56-4.56-2.04-4.55-4.56-4.55ZM80.31,67.32c-1.04,0-1.88-.84-1.88-1.88s.85-1.87,1.88-1.87,1.88.84,1.88,1.87-.85,1.88-1.88,1.88Z"></path><path class="cls-1" d="M108.32,41.73c-1.46-.42-2.92-.63-4.32-.65l-10.17-14.23c-.18-.25-.45-.44-.75-.52-4.77-1.23-9.29-2.24-13.59-3.12-3.56-.73-6.97-1.36-10.24-1.94-1.44-.25-2.9.13-4.01,1.05-.32.27-.6.56-.83.89-.47.65-.76,1.4-.87,2.2-7.37-1.79-14.13-3.08-20.4-4.22-1.43-.25-2.89.14-4.01,1.06-1.11.94-1.75,2.3-1.75,3.76l-.03,25.27H2.38c-.19,0-.36.05-.53.11-.57.15-.99.67-.99,1.29v12.52c0,.37.15.71.39.95.24.37.65.63,1.13.63h3.1c.65,4.27,4.33,7.56,8.79,7.56,3.19,0,5.98-1.68,7.55-4.21,1.57,2.53,4.36,4.21,7.55,4.21,4.43,0,8.11-3.25,8.78-7.5h33.39c.67,4.24,4.34,7.5,8.78,7.5s8.1-3.25,8.78-7.5h8.52c.65,4.28,4.34,7.56,8.8,7.56s8.32-3.44,8.83-7.86h2.54c.6,0,1.1-.38,1.27-.92.05-.13.07-.27.07-.42v-9.93c-.42-6.4-4.76-11.85-10.81-13.55ZM20.48,65.69c-.13,3.32-2.86,5.98-6.22,5.98s-6.23-2.79-6.23-6.23,2.79-6.22,6.23-6.22,6.09,2.66,6.22,5.98c0,.08-.02.16-.02.24,0,.08,0,.16.02.25ZM29.37,71.67c-3.35,0-6.09-2.66-6.22-5.98,0-.08.02-.16.02-.25,0-.07,0-.15-.02-.24.13-3.32,2.86-5.98,6.22-5.98s6.22,2.79,6.22,6.22-2.79,6.23-6.22,6.23ZM80.32,71.67c-3.44,0-6.23-2.79-6.23-6.23s2.79-6.22,6.23-6.22,6.22,2.79,6.22,6.22-2.8,6.23-6.22,6.23ZM90.36,63.82h-1.3c-.77-4.13-4.4-7.27-8.74-7.27s-8.14,3.29-8.8,7.56h-33.35c-.65-4.27-4.34-7.56-8.8-7.56-3.19,0-5.98,1.68-7.55,4.21-1.57-2.53-4.36-4.21-7.55-4.21-4.45,0-8.14,3.29-8.79,7.56h-1.94v-10.13h35.19c.74,0,1.34-.6,1.34-1.34,0-.1,0-.2-.03-.29l.03-26.33c0-.66.29-1.28.79-1.71.51-.42,1.17-.59,1.82-.47,7.04,1.26,14.71,2.74,23.16,4.9l10.3,14.4c.33.45.88.65,1.39.53.04,0,.07,0,.11,0,1.24,0,2.54.19,3.85.56,4.95,1.4,8.51,5.85,8.87,11.11v8.47ZM87.25,41.29v-7.67h7.34l5.34,7.72-12.69-.05ZM106.36,71.61c-3.43,0-6.23-2.8-6.23-6.23s2.8-6.23,6.23-6.23,6.22,2.79,6.22,6.23-2.79,6.23-6.22,6.23Z"></path><path class="cls-1" d="M106.35,60.88c-2.51,0-4.56,2.04-4.56,4.56s2.05,4.56,4.56,4.56,4.56-2.05,4.56-4.56-2.04-4.56-4.56-4.56ZM106.35,67.32c-1.04,0-1.88-.85-1.88-1.88s.85-1.88,1.88-1.88,1.88.85,1.88,1.88-.85,1.88-1.88,1.88Z"></path></svg> 