<svg xmlns="http://www.w3.org/2000/svg" viewBox="0 0 100 100" role="img" aria-labelledby="title desc">
  <title id="title">Specialized haul</title>
  <desc id="desc">A heavy-haul tractor and multi-axle lowboy carrying oversized equipment.</desc>
  <circle cx="50" cy="50" r="49" fill="#C80A0C"/>
  <g fill="none" stroke="#FFFFFF" stroke-width="2.4" stroke-linecap="round" stroke-linejoin="round">
    <path d="M9 60h8l5 6h42l6-6h15"/>
    <path d="M69 48h8l8 9v9H64M75 49v9h9M80 62h5"/>
    <path d="M27 60V43h33v17M27 46h33"/>
    <path d="M34 43v-7h19v7M38 36v-4h11v4" stroke="#C7C7C7"/>
    <path d="M31 60l4-14m21 14-4-14M38 46v14M49 46v14" stroke="#C7C7C7"/>
    <path d="M72 45h4M74 45v-4" stroke="#C7C7C7"/>
    <circle cx="22" cy="69" r="5"/>
    <circle cx="33" cy="69" r="5"/>
    <circle cx="44" cy="69" r="5"/>
    <circle cx="76" cy="69" r="5"/>
    <circle cx="22" cy="69" r="1.5" fill="#C7C7C7" stroke="none"/>
    <circle cx="33" cy="69" r="1.5" fill="#C7C7C7" stroke="none"/>
    <circle cx="44" cy="69" r="1.5" fill="#C7C7C7" stroke="none"/>
    <circle cx="76" cy="69" r="1.5" fill="#C7C7C7" stroke="none"/>
  </g>
</svg>
