<svg xmlns="http://www.w3.org/2000/svg" viewBox="0 0 100 100" role="img" aria-labelledby="title desc">
  <title id="title">Power units</title>
  <desc id="desc">A tractor truck representing the Nall's fleet of power units.</desc>
  <circle cx="50" cy="50" r="49" fill="#C80A0C"/>
  <g fill="none" stroke="#FFFFFF" stroke-width="2.4" stroke-linecap="round" stroke-linejoin="round">
    <path d="M15 62h7l3-24h28v24h8V48h12l10 10v9h-5"/>
    <path d="M61 48V37h9l8 11"/>
    <path d="M64 41h5l5 7H64z"/>
    <path d="M28 43h20M27 49h21M26 55h22" opacity=".72"/>
    <path d="M15 67h9m28 0h13m13 0h7"/>
    <circle cx="34" cy="67" r="7"/>
    <circle cx="71" cy="67" r="7"/>
    <circle cx="34" cy="67" r="2" fill="#C7C7C7" stroke="none"/>
    <circle cx="71" cy="67" r="2" fill="#C7C7C7" stroke="none"/>
    <path d="M14 35h8M12 42h9M10 49h9" stroke="#C7C7C7"/>
  </g>
</svg>
