<svg xmlns="http://www.w3.org/2000/svg" viewBox="0 0 100 100" role="img" aria-labelledby="title desc">
  <title id="title">Specialized trailers</title>
  <desc id="desc">A multi-axle lowboy trailer carrying an oversized industrial load.</desc>
  <circle cx="50" cy="50" r="49" fill="#C80A0C"/>
  <g fill="none" stroke="#FFFFFF" stroke-width="2.4" stroke-linecap="round" stroke-linejoin="round">
    <path d="M11 63h12l5-7h34l5 7h21"/>
    <path d="M11 58h12l5-7h34l5 7h21" opacity=".72"/>
    <path d="M35 51V32h20v19"/>
    <path d="M39 32v-5h12v5M41 39h8M41 45h8"/>
    <path d="M34 51l4-10m18 10-4-10" stroke="#C7C7C7"/>
    <circle cx="23" cy="68" r="5"/>
    <circle cx="34" cy="68" r="5"/>
    <circle cx="67" cy="68" r="5"/>
    <circle cx="78" cy="68" r="5"/>
    <circle cx="23" cy="68" r="1.5" fill="#C7C7C7" stroke="none"/>
    <circle cx="34" cy="68" r="1.5" fill="#C7C7C7" stroke="none"/>
    <circle cx="67" cy="68" r="1.5" fill="#C7C7C7" stroke="none"/>
    <circle cx="78" cy="68" r="1.5" fill="#C7C7C7" stroke="none"/>
  </g>
</svg>
