<svg xmlns="http://www.w3.org/2000/svg" viewBox="0 0 100 100" role="img" aria-labelledby="title desc">
  <title id="title">Forty-eight states covered</title>
  <desc id="desc">A highway route crossing the contiguous United States.</desc>
  <circle cx="50" cy="50" r="49" fill="#C80A0C"/>
  <path d="M16 35l8-9 15 2 7-4 9 4 9-2 7 5 12 2-3 8 4 7-6 5-2 9-8 2-4 8-10-2-6 5-8-5-8 2-4-8-8-3 2-8-7-7z" fill="none" stroke="#FFFFFF" stroke-width="2.4" stroke-linecap="round" stroke-linejoin="round"/>
  <path d="M22 56c10-13 20-3 29-12 8-8 13-5 25 0" fill="none" stroke="#C7C7C7" stroke-width="2.4" stroke-linecap="round" stroke-dasharray="3 4"/>
  <g fill="#FFFFFF">
    <circle cx="22" cy="56" r="3"/>
    <circle cx="76" cy="44" r="3"/>
  </g>
  <path d="M50 34c0-5 4-9 9-9s9 4 9 9c0 7-9 16-9 16s-9-9-9-16z" fill="#C80A0C" stroke="#FFFFFF" stroke-width="2.4" stroke-linejoin="round"/>
  <circle cx="59" cy="34" r="3" fill="#FFFFFF"/>
</svg>
