<svg xmlns="http://www.w3.org/2000/svg" viewBox="0 0 100 100" role="img" aria-labelledby="title desc">
  <title id="title">Step deck</title>
  <desc id="desc">A step deck trailer with a raised front deck, lowered main deck, and secured machinery.</desc>
  <circle cx="50" cy="50" r="49" fill="#C80A0C"/>
  <g fill="none" stroke="#FFFFFF" stroke-width="2.4" stroke-linecap="round" stroke-linejoin="round">
    <path d="M11 56h20l5 7h48"/>
    <path d="M11 51h23l5 7h45" opacity=".72"/>
    <path d="M45 58V39h17v19"/>
    <path d="M49 39v-6h9v6M49 46h9M49 52h9"/>
    <path d="M45 58l4-12m13 12-4-12" stroke="#C7C7C7"/>
    <path d="M17 46h13M17 42h13"/>
    <circle cx="20" cy="68" r="5"/>
    <circle cx="31" cy="68" r="5"/>
    <circle cx="70" cy="68" r="5"/>
    <circle cx="81" cy="68" r="5"/>
    <circle cx="20" cy="68" r="1.5" fill="#C7C7C7" stroke="none"/>
    <circle cx="31" cy="68" r="1.5" fill="#C7C7C7" stroke="none"/>
    <circle cx="70" cy="68" r="1.5" fill="#C7C7C7" stroke="none"/>
    <circle cx="81" cy="68" r="1.5" fill="#C7C7C7" stroke="none"/>
  </g>
</svg>
