<svg xmlns="http://www.w3.org/2000/svg" xmlns:xlink="http://www.w3.org/1999/xlink" width="2000" zoomAndPan="magnify" viewBox="0 0 1500 1499.999933" height="2000" preserveAspectRatio="xMidYMid meet" version="1.0"><path fill="#fb452f" d="M 1495.351562 750 C 1495.351562 762.199219 1495.050781 774.390625 1494.453125 786.574219 C 1493.855469 798.757812 1492.957031 810.917969 1491.761719 823.058594 C 1490.566406 835.195312 1489.074219 847.300781 1487.28125 859.367188 C 1485.492188 871.433594 1483.40625 883.445312 1481.027344 895.410156 C 1478.648438 907.375 1475.976562 919.273438 1473.011719 931.105469 C 1470.050781 942.9375 1466.796875 954.691406 1463.253906 966.363281 C 1459.714844 978.035156 1455.890625 989.617188 1451.78125 1001.101562 C 1447.671875 1012.585938 1443.28125 1023.964844 1438.613281 1035.234375 C 1433.945312 1046.503906 1429.003906 1057.652344 1423.789062 1068.679688 C 1418.574219 1079.703125 1413.089844 1090.597656 1407.339844 1101.355469 C 1401.589844 1112.113281 1395.578125 1122.722656 1389.308594 1133.1875 C 1383.035156 1143.648438 1376.511719 1153.953125 1369.734375 1164.09375 C 1362.957031 1174.238281 1355.9375 1184.207031 1348.671875 1194.003906 C 1341.402344 1203.800781 1333.902344 1213.414062 1326.164062 1222.84375 C 1318.425781 1232.273438 1310.460938 1241.507812 1302.269531 1250.546875 C 1294.074219 1259.585938 1285.667969 1268.417969 1277.042969 1277.042969 C 1268.417969 1285.667969 1259.585938 1294.074219 1250.546875 1302.269531 C 1241.507812 1310.460938 1232.273438 1318.425781 1222.84375 1326.164062 C 1213.414062 1333.902344 1203.800781 1341.402344 1194.003906 1348.671875 C 1184.207031 1355.9375 1174.238281 1362.957031 1164.09375 1369.734375 C 1153.953125 1376.511719 1143.648438 1383.035156 1133.1875 1389.308594 C 1122.722656 1395.578125 1112.113281 1401.589844 1101.355469 1407.339844 C 1090.597656 1413.089844 1079.703125 1418.574219 1068.679688 1423.789062 C 1057.652344 1429.003906 1046.503906 1433.945312 1035.234375 1438.613281 C 1023.964844 1443.28125 1012.585938 1447.671875 1001.101562 1451.78125 C 989.617188 1455.890625 978.035156 1459.714844 966.363281 1463.253906 C 954.691406 1466.796875 942.9375 1470.046875 931.105469 1473.011719 C 919.273438 1475.976562 907.375 1478.648438 895.410156 1481.027344 C 883.445312 1483.40625 871.433594 1485.492188 859.367188 1487.28125 C 847.300781 1489.074219 835.195312 1490.566406 823.058594 1491.761719 C 810.917969 1492.957031 798.757812 1493.855469 786.574219 1494.453125 C 774.390625 1495.050781 762.199219 1495.351562 750 1495.351562 C 737.800781 1495.351562 725.609375 1495.050781 713.425781 1494.453125 C 701.242188 1493.855469 689.082031 1492.957031 676.941406 1491.761719 C 664.804688 1490.566406 652.699219 1489.074219 640.632812 1487.28125 C 628.566406 1485.492188 616.554688 1483.40625 604.589844 1481.027344 C 592.625 1478.648438 580.726562 1475.976562 568.894531 1473.011719 C 557.0625 1470.050781 545.308594 1466.796875 533.636719 1463.253906 C 521.964844 1459.714844 510.382812 1455.890625 498.898438 1451.78125 C 487.414062 1447.671875 476.035156 1443.28125 464.765625 1438.613281 C 453.496094 1433.945312 442.347656 1429.003906 431.320312 1423.789062 C 420.292969 1418.574219 409.402344 1413.089844 398.644531 1407.339844 C 387.886719 1401.589844 377.277344 1395.578125 366.8125 1389.308594 C 356.351562 1383.035156 346.046875 1376.511719 335.90625 1369.734375 C 325.761719 1362.957031 315.792969 1355.9375 305.996094 1348.671875 C 296.199219 1341.402344 286.585938 1333.902344 277.15625 1326.164062 C 267.726562 1318.425781 258.492188 1310.460938 249.453125 1302.269531 C 240.414062 1294.074219 231.582031 1285.667969 222.957031 1277.042969 C 214.332031 1268.417969 205.925781 1259.585938 197.730469 1250.546875 C 189.539062 1241.507812 181.574219 1232.273438 173.835938 1222.84375 C 166.097656 1213.414062 158.597656 1203.800781 151.328125 1194.003906 C 144.0625 1184.207031 137.042969 1174.238281 130.265625 1164.09375 C 123.488281 1153.953125 116.964844 1143.648438 110.691406 1133.1875 C 104.421875 1122.722656 98.410156 1112.113281 92.660156 1101.355469 C 86.910156 1090.597656 81.425781 1079.703125 76.210938 1068.679688 C 70.996094 1057.652344 66.054688 1046.503906 61.386719 1035.234375 C 56.71875 1023.964844 52.328125 1012.585938 48.21875 1001.101562 C 44.109375 989.617188 40.285156 978.035156 36.746094 966.363281 C 33.203125 954.691406 29.953125 942.9375 26.988281 931.105469 C 24.023438 919.273438 21.351562 907.375 18.972656 895.410156 C 16.59375 883.445312 14.507812 871.433594 12.71875 859.367188 C 10.925781 847.300781 9.433594 835.195312 8.238281 823.058594 C 7.042969 810.917969 6.144531 798.757812 5.546875 786.574219 C 4.949219 774.390625 4.648438 762.199219 4.648438 750 C 4.648438 737.800781 4.949219 725.609375 5.546875 713.425781 C 6.144531 701.242188 7.042969 689.082031 8.238281 676.941406 C 9.433594 664.804688 10.925781 652.699219 12.71875 640.632812 C 14.507812 628.566406 16.59375 616.554688 18.972656 604.589844 C 21.351562 592.625 24.023438 580.726562 26.988281 568.894531 C 29.953125 557.0625 33.203125 545.308594 36.746094 533.636719 C 40.285156 521.964844 44.109375 510.382812 48.21875 498.898438 C 52.328125 487.414062 56.71875 476.035156 61.386719 464.765625 C 66.054688 453.496094 70.996094 442.347656 76.210938 431.320312 C 81.425781 420.292969 86.910156 409.402344 92.660156 398.644531 C 98.410156 387.886719 104.421875 377.277344 110.691406 366.8125 C 116.964844 356.351562 123.488281 346.046875 130.265625 335.90625 C 137.042969 325.761719 144.0625 315.792969 151.328125 305.996094 C 158.597656 296.199219 166.097656 286.585938 173.835938 277.15625 C 181.574219 267.726562 189.539062 258.492188 197.730469 249.453125 C 205.925781 240.414062 214.332031 231.582031 222.957031 222.957031 C 231.582031 214.332031 240.414062 205.925781 249.453125 197.730469 C 258.492188 189.539062 267.726562 181.574219 277.15625 173.835938 C 286.585938 166.097656 296.199219 158.597656 305.996094 151.328125 C 315.792969 144.0625 325.761719 137.042969 335.90625 130.265625 C 346.046875 123.488281 356.351562 116.964844 366.8125 110.691406 C 377.277344 104.421875 387.886719 98.410156 398.644531 92.660156 C 409.402344 86.910156 420.292969 81.425781 431.320312 76.210938 C 442.347656 70.996094 453.496094 66.054688 464.765625 61.386719 C 476.035156 56.71875 487.414062 52.328125 498.898438 48.21875 C 510.382812 44.109375 521.964844 40.285156 533.636719 36.746094 C 545.308594 33.203125 557.0625 29.949219 568.894531 26.988281 C 580.726562 24.023438 592.625 21.351562 604.589844 18.972656 C 616.554688 16.59375 628.566406 14.507812 640.632812 12.71875 C 652.699219 10.925781 664.804688 9.433594 676.941406 8.238281 C 689.082031 7.042969 701.242188 6.144531 713.425781 5.546875 C 725.609375 4.949219 737.800781 4.648438 750 4.648438 C 762.199219 4.648438 774.390625 4.949219 786.574219 5.546875 C 798.757812 6.144531 810.917969 7.042969 823.058594 8.238281 C 835.195312 9.433594 847.300781 10.925781 859.367188 12.71875 C 871.433594 14.507812 883.445312 16.59375 895.410156 18.972656 C 907.375 21.351562 919.273438 24.023438 931.105469 26.988281 C 942.9375 29.949219 954.691406 33.203125 966.363281 36.746094 C 978.035156 40.285156 989.617188 44.109375 1001.101562 48.21875 C 1012.585938 52.328125 1023.964844 56.71875 1035.234375 61.386719 C 1046.503906 66.054688 1057.652344 70.996094 1068.679688 76.210938 C 1079.703125 81.425781 1090.597656 86.910156 1101.355469 92.660156 C 1112.113281 98.410156 1122.722656 104.421875 1133.1875 110.691406 C 1143.648438 116.964844 1153.953125 123.488281 1164.09375 130.265625 C 1174.238281 137.042969 1184.207031 144.0625 1194.003906 151.328125 C 1203.800781 158.597656 1213.414062 166.097656 1222.84375 173.835938 C 1232.273438 181.574219 1241.507812 189.539062 1250.546875 197.730469 C 1259.585938 205.925781 1268.417969 214.332031 1277.042969 222.957031 C 1285.667969 231.582031 1294.074219 240.414062 1302.269531 249.453125 C 1310.460938 258.492188 1318.425781 267.726562 1326.164062 277.15625 C 1333.902344 286.585938 1341.402344 296.199219 1348.671875 305.996094 C 1355.9375 315.792969 1362.957031 325.761719 1369.734375 335.90625 C 1376.511719 346.046875 1383.035156 356.351562 1389.308594 366.8125 C 1395.578125 377.277344 1401.589844 387.886719 1407.339844 398.644531 C 1413.089844 409.402344 1418.574219 420.292969 1423.789062 431.320312 C 1429.003906 442.347656 1433.945312 453.496094 1438.613281 464.765625 C 1443.28125 476.035156 1447.671875 487.414062 1451.78125 498.898438 C 1455.890625 510.382812 1459.714844 521.964844 1463.253906 533.636719 C 1466.796875 545.308594 1470.046875 557.0625 1473.011719 568.894531 C 1475.976562 580.726562 1478.648438 592.625 1481.027344 604.589844 C 1483.40625 616.554688 1485.492188 628.566406 1487.28125 640.632812 C 1489.074219 652.699219 1490.566406 664.804688 1491.761719 676.941406 C 1492.957031 689.082031 1493.855469 701.242188 1494.453125 713.425781 C 1495.050781 725.609375 1495.351562 737.800781 1495.351562 750 Z M 1495.351562 750 " fill-opacity="1" fill-rule="nonzero"/><path fill="#ffffff" d="M 1231.5 669.75 C 1211.851562 664.351562 1192.648438 661.5 1174.050781 661.050781 L 1038.449219 471.449219 C 1036.050781 468 1032.449219 465.601562 1028.398438 464.550781 C 912.300781 434.699219 807.300781 414.449219 711 397.050781 C 691.949219 393.601562 672.449219 398.699219 657.601562 411.148438 C 642.898438 423.449219 634.199219 441.75 634.199219 461.25 L 633.898438 798 L 167.550781 798 C 165.148438 798 162.75 798.449219 160.648438 799.5 C 153.148438 801.601562 147.449219 808.351562 147.449219 816.75 L 147.449219 983.550781 C 147.449219 988.5 149.550781 992.851562 152.550781 996.148438 C 155.699219 1001.101562 161.25 1004.398438 167.550781 1004.398438 L 208.800781 1004.398438 C 217.5 1061.398438 266.550781 1105.199219 325.949219 1105.199219 C 368.398438 1105.199219 405.601562 1082.699219 426.601562 1049.101562 C 447.449219 1082.699219 484.800781 1105.199219 527.101562 1105.199219 C 586.5 1105.199219 635.699219 1061.398438 644.398438 1004.398438 L 1088.851562 1004.398438 C 1097.550781 1061.398438 1146.601562 1105.199219 1206 1105.199219 C 1265.398438 1105.199219 1316.851562 1059.300781 1323.898438 1000.5 L 1357.800781 1000.5 C 1367.699219 1000.5 1375.648438 992.550781 1375.648438 982.648438 L 1375.648438 851.398438 C 1375.648438 851.398438 1375.648438 850.5 1375.648438 850.199219 C 1370.101562 765 1312.199219 692.550781 1231.648438 669.601562 Z M 408.75 989.851562 C 407.101562 1034.101562 370.648438 1069.648438 325.949219 1069.648438 C 281.25 1069.648438 243 1032.449219 243 986.699219 C 243 940.949219 280.199219 903.75 325.949219 903.75 C 371.699219 903.75 407.101562 939.300781 408.75 983.699219 C 408.75 984.601562 408.75 985.800781 408.75 986.851562 C 408.75 987.75 408.75 988.949219 408.75 990 Z M 527.25 1069.648438 C 482.550781 1069.648438 446.101562 1034.101562 444.449219 989.851562 C 444.449219 988.800781 444.75 987.75 444.75 986.699219 C 444.75 985.648438 444.75 984.601562 444.449219 983.550781 C 446.101562 939.300781 482.550781 903.601562 527.25 903.601562 C 571.949219 903.601562 610.199219 940.800781 610.199219 986.550781 C 610.199219 1032.300781 573 1069.5 527.25 1069.5 Z M 1206 1069.648438 C 1160.398438 1069.648438 1123.050781 1032.449219 1123.050781 986.699219 C 1123.050781 940.949219 1160.25 903.75 1206 903.75 C 1251.75 903.75 1288.949219 940.949219 1288.949219 986.699219 C 1288.949219 1032.449219 1251.75 1069.648438 1206 1069.648438 Z M 1339.800781 964.800781 L 1322.550781 964.800781 C 1312.199219 909.75 1263.898438 868.050781 1205.851562 868.050781 C 1147.800781 868.050781 1097.398438 911.851562 1088.699219 968.851562 L 644.25 968.851562 C 635.550781 911.851562 586.351562 868.050781 526.949219 868.050781 C 484.5 868.050781 447.300781 890.550781 426.449219 924.148438 C 405.449219 890.550781 368.25 868.050781 325.800781 868.050781 C 266.398438 868.050781 217.351562 911.851562 208.648438 968.851562 L 182.851562 968.851562 L 182.851562 833.851562 L 651.601562 833.851562 C 661.5 833.851562 669.449219 825.898438 669.449219 816 C 669.449219 814.648438 669.449219 813.449219 669 812.101562 L 669.449219 461.398438 C 669.449219 452.699219 673.351562 444.300781 679.949219 438.75 C 686.550781 433.199219 695.398438 430.800781 704.101562 432.449219 C 798 449.398438 900.300781 468.898438 1012.800781 497.851562 L 1149.898438 689.699219 C 1154.25 695.851562 1161.601562 698.398438 1168.351562 696.75 C 1168.800781 696.75 1169.25 696.75 1169.851562 696.75 C 1186.351562 696.75 1203.601562 699.300781 1221.148438 704.25 C 1287.148438 722.851562 1334.550781 782.25 1339.199219 852.300781 L 1339.199219 965.101562 Z M 1339.800781 964.800781 " fill-opacity="1" fill-rule="nonzero"/><path fill="#ffffff" d="M 1017.300781 568.800781 C 1014 563.851562 1008.601562 561.148438 1002.601562 561.148438 L 885.898438 561.148438 C 876 561.148438 868.050781 569.101562 868.050781 579 L 868.050781 708.148438 C 868.050781 718.050781 876 726 885.898438 726 L 1092.449219 726.898438 C 1099.050781 726.898438 1105.199219 723.148438 1108.351562 717.449219 C 1111.5 711.601562 1111.050781 704.398438 1107.148438 699 L 1017.300781 569.101562 Z M 903.75 690.148438 L 903.75 596.699219 L 993.300781 596.699219 L 1058.398438 690.75 Z M 903.75 690.148438 " fill-opacity="1" fill-rule="nonzero"/><path fill="#ffffff" d="M 326.101562 925.949219 C 292.648438 925.949219 265.351562 953.25 265.351562 986.699219 C 265.351562 1020.148438 292.648438 1047.300781 326.101562 1047.300781 C 359.550781 1047.300781 386.851562 1020 386.851562 986.699219 C 386.851562 953.398438 359.550781 925.949219 326.101562 925.949219 Z M 326.101562 1011.75 C 312.300781 1011.75 301.050781 1000.648438 301.050781 986.699219 C 301.050781 972.75 312.300781 961.648438 326.101562 961.648438 C 339.898438 961.648438 351.148438 972.898438 351.148438 986.699219 C 351.148438 1000.5 339.898438 1011.75 326.101562 1011.75 Z M 326.101562 1011.75 " fill-opacity="1" fill-rule="nonzero"/><path fill="#ffffff" d="M 527.25 925.949219 C 493.800781 925.949219 466.648438 953.25 466.648438 986.699219 C 466.648438 1020.148438 493.949219 1047.300781 527.25 1047.300781 C 560.550781 1047.300781 588 1020 588 986.699219 C 588 953.398438 560.699219 925.949219 527.25 925.949219 Z M 527.25 1011.75 C 513.449219 1011.75 502.199219 1000.648438 502.199219 986.699219 C 502.199219 972.75 513.300781 961.648438 527.25 961.648438 C 541.199219 961.648438 552.300781 972.898438 552.300781 986.699219 C 552.300781 1000.5 541.050781 1011.75 527.25 1011.75 Z M 527.25 1011.75 " fill-opacity="1" fill-rule="nonzero"/><path fill="#ffffff" d="M 1206 925.949219 C 1172.550781 925.949219 1145.25 953.25 1145.25 986.699219 C 1145.25 1020.148438 1172.550781 1047.300781 1206 1047.300781 C 1239.449219 1047.300781 1266.601562 1020 1266.601562 986.699219 C 1266.601562 953.398438 1239.449219 925.949219 1206 925.949219 Z M 1206 1011.75 C 1192.199219 1011.75 1180.949219 1000.648438 1180.949219 986.699219 C 1180.949219 972.75 1192.199219 961.648438 1206 961.648438 C 1219.800781 961.648438 1231.050781 972.898438 1231.050781 986.699219 C 1231.050781 1000.5 1219.949219 1011.75 1206 1011.75 Z M 1206 1011.75 " fill-opacity="1" fill-rule="nonzero"/><path fill="#ffffff" d="M 235.949219 719.25 L 177.449219 745.351562 L 224.699219 763.5 L 301.648438 729.148438 L 267.300781 652.199219 L 220.050781 634.050781 L 239.851562 678.300781 C 187.949219 635.550781 163.648438 564.148438 181.199219 495.75 C 205.648438 400.5 301.5 342.300781 394.648438 366.300781 C 404.101562 368.699219 413.699219 363 416.101562 353.699219 C 418.5 344.25 412.800781 334.800781 403.5 332.25 C 291.449219 303.449219 176.550781 372.898438 147.148438 486.898438 C 124.199219 576.449219 161.25 670.351562 235.949219 719.101562 Z M 235.949219 719.25 " fill-opacity="1" fill-rule="nonzero"/><path fill="#ffffff" d="M 334.800781 761.851562 C 352.648438 766.648438 370.5 768.898438 388.199219 768.898438 C 481.351562 768.898438 567.148438 705.449219 592.800781 609.601562 C 616.800781 520.351562 580.648438 425.851562 506.550781 376.351562 L 565.351562 350.851562 L 518.398438 332.25 L 441.148438 365.699219 L 474.601562 442.949219 L 521.550781 461.550781 L 502.351562 417.148438 C 553.800781 460.5 577.351562 532.199219 558.898438 600.449219 C 533.398438 695.550781 436.949219 752.699219 343.949219 727.800781 C 334.648438 725.25 324.898438 730.800781 322.5 740.25 C 319.949219 749.550781 325.5 759.300781 334.949219 761.699219 Z M 334.800781 761.851562 " fill-opacity="1" fill-rule="nonzero"/><path fill="#ffffff" d="M 347.398438 639.898438 C 347.398438 639.898438 348.898438 639.898438 349.648438 639.898438 C 355.351562 639.148438 360.300781 635.699219 363.148438 630.75 L 443.101562 483.75 C 447.75 475.050781 444.601562 464.25 435.898438 459.601562 C 427.199219 454.949219 416.398438 458.101562 411.75 466.800781 L 343.648438 592.050781 L 310.800781 556.800781 C 304.050781 549.601562 292.800781 549.148438 285.601562 555.898438 C 278.398438 562.648438 277.949219 573.898438 284.699219 581.101562 L 334.351562 634.5 C 337.800781 638.101562 342.449219 640.199219 347.398438 640.199219 Z M 347.398438 639.898438 " fill-opacity="1" fill-rule="nonzero"/></svg>