<svg xmlns="http://www.w3.org/2000/svg" xmlns:xlink="http://www.w3.org/1999/xlink" width="2000" zoomAndPan="magnify" viewBox="0 0 1500 1499.999933" height="2000" preserveAspectRatio="xMidYMid meet" version="1.0"><path fill="#fb452f" d="M 1495.351562 750 C 1495.351562 762.199219 1495.050781 774.390625 1494.453125 786.574219 C 1493.855469 798.757812 1492.957031 810.917969 1491.761719 823.058594 C 1490.566406 835.195312 1489.074219 847.300781 1487.28125 859.367188 C 1485.492188 871.433594 1483.40625 883.445312 1481.027344 895.410156 C 1478.648438 907.375 1475.976562 919.273438 1473.011719 931.105469 C 1470.050781 942.9375 1466.796875 954.691406 1463.253906 966.363281 C 1459.714844 978.035156 1455.890625 989.617188 1451.78125 1001.101562 C 1447.671875 1012.585938 1443.28125 1023.964844 1438.613281 1035.234375 C 1433.945312 1046.503906 1429.003906 1057.652344 1423.789062 1068.679688 C 1418.574219 1079.703125 1413.089844 1090.597656 1407.339844 1101.355469 C 1401.589844 1112.113281 1395.578125 1122.722656 1389.308594 1133.1875 C 1383.035156 1143.648438 1376.511719 1153.953125 1369.734375 1164.09375 C 1362.957031 1174.238281 1355.9375 1184.207031 1348.671875 1194.003906 C 1341.402344 1203.800781 1333.902344 1213.414062 1326.164062 1222.84375 C 1318.425781 1232.273438 1310.460938 1241.507812 1302.269531 1250.546875 C 1294.074219 1259.585938 1285.667969 1268.417969 1277.042969 1277.042969 C 1268.417969 1285.667969 1259.585938 1294.074219 1250.546875 1302.269531 C 1241.507812 1310.460938 1232.273438 1318.425781 1222.84375 1326.164062 C 1213.414062 1333.902344 1203.800781 1341.402344 1194.003906 1348.671875 C 1184.207031 1355.9375 1174.238281 1362.957031 1164.09375 1369.734375 C 1153.953125 1376.511719 1143.648438 1383.035156 1133.1875 1389.308594 C 1122.722656 1395.578125 1112.113281 1401.589844 1101.355469 1407.339844 C 1090.597656 1413.089844 1079.703125 1418.574219 1068.679688 1423.789062 C 1057.652344 1429.003906 1046.503906 1433.945312 1035.234375 1438.613281 C 1023.964844 1443.28125 1012.585938 1447.671875 1001.101562 1451.78125 C 989.617188 1455.890625 978.035156 1459.714844 966.363281 1463.253906 C 954.691406 1466.796875 942.9375 1470.046875 931.105469 1473.011719 C 919.273438 1475.976562 907.375 1478.648438 895.410156 1481.027344 C 883.445312 1483.40625 871.433594 1485.492188 859.367188 1487.28125 C 847.300781 1489.074219 835.195312 1490.566406 823.058594 1491.761719 C 810.917969 1492.957031 798.757812 1493.855469 786.574219 1494.453125 C 774.390625 1495.050781 762.199219 1495.351562 750 1495.351562 C 737.800781 1495.351562 725.609375 1495.050781 713.425781 1494.453125 C 701.242188 1493.855469 689.082031 1492.957031 676.941406 1491.761719 C 664.804688 1490.566406 652.699219 1489.074219 640.632812 1487.28125 C 628.566406 1485.492188 616.554688 1483.40625 604.589844 1481.027344 C 592.625 1478.648438 580.726562 1475.976562 568.894531 1473.011719 C 557.0625 1470.050781 545.308594 1466.796875 533.636719 1463.253906 C 521.964844 1459.714844 510.382812 1455.890625 498.898438 1451.78125 C 487.414062 1447.671875 476.035156 1443.28125 464.765625 1438.613281 C 453.496094 1433.945312 442.347656 1429.003906 431.320312 1423.789062 C 420.292969 1418.574219 409.402344 1413.089844 398.644531 1407.339844 C 387.886719 1401.589844 377.277344 1395.578125 366.8125 1389.308594 C 356.351562 1383.035156 346.046875 1376.511719 335.90625 1369.734375 C 325.761719 1362.957031 315.792969 1355.9375 305.996094 1348.671875 C 296.199219 1341.402344 286.585938 1333.902344 277.15625 1326.164062 C 267.726562 1318.425781 258.492188 1310.460938 249.453125 1302.269531 C 240.414062 1294.074219 231.582031 1285.667969 222.957031 1277.042969 C 214.332031 1268.417969 205.925781 1259.585938 197.730469 1250.546875 C 189.539062 1241.507812 181.574219 1232.273438 173.835938 1222.84375 C 166.097656 1213.414062 158.597656 1203.800781 151.328125 1194.003906 C 144.0625 1184.207031 137.042969 1174.238281 130.265625 1164.09375 C 123.488281 1153.953125 116.964844 1143.648438 110.691406 1133.1875 C 104.421875 1122.722656 98.410156 1112.113281 92.660156 1101.355469 C 86.910156 1090.597656 81.425781 1079.703125 76.210938 1068.679688 C 70.996094 1057.652344 66.054688 1046.503906 61.386719 1035.234375 C 56.71875 1023.964844 52.328125 1012.585938 48.21875 1001.101562 C 44.109375 989.617188 40.285156 978.035156 36.746094 966.363281 C 33.203125 954.691406 29.953125 942.9375 26.988281 931.105469 C 24.023438 919.273438 21.351562 907.375 18.972656 895.410156 C 16.59375 883.445312 14.507812 871.433594 12.71875 859.367188 C 10.925781 847.300781 9.433594 835.195312 8.238281 823.058594 C 7.042969 810.917969 6.144531 798.757812 5.546875 786.574219 C 4.949219 774.390625 4.648438 762.199219 4.648438 750 C 4.648438 737.800781 4.949219 725.609375 5.546875 713.425781 C 6.144531 701.242188 7.042969 689.082031 8.238281 676.941406 C 9.433594 664.804688 10.925781 652.699219 12.71875 640.632812 C 14.507812 628.566406 16.59375 616.554688 18.972656 604.589844 C 21.351562 592.625 24.023438 580.726562 26.988281 568.894531 C 29.953125 557.0625 33.203125 545.308594 36.746094 533.636719 C 40.285156 521.964844 44.109375 510.382812 48.21875 498.898438 C 52.328125 487.414062 56.71875 476.035156 61.386719 464.765625 C 66.054688 453.496094 70.996094 442.347656 76.210938 431.320312 C 81.425781 420.292969 86.910156 409.402344 92.660156 398.644531 C 98.410156 387.886719 104.421875 377.277344 110.691406 366.8125 C 116.964844 356.351562 123.488281 346.046875 130.265625 335.90625 C 137.042969 325.761719 144.0625 315.792969 151.328125 305.996094 C 158.597656 296.199219 166.097656 286.585938 173.835938 277.15625 C 181.574219 267.726562 189.539062 258.492188 197.730469 249.453125 C 205.925781 240.414062 214.332031 231.582031 222.957031 222.957031 C 231.582031 214.332031 240.414062 205.925781 249.453125 197.730469 C 258.492188 189.539062 267.726562 181.574219 277.15625 173.835938 C 286.585938 166.097656 296.199219 158.597656 305.996094 151.328125 C 315.792969 144.0625 325.761719 137.042969 335.90625 130.265625 C 346.046875 123.488281 356.351562 116.964844 366.8125 110.691406 C 377.277344 104.421875 387.886719 98.410156 398.644531 92.660156 C 409.402344 86.910156 420.292969 81.425781 431.320312 76.210938 C 442.347656 70.996094 453.496094 66.054688 464.765625 61.386719 C 476.035156 56.71875 487.414062 52.328125 498.898438 48.21875 C 510.382812 44.109375 521.964844 40.285156 533.636719 36.746094 C 545.308594 33.203125 557.0625 29.949219 568.894531 26.988281 C 580.726562 24.023438 592.625 21.351562 604.589844 18.972656 C 616.554688 16.59375 628.566406 14.507812 640.632812 12.71875 C 652.699219 10.925781 664.804688 9.433594 676.941406 8.238281 C 689.082031 7.042969 701.242188 6.144531 713.425781 5.546875 C 725.609375 4.949219 737.800781 4.648438 750 4.648438 C 762.199219 4.648438 774.390625 4.949219 786.574219 5.546875 C 798.757812 6.144531 810.917969 7.042969 823.058594 8.238281 C 835.195312 9.433594 847.300781 10.925781 859.367188 12.71875 C 871.433594 14.507812 883.445312 16.59375 895.410156 18.972656 C 907.375 21.351562 919.273438 24.023438 931.105469 26.988281 C 942.9375 29.949219 954.691406 33.203125 966.363281 36.746094 C 978.035156 40.285156 989.617188 44.109375 1001.101562 48.21875 C 1012.585938 52.328125 1023.964844 56.71875 1035.234375 61.386719 C 1046.503906 66.054688 1057.652344 70.996094 1068.679688 76.210938 C 1079.703125 81.425781 1090.597656 86.910156 1101.355469 92.660156 C 1112.113281 98.410156 1122.722656 104.421875 1133.1875 110.691406 C 1143.648438 116.964844 1153.953125 123.488281 1164.09375 130.265625 C 1174.238281 137.042969 1184.207031 144.0625 1194.003906 151.328125 C 1203.800781 158.597656 1213.414062 166.097656 1222.84375 173.835938 C 1232.273438 181.574219 1241.507812 189.539062 1250.546875 197.730469 C 1259.585938 205.925781 1268.417969 214.332031 1277.042969 222.957031 C 1285.667969 231.582031 1294.074219 240.414062 1302.269531 249.453125 C 1310.460938 258.492188 1318.425781 267.726562 1326.164062 277.15625 C 1333.902344 286.585938 1341.402344 296.199219 1348.671875 305.996094 C 1355.9375 315.792969 1362.957031 325.761719 1369.734375 335.90625 C 1376.511719 346.046875 1383.035156 356.351562 1389.308594 366.8125 C 1395.578125 377.277344 1401.589844 387.886719 1407.339844 398.644531 C 1413.089844 409.402344 1418.574219 420.292969 1423.789062 431.320312 C 1429.003906 442.347656 1433.945312 453.496094 1438.613281 464.765625 C 1443.28125 476.035156 1447.671875 487.414062 1451.78125 498.898438 C 1455.890625 510.382812 1459.714844 521.964844 1463.253906 533.636719 C 1466.796875 545.308594 1470.046875 557.0625 1473.011719 568.894531 C 1475.976562 580.726562 1478.648438 592.625 1481.027344 604.589844 C 1483.40625 616.554688 1485.492188 628.566406 1487.28125 640.632812 C 1489.074219 652.699219 1490.566406 664.804688 1491.761719 676.941406 C 1492.957031 689.082031 1493.855469 701.242188 1494.453125 713.425781 C 1495.050781 725.609375 1495.351562 737.800781 1495.351562 750 Z M 1495.351562 750 " fill-opacity="1" fill-rule="nonzero"/><path fill="#ffffff" d="M 882.449219 740.699219 L 1089 741.449219 C 1095.601562 741.449219 1101.75 737.851562 1104.75 732 C 1107.898438 726.148438 1107.449219 719.101562 1103.699219 713.550781 L 1013.851562 583.648438 C 1010.550781 578.851562 1005 576 999.148438 576 L 882.449219 576 C 872.550781 576 864.601562 583.949219 864.601562 593.851562 L 864.601562 722.851562 C 864.601562 732.75 872.550781 740.699219 882.449219 740.699219 Z M 900.300781 611.550781 L 989.851562 611.550781 L 1054.949219 705.601562 L 900.300781 705 Z M 900.300781 611.550781 " fill-opacity="1" fill-rule="nonzero"/><path fill="#ffffff" d="M 164.101562 1019.550781 L 205.351562 1019.550781 C 214.050781 1076.550781 263.25 1120.351562 322.5 1120.351562 C 364.949219 1120.351562 402.300781 1097.851562 423.148438 1064.25 C 444.148438 1097.851562 481.351562 1120.351562 523.800781 1120.351562 C 583.199219 1120.351562 632.25 1076.550781 640.949219 1019.550781 L 1085.550781 1019.550781 C 1094.25 1076.550781 1143.300781 1120.351562 1202.699219 1120.351562 C 1262.101562 1120.351562 1313.550781 1074.449219 1320.449219 1015.648438 L 1354.351562 1015.648438 C 1364.25 1015.648438 1372.199219 1007.550781 1372.199219 997.800781 L 1372.199219 865.5 C 1366.648438 780.148438 1308.75 707.699219 1228.050781 684.898438 C 1208.550781 679.351562 1189.199219 676.5 1170.601562 676.199219 L 1035.148438 486.601562 C 1032.601562 483.300781 1029.148438 480.75 1025.101562 479.699219 C 909 449.699219 803.851562 429.449219 707.699219 412.199219 C 688.648438 408.75 669.148438 413.851562 654.300781 426.300781 C 639.449219 438.75 630.898438 457.050781 630.898438 476.398438 L 630.601562 813.148438 L 164.101562 813.148438 C 161.550781 813.148438 159.300781 813.75 157.199219 814.648438 C 149.550781 816.75 144 823.648438 144 831.898438 L 144 998.851562 C 144 1003.800781 145.949219 1008.148438 149.101562 1011.300781 C 152.25 1016.398438 157.800781 1019.699219 164.101562 1019.699219 Z M 405.300781 1004.699219 C 403.648438 1048.949219 367.050781 1084.5 322.351562 1084.5 C 277.648438 1084.5 239.398438 1047.449219 239.398438 1001.550781 C 239.398438 955.648438 276.601562 918.601562 322.351562 918.601562 C 368.101562 918.601562 403.5 954 405.300781 998.25 C 405.300781 999.300781 405 1000.351562 405 1001.550781 C 405 1002.75 405 1003.648438 405.300781 1004.699219 Z M 523.800781 1084.5 C 479.101562 1084.5 442.648438 1049.101562 441 1004.699219 C 441 1003.800781 441 1002.601562 441 1001.550781 C 441 1000.5 441 999.449219 441 998.25 C 442.648438 954 479.101562 918.601562 523.800781 918.601562 C 568.5 918.601562 606.75 955.648438 606.75 1001.550781 C 606.75 1047.449219 569.699219 1084.5 523.800781 1084.5 Z M 1202.550781 1084.5 C 1156.800781 1084.5 1119.601562 1047.449219 1119.601562 1001.550781 C 1119.601562 955.648438 1156.800781 918.601562 1202.550781 918.601562 C 1248.300781 918.601562 1285.5 955.648438 1285.5 1001.550781 C 1285.5 1047.449219 1248.449219 1084.5 1202.550781 1084.5 Z M 179.699219 848.851562 L 648.449219 848.851562 C 658.351562 848.851562 666.300781 840.75 666.300781 831 C 666.300781 829.648438 666 828.300781 665.851562 827.101562 L 666.148438 476.25 C 666.148438 467.550781 670.050781 459.148438 676.800781 453.601562 C 683.550781 447.898438 692.25 445.648438 700.949219 447.300781 C 794.699219 464.25 897 483.75 1009.5 512.699219 L 1146.75 704.699219 C 1151.101562 710.699219 1158.449219 713.25 1165.199219 711.601562 C 1165.648438 711.601562 1166.101562 711.898438 1166.699219 711.898438 C 1183.199219 711.898438 1200.449219 714.300781 1218.148438 719.398438 C 1284.148438 737.851562 1331.398438 797.398438 1336.199219 867.300781 L 1336.199219 980.25 L 1318.949219 980.25 C 1308.75 925.050781 1260.300781 883.351562 1202.398438 883.351562 C 1144.5 883.351562 1093.949219 927.148438 1085.25 984.148438 L 640.648438 984.148438 C 631.949219 927.148438 582.898438 883.351562 523.5 883.351562 C 481.050781 883.351562 443.851562 905.851562 422.851562 939.449219 C 402 905.851562 364.648438 883.351562 322.199219 883.351562 C 262.949219 883.351562 213.75 927.148438 205.050781 984.148438 L 179.398438 984.148438 L 179.398438 849.300781 Z M 179.699219 848.851562 " fill-opacity="1" fill-rule="nonzero"/><path fill="#ffffff" d="M 322.5 940.800781 C 289.050781 940.800781 261.898438 968.101562 261.898438 1001.550781 C 261.898438 1035 289.199219 1062.300781 322.5 1062.300781 C 355.800781 1062.300781 383.25 1035 383.25 1001.550781 C 383.25 968.101562 355.949219 940.800781 322.5 940.800781 Z M 322.5 1026.75 C 308.699219 1026.75 297.449219 1015.5 297.449219 1001.699219 C 297.449219 987.898438 308.550781 976.648438 322.5 976.648438 C 336.449219 976.648438 347.550781 987.898438 347.550781 1001.699219 C 347.550781 1015.5 336.300781 1026.75 322.5 1026.75 Z M 322.5 1026.75 " fill-opacity="1" fill-rule="nonzero"/><path fill="#ffffff" d="M 523.800781 940.800781 C 490.351562 940.800781 463.050781 968.101562 463.050781 1001.550781 C 463.050781 1035 490.351562 1062.300781 523.800781 1062.300781 C 557.25 1062.300781 584.550781 1035 584.550781 1001.550781 C 584.550781 968.101562 557.25 940.800781 523.800781 940.800781 Z M 523.800781 1026.75 C 510 1026.75 498.75 1015.5 498.75 1001.699219 C 498.75 987.898438 510 976.648438 523.800781 976.648438 C 537.601562 976.648438 548.851562 987.898438 548.851562 1001.699219 C 548.851562 1015.5 537.601562 1026.75 523.800781 1026.75 Z M 523.800781 1026.75 " fill-opacity="1" fill-rule="nonzero"/><path fill="#ffffff" d="M 1202.398438 940.800781 C 1168.949219 940.800781 1141.648438 968.101562 1141.648438 1001.550781 C 1141.648438 1035 1168.949219 1062.300781 1202.398438 1062.300781 C 1235.851562 1062.300781 1263.148438 1035 1263.148438 1001.550781 C 1263.148438 968.101562 1235.851562 940.800781 1202.398438 940.800781 Z M 1202.398438 1026.75 C 1188.601562 1026.75 1177.351562 1015.5 1177.351562 1001.699219 C 1177.351562 987.898438 1188.449219 976.648438 1202.398438 976.648438 C 1216.351562 976.648438 1227.449219 987.898438 1227.449219 1001.699219 C 1227.449219 1015.5 1216.199219 1026.75 1202.398438 1026.75 Z M 1202.398438 1026.75 " fill-opacity="1" fill-rule="nonzero"/><path fill="#ffffff" d="M 162 696 L 350.101562 780.148438 C 352.5 781.199219 354.898438 781.648438 357.449219 781.648438 C 358.050781 781.648438 358.648438 781.351562 359.25 781.351562 C 360 781.351562 360.601562 781.648438 361.199219 781.648438 C 363.75 781.648438 366.300781 781.050781 368.699219 780 L 552 695.699219 C 560.398438 694.199219 566.851562 687 566.851562 678.148438 L 566.851562 472.949219 C 566.851562 470.398438 566.25 468.148438 565.351562 466.050781 C 565.351562 465.148438 565.351562 464.25 565.351562 463.351562 C 565.648438 456.449219 561.601562 449.699219 555 446.550781 L 368.398438 360.75 C 365.550781 359.398438 362.398438 358.949219 359.25 359.25 C 355.949219 358.800781 352.5 359.25 349.351562 360.75 L 154.800781 455.101562 C 147.601562 458.550781 143.851562 466.199219 144.898438 473.550781 L 144.898438 677.851562 C 144.898438 687.300781 152.398438 695.101562 161.699219 695.699219 Z M 531 666 L 373.949219 738.300781 L 373.949219 563.550781 C 373.949219 563.550781 531 491.25 531 491.25 Z M 506.101562 463.351562 L 358.800781 531.148438 L 297.449219 506.699219 L 443.550781 434.699219 L 506.101562 463.5 Z M 359.398438 395.851562 L 401.699219 415.351562 L 252.898438 488.851562 L 206.101562 470.25 Z M 238.648438 521.699219 L 238.648438 576 C 238.648438 585.898438 246.75 593.851562 256.648438 593.851562 C 266.550781 593.851562 274.5 585.75 274.5 576 L 274.5 535.949219 L 338.101562 561.300781 L 338.101562 735.75 L 181.050781 665.550781 L 181.050781 498.898438 C 181.050781 498.898438 238.800781 522 238.800781 522 Z M 238.648438 521.699219 " fill-opacity="1" fill-rule="nonzero"/></svg>