<svg xmlns="http://www.w3.org/2000/svg" xmlns:xlink="http://www.w3.org/1999/xlink" width="2000" zoomAndPan="magnify" viewBox="0 0 1500 1499.999933" height="2000" preserveAspectRatio="xMidYMid meet" version="1.0"><path fill="#fb452f" d="M 1495.351562 750 C 1495.351562 762.199219 1495.050781 774.390625 1494.453125 786.574219 C 1493.855469 798.757812 1492.957031 810.917969 1491.761719 823.058594 C 1490.566406 835.195312 1489.074219 847.300781 1487.28125 859.367188 C 1485.492188 871.433594 1483.40625 883.445312 1481.027344 895.410156 C 1478.648438 907.375 1475.976562 919.273438 1473.011719 931.105469 C 1470.050781 942.9375 1466.796875 954.691406 1463.253906 966.363281 C 1459.714844 978.035156 1455.890625 989.617188 1451.78125 1001.101562 C 1447.671875 1012.585938 1443.28125 1023.964844 1438.613281 1035.234375 C 1433.945312 1046.503906 1429.003906 1057.652344 1423.789062 1068.679688 C 1418.574219 1079.703125 1413.089844 1090.597656 1407.339844 1101.355469 C 1401.589844 1112.113281 1395.578125 1122.722656 1389.308594 1133.1875 C 1383.035156 1143.648438 1376.511719 1153.953125 1369.734375 1164.09375 C 1362.957031 1174.238281 1355.9375 1184.207031 1348.671875 1194.003906 C 1341.402344 1203.800781 1333.902344 1213.414062 1326.164062 1222.84375 C 1318.425781 1232.273438 1310.460938 1241.507812 1302.269531 1250.546875 C 1294.074219 1259.585938 1285.667969 1268.417969 1277.042969 1277.042969 C 1268.417969 1285.667969 1259.585938 1294.074219 1250.546875 1302.269531 C 1241.507812 1310.460938 1232.273438 1318.425781 1222.84375 1326.164062 C 1213.414062 1333.902344 1203.800781 1341.402344 1194.003906 1348.671875 C 1184.207031 1355.9375 1174.238281 1362.957031 1164.09375 1369.734375 C 1153.953125 1376.511719 1143.648438 1383.035156 1133.1875 1389.308594 C 1122.722656 1395.578125 1112.113281 1401.589844 1101.355469 1407.339844 C 1090.597656 1413.089844 1079.703125 1418.574219 1068.679688 1423.789062 C 1057.652344 1429.003906 1046.503906 1433.945312 1035.234375 1438.613281 C 1023.964844 1443.28125 1012.585938 1447.671875 1001.101562 1451.78125 C 989.617188 1455.890625 978.035156 1459.714844 966.363281 1463.253906 C 954.691406 1466.796875 942.9375 1470.046875 931.105469 1473.011719 C 919.273438 1475.976562 907.375 1478.648438 895.410156 1481.027344 C 883.445312 1483.40625 871.433594 1485.492188 859.367188 1487.28125 C 847.300781 1489.074219 835.195312 1490.566406 823.058594 1491.761719 C 810.917969 1492.957031 798.757812 1493.855469 786.574219 1494.453125 C 774.390625 1495.050781 762.199219 1495.351562 750 1495.351562 C 737.800781 1495.351562 725.609375 1495.050781 713.425781 1494.453125 C 701.242188 1493.855469 689.082031 1492.957031 676.941406 1491.761719 C 664.804688 1490.566406 652.699219 1489.074219 640.632812 1487.28125 C 628.566406 1485.492188 616.554688 1483.40625 604.589844 1481.027344 C 592.625 1478.648438 580.726562 1475.976562 568.894531 1473.011719 C 557.0625 1470.050781 545.308594 1466.796875 533.636719 1463.253906 C 521.964844 1459.714844 510.382812 1455.890625 498.898438 1451.78125 C 487.414062 1447.671875 476.035156 1443.28125 464.765625 1438.613281 C 453.496094 1433.945312 442.347656 1429.003906 431.320312 1423.789062 C 420.292969 1418.574219 409.402344 1413.089844 398.644531 1407.339844 C 387.886719 1401.589844 377.277344 1395.578125 366.8125 1389.308594 C 356.351562 1383.035156 346.046875 1376.511719 335.90625 1369.734375 C 325.761719 1362.957031 315.792969 1355.9375 305.996094 1348.671875 C 296.199219 1341.402344 286.585938 1333.902344 277.15625 1326.164062 C 267.726562 1318.425781 258.492188 1310.460938 249.453125 1302.269531 C 240.414062 1294.074219 231.582031 1285.667969 222.957031 1277.042969 C 214.332031 1268.417969 205.925781 1259.585938 197.730469 1250.546875 C 189.539062 1241.507812 181.574219 1232.273438 173.835938 1222.84375 C 166.097656 1213.414062 158.597656 1203.800781 151.328125 1194.003906 C 144.0625 1184.207031 137.042969 1174.238281 130.265625 1164.09375 C 123.488281 1153.953125 116.964844 1143.648438 110.691406 1133.1875 C 104.421875 1122.722656 98.410156 1112.113281 92.660156 1101.355469 C 86.910156 1090.597656 81.425781 1079.703125 76.210938 1068.679688 C 70.996094 1057.652344 66.054688 1046.503906 61.386719 1035.234375 C 56.71875 1023.964844 52.328125 1012.585938 48.21875 1001.101562 C 44.109375 989.617188 40.285156 978.035156 36.746094 966.363281 C 33.203125 954.691406 29.953125 942.9375 26.988281 931.105469 C 24.023438 919.273438 21.351562 907.375 18.972656 895.410156 C 16.59375 883.445312 14.507812 871.433594 12.71875 859.367188 C 10.925781 847.300781 9.433594 835.195312 8.238281 823.058594 C 7.042969 810.917969 6.144531 798.757812 5.546875 786.574219 C 4.949219 774.390625 4.648438 762.199219 4.648438 750 C 4.648438 737.800781 4.949219 725.609375 5.546875 713.425781 C 6.144531 701.242188 7.042969 689.082031 8.238281 676.941406 C 9.433594 664.804688 10.925781 652.699219 12.71875 640.632812 C 14.507812 628.566406 16.59375 616.554688 18.972656 604.589844 C 21.351562 592.625 24.023438 580.726562 26.988281 568.894531 C 29.953125 557.0625 33.203125 545.308594 36.746094 533.636719 C 40.285156 521.964844 44.109375 510.382812 48.21875 498.898438 C 52.328125 487.414062 56.71875 476.035156 61.386719 464.765625 C 66.054688 453.496094 70.996094 442.347656 76.210938 431.320312 C 81.425781 420.292969 86.910156 409.402344 92.660156 398.644531 C 98.410156 387.886719 104.421875 377.277344 110.691406 366.8125 C 116.964844 356.351562 123.488281 346.046875 130.265625 335.90625 C 137.042969 325.761719 144.0625 315.792969 151.328125 305.996094 C 158.597656 296.199219 166.097656 286.585938 173.835938 277.15625 C 181.574219 267.726562 189.539062 258.492188 197.730469 249.453125 C 205.925781 240.414062 214.332031 231.582031 222.957031 222.957031 C 231.582031 214.332031 240.414062 205.925781 249.453125 197.730469 C 258.492188 189.539062 267.726562 181.574219 277.15625 173.835938 C 286.585938 166.097656 296.199219 158.597656 305.996094 151.328125 C 315.792969 144.0625 325.761719 137.042969 335.90625 130.265625 C 346.046875 123.488281 356.351562 116.964844 366.8125 110.691406 C 377.277344 104.421875 387.886719 98.410156 398.644531 92.660156 C 409.402344 86.910156 420.292969 81.425781 431.320312 76.210938 C 442.347656 70.996094 453.496094 66.054688 464.765625 61.386719 C 476.035156 56.71875 487.414062 52.328125 498.898438 48.21875 C 510.382812 44.109375 521.964844 40.285156 533.636719 36.746094 C 545.308594 33.203125 557.0625 29.949219 568.894531 26.988281 C 580.726562 24.023438 592.625 21.351562 604.589844 18.972656 C 616.554688 16.59375 628.566406 14.507812 640.632812 12.71875 C 652.699219 10.925781 664.804688 9.433594 676.941406 8.238281 C 689.082031 7.042969 701.242188 6.144531 713.425781 5.546875 C 725.609375 4.949219 737.800781 4.648438 750 4.648438 C 762.199219 4.648438 774.390625 4.949219 786.574219 5.546875 C 798.757812 6.144531 810.917969 7.042969 823.058594 8.238281 C 835.195312 9.433594 847.300781 10.925781 859.367188 12.71875 C 871.433594 14.507812 883.445312 16.59375 895.410156 18.972656 C 907.375 21.351562 919.273438 24.023438 931.105469 26.988281 C 942.9375 29.949219 954.691406 33.203125 966.363281 36.746094 C 978.035156 40.285156 989.617188 44.109375 1001.101562 48.21875 C 1012.585938 52.328125 1023.964844 56.71875 1035.234375 61.386719 C 1046.503906 66.054688 1057.652344 70.996094 1068.679688 76.210938 C 1079.703125 81.425781 1090.597656 86.910156 1101.355469 92.660156 C 1112.113281 98.410156 1122.722656 104.421875 1133.1875 110.691406 C 1143.648438 116.964844 1153.953125 123.488281 1164.09375 130.265625 C 1174.238281 137.042969 1184.207031 144.0625 1194.003906 151.328125 C 1203.800781 158.597656 1213.414062 166.097656 1222.84375 173.835938 C 1232.273438 181.574219 1241.507812 189.539062 1250.546875 197.730469 C 1259.585938 205.925781 1268.417969 214.332031 1277.042969 222.957031 C 1285.667969 231.582031 1294.074219 240.414062 1302.269531 249.453125 C 1310.460938 258.492188 1318.425781 267.726562 1326.164062 277.15625 C 1333.902344 286.585938 1341.402344 296.199219 1348.671875 305.996094 C 1355.9375 315.792969 1362.957031 325.761719 1369.734375 335.90625 C 1376.511719 346.046875 1383.035156 356.351562 1389.308594 366.8125 C 1395.578125 377.277344 1401.589844 387.886719 1407.339844 398.644531 C 1413.089844 409.402344 1418.574219 420.292969 1423.789062 431.320312 C 1429.003906 442.347656 1433.945312 453.496094 1438.613281 464.765625 C 1443.28125 476.035156 1447.671875 487.414062 1451.78125 498.898438 C 1455.890625 510.382812 1459.714844 521.964844 1463.253906 533.636719 C 1466.796875 545.308594 1470.046875 557.0625 1473.011719 568.894531 C 1475.976562 580.726562 1478.648438 592.625 1481.027344 604.589844 C 1483.40625 616.554688 1485.492188 628.566406 1487.28125 640.632812 C 1489.074219 652.699219 1490.566406 664.804688 1491.761719 676.941406 C 1492.957031 689.082031 1493.855469 701.242188 1494.453125 713.425781 C 1495.050781 725.609375 1495.351562 737.800781 1495.351562 750 Z M 1495.351562 750 " fill-opacity="1" fill-rule="nonzero"/><path fill="#ffffff" d="M 1078.949219 596.699219 C 1075.949219 592.351562 1071 589.648438 1065.601562 589.648438 L 959.101562 589.648438 C 950.101562 589.648438 942.898438 596.851562 942.898438 606 L 942.898438 723.601562 C 942.898438 732.601562 950.101562 739.949219 959.101562 739.949219 L 1147.5 740.550781 C 1153.5 740.550781 1159.050781 737.25 1161.898438 731.851562 C 1164.601562 726.449219 1164.300781 720 1160.851562 715.050781 L 1078.949219 596.550781 Z M 975.449219 707.398438 L 975.449219 622.199219 L 1057.050781 622.199219 L 1116.449219 708 Z M 975.449219 707.398438 " fill-opacity="1" fill-rule="nonzero"/><path fill="#ffffff" d="M 448.5 922.5 C 417.898438 922.5 393 947.398438 393 978 C 393 1008.601562 417.898438 1033.5 448.5 1033.5 C 479.101562 1033.5 504 1008.601562 504 978 C 504 947.398438 479.101562 922.5 448.5 922.5 Z M 448.5 1000.800781 C 435.898438 1000.800781 425.550781 990.449219 425.550781 977.851562 C 425.550781 965.25 435.898438 954.898438 448.5 954.898438 C 461.101562 954.898438 471.300781 965.25 471.300781 977.851562 C 471.300781 990.449219 461.101562 1000.800781 448.5 1000.800781 Z M 448.5 1000.800781 " fill-opacity="1" fill-rule="nonzero"/><path fill="#ffffff" d="M 631.949219 922.5 C 601.351562 922.5 576.449219 947.398438 576.449219 978 C 576.449219 1008.601562 601.351562 1033.5 631.949219 1033.5 C 662.550781 1033.5 687.449219 1008.601562 687.449219 978 C 687.449219 947.398438 662.550781 922.5 631.949219 922.5 Z M 631.949219 1000.800781 C 619.351562 1000.800781 609.148438 990.449219 609.148438 977.851562 C 609.148438 965.25 619.351562 954.898438 631.949219 954.898438 C 644.550781 954.898438 654.898438 965.25 654.898438 977.851562 C 654.898438 990.449219 644.550781 1000.800781 631.949219 1000.800781 Z M 631.949219 1000.800781 " fill-opacity="1" fill-rule="nonzero"/><path fill="#ffffff" d="M 1251 922.5 C 1220.550781 922.5 1195.648438 947.398438 1195.648438 978 C 1195.648438 1008.601562 1220.550781 1033.5 1251 1033.5 C 1281.449219 1033.5 1306.5 1008.601562 1306.5 978 C 1306.5 947.398438 1281.601562 922.5 1251 922.5 Z M 1251 1000.800781 C 1238.398438 1000.800781 1228.199219 990.449219 1228.199219 977.851562 C 1228.199219 965.25 1238.398438 954.898438 1251 954.898438 C 1263.601562 954.898438 1273.949219 965.25 1273.949219 977.851562 C 1273.949219 990.449219 1263.601562 1000.800781 1251 1000.800781 Z M 1251 1000.800781 " fill-opacity="1" fill-rule="nonzero"/><path fill="#ffffff" d="M 1274.398438 688.949219 C 1256.550781 683.851562 1239 681.300781 1221.898438 681 L 1098.300781 508.050781 C 1096.050781 505.050781 1092.75 502.648438 1089.148438 501.75 C 983.25 474.300781 887.398438 456 799.648438 440.25 C 786.148438 437.699219 772.5 440.25 760.648438 446.550781 L 760.648438 393.898438 C 760.648438 384.898438 753.449219 377.699219 744.449219 377.699219 L 310.199219 377.699219 C 301.199219 377.699219 293.851562 384.898438 293.851562 393.898438 L 293.851562 468.300781 L 141.449219 468.300781 C 132.300781 468.300781 125.101562 475.648438 125.101562 484.648438 C 125.101562 493.648438 132.300781 501 141.449219 501 L 390.300781 501 C 399.300781 501 406.648438 493.648438 406.648438 484.648438 C 406.648438 475.648438 399.300781 468.300781 390.300781 468.300781 L 326.25 468.300781 L 326.25 410.25 L 727.949219 410.25 L 727.949219 518.851562 C 727.949219 521.101562 728.550781 523.5 729.300781 525.449219 L 729 806.101562 L 303.898438 806.101562 C 301.648438 806.101562 299.550781 806.699219 297.601562 807.449219 C 290.699219 809.25 285.601562 815.699219 285.601562 823.050781 L 285.601562 975.300781 C 285.601562 979.800781 287.398438 983.851562 290.25 986.699219 C 293.25 991.351562 298.199219 994.351562 303.898438 994.351562 L 341.550781 994.351562 C 349.5 1046.25 394.199219 1086.300781 448.351562 1086.300781 C 487.050781 1086.300781 520.949219 1065.75 540.148438 1035.148438 C 559.199219 1065.75 593.101562 1086.300781 631.800781 1086.300781 C 685.949219 1086.300781 730.800781 1046.25 738.75 994.351562 L 1144.050781 994.351562 C 1152 1046.25 1196.699219 1086.300781 1250.851562 1086.300781 C 1305 1086.300781 1351.949219 1044.449219 1358.25 990.75 L 1389.300781 990.75 C 1398.300781 990.75 1405.5 983.398438 1405.5 974.398438 L 1405.5 853.648438 C 1400.398438 775.800781 1347.601562 709.648438 1274.101562 688.949219 Z M 523.949219 980.851562 C 522.449219 1021.351562 489.148438 1053.601562 448.5 1053.601562 C 407.851562 1053.601562 372.75 1019.699219 372.75 978 C 372.75 936.300781 406.648438 902.398438 448.5 902.398438 C 490.351562 902.398438 522.449219 934.648438 523.949219 975 C 523.949219 976.050781 523.949219 976.949219 523.949219 978 C 523.949219 979.050781 523.949219 979.949219 523.949219 980.851562 Z M 631.949219 1053.601562 C 591.148438 1053.601562 558 1021.351562 556.5 980.851562 C 556.5 979.949219 556.5 979.050781 556.5 978 C 556.5 976.949219 556.5 976.050781 556.5 975 C 558 934.648438 591.300781 902.398438 631.949219 902.398438 C 672.601562 902.398438 707.699219 936.300781 707.699219 978 C 707.699219 1019.699219 673.800781 1053.601562 631.949219 1053.601562 Z M 1251.148438 1053.601562 C 1209.449219 1053.601562 1175.550781 1019.699219 1175.550781 978 C 1175.550781 936.300781 1209.449219 902.398438 1251.148438 902.398438 C 1292.851562 902.398438 1326.898438 936.300781 1326.898438 978 C 1326.898438 1019.699219 1293 1053.601562 1251.148438 1053.601562 Z M 1373.25 958.199219 L 1357.5 958.199219 C 1348.199219 907.949219 1304.101562 869.851562 1251.300781 869.851562 C 1198.5 869.851562 1152.300781 909.898438 1144.5 961.800781 L 739.199219 961.800781 C 731.25 909.898438 686.398438 869.851562 632.25 869.851562 C 593.550781 869.851562 559.648438 890.398438 540.601562 921 C 521.398438 890.25 487.5 869.851562 448.800781 869.851562 C 394.648438 869.851562 349.800781 909.898438 342 961.800781 L 318.449219 961.800781 L 318.449219 838.800781 L 746.101562 838.800781 C 755.101562 838.800781 762.449219 831.449219 762.449219 822.449219 C 762.449219 821.25 762.300781 820.050781 762 819 L 762.300781 499.050781 C 762.300781 491.101562 765.898438 483.449219 772.050781 478.351562 C 778.199219 473.25 786.300781 471.148438 794.101562 472.5 C 879.601562 487.949219 972.898438 505.800781 1075.648438 532.050781 L 1200.75 707.101562 C 1204.648438 712.648438 1211.398438 714.898438 1217.550781 713.398438 C 1218 713.398438 1218.449219 713.550781 1218.898438 713.550781 C 1234.050781 713.550781 1249.648438 715.800781 1265.851562 720.300781 C 1326 737.101562 1369.199219 791.398438 1373.550781 855.148438 L 1373.550781 958.199219 Z M 1373.25 958.199219 " fill-opacity="1" fill-rule="nonzero"/><path fill="#ffffff" d="M 422.851562 588.898438 C 431.851562 588.898438 439.199219 581.550781 439.199219 572.550781 C 439.199219 563.550781 431.851562 556.199219 422.851562 556.199219 L 173.851562 556.199219 C 164.851562 556.199219 157.5 563.550781 157.5 572.550781 C 157.5 581.550781 164.851562 588.898438 173.851562 588.898438 Z M 422.851562 588.898438 " fill-opacity="1" fill-rule="nonzero"/><path fill="#ffffff" d="M 364.351562 660.898438 C 364.351562 651.898438 357 644.550781 348 644.550781 L 114.449219 644.550781 C 105.449219 644.550781 98.101562 651.898438 98.101562 660.898438 C 98.101562 669.898438 105.449219 677.25 114.449219 677.25 L 348.148438 677.25 C 357.148438 677.25 364.5 669.898438 364.5 660.898438 Z M 364.351562 660.898438 " fill-opacity="1" fill-rule="nonzero"/><path fill="#ffffff" d="M 449.699219 765.300781 C 458.699219 765.300781 466.050781 757.949219 466.050781 748.949219 C 466.050781 739.949219 458.699219 732.601562 449.699219 732.601562 L 200.699219 732.601562 C 191.699219 732.601562 184.351562 739.949219 184.351562 748.949219 C 184.351562 757.949219 191.699219 765.300781 200.699219 765.300781 Z M 449.699219 765.300781 " fill-opacity="1" fill-rule="nonzero"/></svg>