<?xml version="1.0" encoding="UTF-8"?> <svg xmlns="http://www.w3.org/2000/svg" id="Layer_1" viewBox="0 0 100 100"><defs><style>.cls-1{fill:#b10838;}.cls-1,.cls-2{stroke-width:0px;}.cls-2{fill:#fff;}</style></defs><circle class="cls-1" cx="50" cy="50" r="49.69"></circle><path class="cls-2" d="M73.6,41.33c-.19-.28-.52-.45-.86-.45h-6.87c-.58,0-1.05.47-1.05,1.05v7.6c0,.58.47,1.05,1.05,1.05l12.17.04c.39,0,.75-.21.93-.56.18-.35.16-.76-.07-1.09l-5.29-7.65ZM66.92,48.48v-5.51h5.27l3.84,5.54-9.11-.04Z"></path><path class="cls-2" d="M32.88,62.37c-1.97,0-3.58,1.61-3.58,3.58s1.61,3.58,3.58,3.58,3.58-1.61,3.58-3.58-1.61-3.58-3.58-3.58ZM32.88,67.43c-.81,0-1.48-.67-1.48-1.48s.67-1.48,1.48-1.48,1.47.67,1.47,1.48-.66,1.48-1.47,1.48Z"></path><path class="cls-2" d="M44.73,62.37c-1.97,0-3.57,1.61-3.57,3.58s1.6,3.58,3.57,3.58,3.58-1.61,3.58-3.58-1.61-3.58-3.58-3.58ZM44.73,67.43c-.81,0-1.47-.67-1.47-1.48s.66-1.48,1.47-1.48,1.48.67,1.48,1.48-.67,1.48-1.48,1.48Z"></path><path class="cls-2" d="M84.72,62.37c-1.97,0-3.58,1.61-3.58,3.58s1.61,3.58,3.58,3.58,3.57-1.61,3.57-3.58-1.61-3.58-3.57-3.58ZM84.72,67.43c-.82,0-1.48-.67-1.48-1.48s.66-1.48,1.48-1.48,1.47.67,1.47,1.48-.66,1.48-1.47,1.48Z"></path><path class="cls-2" d="M86.22,47.29c-1.15-.33-2.29-.5-3.39-.52l-7.98-11.17c-.14-.2-.35-.35-.59-.4-6.84-1.77-13.03-2.96-18.7-3.98-1.13-.21-2.27.1-3.15.83-.87.74-1.38,1.81-1.38,2.95l-.02,19.84h-27.45c-.14,0-.28.04-.41.08-.45.12-.78.53-.78,1.01v9.84c0,.29.12.54.3.74.18.3.52.5.88.5h2.43c.51,3.35,3.4,5.94,6.9,5.94,2.5,0,4.69-1.32,5.93-3.3,1.23,1.98,3.42,3.3,5.92,3.3,3.5,0,6.4-2.58,6.91-5.94h26.18c.51,3.35,3.4,5.94,6.9,5.94s6.53-2.7,6.94-6.17h2c.58,0,1.05-.47,1.05-1.05v-7.8c-.33-5.02-3.74-9.3-8.48-10.64ZM37.76,66.15c-.1,2.6-2.24,4.7-4.88,4.7s-4.89-2.19-4.89-4.89,2.19-4.88,4.89-4.88,4.78,2.09,4.88,4.7c0,.06,0,.12,0,.18s0,.13,0,.19ZM44.73,70.84c-2.63,0-4.78-2.09-4.88-4.71,0-.06.01-.12.01-.18s-.01-.13-.01-.18c.1-2.61,2.25-4.7,4.88-4.7s4.89,2.19,4.89,4.88-2.19,4.89-4.89,4.89ZM84.72,70.84c-2.69,0-4.88-2.19-4.88-4.89s2.19-4.88,4.88-4.88,4.89,2.19,4.89,4.88-2.19,4.89-4.89,4.89ZM92.6,64.67h-1.02c-.6-3.25-3.45-5.71-6.86-5.71s-6.39,2.58-6.9,5.94h-26.18c-.51-3.35-3.41-5.94-6.91-5.94-2.5,0-4.69,1.33-5.92,3.3-1.24-1.97-3.43-3.3-5.93-3.3-3.5,0-6.39,2.58-6.9,5.94h-1.52v-7.95h27.62c.58,0,1.05-.47,1.05-1.05,0-.08,0-.16-.03-.23l.02-20.67c0-.52.23-1,.63-1.34.4-.33.92-.47,1.42-.38,5.53,1,11.55,2.15,18.19,3.85l8.08,11.31c.25.35.69.5,1.09.41.03,0,.06.01.09.01.97,0,1.99.15,3.02.44,3.88,1.09,6.68,4.59,6.96,8.71v6.65Z"></path><path class="cls-2" d="M48.26,50.74v-16.58c0-.67-.45-1.22-1.05-1.41l-15.52-6.19c-.48-.2-1.04.04-1.24.53-.19.49.04,1.04.53,1.24l10.91,4.35H12.39l10.9-4.35c.49-.2.73-.75.53-1.24-.19-.49-.75-.73-1.24-.53l-15.65,6.25c-.37.14-.59.5-.6.87-.05.16-.08.31-.08.48v16.58c0,.81.67,1.48,1.48,1.48h39.05c.81,0,1.48-.67,1.48-1.48ZM13.1,49.04h-3.67v-13.18h3.67v13.18ZM19.51,49.04h-3.74v-13.18h3.74v13.18ZM25.9,49.04h-3.74v-13.18h3.74v13.18ZM32.31,49.04h-3.74v-13.18h3.74v13.18ZM38.71,49.04h-3.74v-13.18h3.74v13.18ZM45.07,49.04h-3.71v-13.18h3.71v13.18Z"></path><path class="cls-2" d="M27.17,26.15c-.6,0-1.09-.49-1.09-1.09,0-.53-.43-.95-.95-.95s-.95.43-.95.95c0,1.58,1.23,2.88,2.79,2.99.07.02.14.03.22.03,1.65,0,3-1.34,3-3,0-1.33-.87-2.46-2.08-2.85v-1.22c0-.53-.43-.95-.95-.95s-.95.43-.95.95v1.97c0,.15.04.3.1.43.14.34.48.59.88.59.59,0,1.07.47,1.09,1.05,0,0,0,.02,0,.03,0,.6-.49,1.09-1.09,1.09Z"></path></svg> 