<svg xmlns="http://www.w3.org/2000/svg" xmlns:xlink="http://www.w3.org/1999/xlink" width="2000" zoomAndPan="magnify" viewBox="0 0 1500 1499.999933" height="2000" preserveAspectRatio="xMidYMid meet" version="1.0"><path fill="#fb452f" d="M 1495.351562 750 C 1495.351562 762.199219 1495.050781 774.390625 1494.453125 786.574219 C 1493.855469 798.757812 1492.957031 810.917969 1491.761719 823.058594 C 1490.566406 835.195312 1489.074219 847.300781 1487.28125 859.367188 C 1485.492188 871.433594 1483.40625 883.445312 1481.027344 895.410156 C 1478.648438 907.375 1475.976562 919.273438 1473.011719 931.105469 C 1470.050781 942.9375 1466.796875 954.691406 1463.253906 966.363281 C 1459.714844 978.035156 1455.890625 989.617188 1451.78125 1001.101562 C 1447.671875 1012.585938 1443.28125 1023.964844 1438.613281 1035.234375 C 1433.945312 1046.503906 1429.003906 1057.652344 1423.789062 1068.679688 C 1418.574219 1079.703125 1413.089844 1090.597656 1407.339844 1101.355469 C 1401.589844 1112.113281 1395.578125 1122.722656 1389.308594 1133.1875 C 1383.035156 1143.648438 1376.511719 1153.953125 1369.734375 1164.09375 C 1362.957031 1174.238281 1355.9375 1184.207031 1348.671875 1194.003906 C 1341.402344 1203.800781 1333.902344 1213.414062 1326.164062 1222.84375 C 1318.425781 1232.273438 1310.460938 1241.507812 1302.269531 1250.546875 C 1294.074219 1259.585938 1285.667969 1268.417969 1277.042969 1277.042969 C 1268.417969 1285.667969 1259.585938 1294.074219 1250.546875 1302.269531 C 1241.507812 1310.460938 1232.273438 1318.425781 1222.84375 1326.164062 C 1213.414062 1333.902344 1203.800781 1341.402344 1194.003906 1348.671875 C 1184.207031 1355.9375 1174.238281 1362.957031 1164.09375 1369.734375 C 1153.953125 1376.511719 1143.648438 1383.035156 1133.1875 1389.308594 C 1122.722656 1395.578125 1112.113281 1401.589844 1101.355469 1407.339844 C 1090.597656 1413.089844 1079.703125 1418.574219 1068.679688 1423.789062 C 1057.652344 1429.003906 1046.503906 1433.945312 1035.234375 1438.613281 C 1023.964844 1443.28125 1012.585938 1447.671875 1001.101562 1451.78125 C 989.617188 1455.890625 978.035156 1459.714844 966.363281 1463.253906 C 954.691406 1466.796875 942.9375 1470.046875 931.105469 1473.011719 C 919.273438 1475.976562 907.375 1478.648438 895.410156 1481.027344 C 883.445312 1483.40625 871.433594 1485.492188 859.367188 1487.28125 C 847.300781 1489.074219 835.195312 1490.566406 823.058594 1491.761719 C 810.917969 1492.957031 798.757812 1493.855469 786.574219 1494.453125 C 774.390625 1495.050781 762.199219 1495.351562 750 1495.351562 C 737.800781 1495.351562 725.609375 1495.050781 713.425781 1494.453125 C 701.242188 1493.855469 689.082031 1492.957031 676.941406 1491.761719 C 664.804688 1490.566406 652.699219 1489.074219 640.632812 1487.28125 C 628.566406 1485.492188 616.554688 1483.40625 604.589844 1481.027344 C 592.625 1478.648438 580.726562 1475.976562 568.894531 1473.011719 C 557.0625 1470.050781 545.308594 1466.796875 533.636719 1463.253906 C 521.964844 1459.714844 510.382812 1455.890625 498.898438 1451.78125 C 487.414062 1447.671875 476.035156 1443.28125 464.765625 1438.613281 C 453.496094 1433.945312 442.347656 1429.003906 431.320312 1423.789062 C 420.292969 1418.574219 409.402344 1413.089844 398.644531 1407.339844 C 387.886719 1401.589844 377.277344 1395.578125 366.8125 1389.308594 C 356.351562 1383.035156 346.046875 1376.511719 335.90625 1369.734375 C 325.761719 1362.957031 315.792969 1355.9375 305.996094 1348.671875 C 296.199219 1341.402344 286.585938 1333.902344 277.15625 1326.164062 C 267.726562 1318.425781 258.492188 1310.460938 249.453125 1302.269531 C 240.414062 1294.074219 231.582031 1285.667969 222.957031 1277.042969 C 214.332031 1268.417969 205.925781 1259.585938 197.730469 1250.546875 C 189.539062 1241.507812 181.574219 1232.273438 173.835938 1222.84375 C 166.097656 1213.414062 158.597656 1203.800781 151.328125 1194.003906 C 144.0625 1184.207031 137.042969 1174.238281 130.265625 1164.09375 C 123.488281 1153.953125 116.964844 1143.648438 110.691406 1133.1875 C 104.421875 1122.722656 98.410156 1112.113281 92.660156 1101.355469 C 86.910156 1090.597656 81.425781 1079.703125 76.210938 1068.679688 C 70.996094 1057.652344 66.054688 1046.503906 61.386719 1035.234375 C 56.71875 1023.964844 52.328125 1012.585938 48.21875 1001.101562 C 44.109375 989.617188 40.285156 978.035156 36.746094 966.363281 C 33.203125 954.691406 29.953125 942.9375 26.988281 931.105469 C 24.023438 919.273438 21.351562 907.375 18.972656 895.410156 C 16.59375 883.445312 14.507812 871.433594 12.71875 859.367188 C 10.925781 847.300781 9.433594 835.195312 8.238281 823.058594 C 7.042969 810.917969 6.144531 798.757812 5.546875 786.574219 C 4.949219 774.390625 4.648438 762.199219 4.648438 750 C 4.648438 737.800781 4.949219 725.609375 5.546875 713.425781 C 6.144531 701.242188 7.042969 689.082031 8.238281 676.941406 C 9.433594 664.804688 10.925781 652.699219 12.71875 640.632812 C 14.507812 628.566406 16.59375 616.554688 18.972656 604.589844 C 21.351562 592.625 24.023438 580.726562 26.988281 568.894531 C 29.953125 557.0625 33.203125 545.308594 36.746094 533.636719 C 40.285156 521.964844 44.109375 510.382812 48.21875 498.898438 C 52.328125 487.414062 56.71875 476.035156 61.386719 464.765625 C 66.054688 453.496094 70.996094 442.347656 76.210938 431.320312 C 81.425781 420.292969 86.910156 409.402344 92.660156 398.644531 C 98.410156 387.886719 104.421875 377.277344 110.691406 366.8125 C 116.964844 356.351562 123.488281 346.046875 130.265625 335.90625 C 137.042969 325.761719 144.0625 315.792969 151.328125 305.996094 C 158.597656 296.199219 166.097656 286.585938 173.835938 277.15625 C 181.574219 267.726562 189.539062 258.492188 197.730469 249.453125 C 205.925781 240.414062 214.332031 231.582031 222.957031 222.957031 C 231.582031 214.332031 240.414062 205.925781 249.453125 197.730469 C 258.492188 189.539062 267.726562 181.574219 277.15625 173.835938 C 286.585938 166.097656 296.199219 158.597656 305.996094 151.328125 C 315.792969 144.0625 325.761719 137.042969 335.90625 130.265625 C 346.046875 123.488281 356.351562 116.964844 366.8125 110.691406 C 377.277344 104.421875 387.886719 98.410156 398.644531 92.660156 C 409.402344 86.910156 420.292969 81.425781 431.320312 76.210938 C 442.347656 70.996094 453.496094 66.054688 464.765625 61.386719 C 476.035156 56.71875 487.414062 52.328125 498.898438 48.21875 C 510.382812 44.109375 521.964844 40.285156 533.636719 36.746094 C 545.308594 33.203125 557.0625 29.949219 568.894531 26.988281 C 580.726562 24.023438 592.625 21.351562 604.589844 18.972656 C 616.554688 16.59375 628.566406 14.507812 640.632812 12.71875 C 652.699219 10.925781 664.804688 9.433594 676.941406 8.238281 C 689.082031 7.042969 701.242188 6.144531 713.425781 5.546875 C 725.609375 4.949219 737.800781 4.648438 750 4.648438 C 762.199219 4.648438 774.390625 4.949219 786.574219 5.546875 C 798.757812 6.144531 810.917969 7.042969 823.058594 8.238281 C 835.195312 9.433594 847.300781 10.925781 859.367188 12.71875 C 871.433594 14.507812 883.445312 16.59375 895.410156 18.972656 C 907.375 21.351562 919.273438 24.023438 931.105469 26.988281 C 942.9375 29.949219 954.691406 33.203125 966.363281 36.746094 C 978.035156 40.285156 989.617188 44.109375 1001.101562 48.21875 C 1012.585938 52.328125 1023.964844 56.71875 1035.234375 61.386719 C 1046.503906 66.054688 1057.652344 70.996094 1068.679688 76.210938 C 1079.703125 81.425781 1090.597656 86.910156 1101.355469 92.660156 C 1112.113281 98.410156 1122.722656 104.421875 1133.1875 110.691406 C 1143.648438 116.964844 1153.953125 123.488281 1164.09375 130.265625 C 1174.238281 137.042969 1184.207031 144.0625 1194.003906 151.328125 C 1203.800781 158.597656 1213.414062 166.097656 1222.84375 173.835938 C 1232.273438 181.574219 1241.507812 189.539062 1250.546875 197.730469 C 1259.585938 205.925781 1268.417969 214.332031 1277.042969 222.957031 C 1285.667969 231.582031 1294.074219 240.414062 1302.269531 249.453125 C 1310.460938 258.492188 1318.425781 267.726562 1326.164062 277.15625 C 1333.902344 286.585938 1341.402344 296.199219 1348.671875 305.996094 C 1355.9375 315.792969 1362.957031 325.761719 1369.734375 335.90625 C 1376.511719 346.046875 1383.035156 356.351562 1389.308594 366.8125 C 1395.578125 377.277344 1401.589844 387.886719 1407.339844 398.644531 C 1413.089844 409.402344 1418.574219 420.292969 1423.789062 431.320312 C 1429.003906 442.347656 1433.945312 453.496094 1438.613281 464.765625 C 1443.28125 476.035156 1447.671875 487.414062 1451.78125 498.898438 C 1455.890625 510.382812 1459.714844 521.964844 1463.253906 533.636719 C 1466.796875 545.308594 1470.046875 557.0625 1473.011719 568.894531 C 1475.976562 580.726562 1478.648438 592.625 1481.027344 604.589844 C 1483.40625 616.554688 1485.492188 628.566406 1487.28125 640.632812 C 1489.074219 652.699219 1490.566406 664.804688 1491.761719 676.941406 C 1492.957031 689.082031 1493.855469 701.242188 1494.453125 713.425781 C 1495.050781 725.609375 1495.351562 737.800781 1495.351562 750 Z M 1495.351562 750 " fill-opacity="1" fill-rule="nonzero"/><path fill="#ffffff" d="M 940.351562 798.449219 L 1116 799.050781 C 1121.550781 799.050781 1126.800781 796.050781 1129.5 790.949219 C 1132.199219 786 1131.75 779.851562 1128.449219 775.199219 L 1052.101562 664.800781 C 1049.398438 660.75 1044.601562 658.199219 1039.648438 658.199219 L 940.5 658.199219 C 932.101562 658.199219 925.351562 665.101562 925.351562 673.351562 L 925.351562 783 C 925.351562 791.398438 932.101562 798.148438 940.5 798.148438 Z M 955.648438 688.648438 L 1031.699219 688.648438 L 1087.050781 768.601562 L 955.648438 768.148438 Z M 955.648438 688.648438 " fill-opacity="1" fill-rule="nonzero"/><path fill="#ffffff" d="M 464.25 968.699219 C 435.75 968.699219 412.5 991.949219 412.5 1020.449219 C 412.5 1048.949219 435.75 1072.199219 464.25 1072.199219 C 492.75 1072.199219 516 1048.949219 516 1020.449219 C 516 991.949219 492.75 968.699219 464.25 968.699219 Z M 464.25 1041.75 C 452.550781 1041.75 442.949219 1032.148438 442.949219 1020.449219 C 442.949219 1008.75 452.550781 999.148438 464.25 999.148438 C 475.949219 999.148438 485.550781 1008.75 485.550781 1020.449219 C 485.550781 1032.148438 475.949219 1041.75 464.25 1041.75 Z M 464.25 1041.75 " fill-opacity="1" fill-rule="nonzero"/><path fill="#ffffff" d="M 635.398438 968.699219 C 607.050781 968.699219 583.800781 991.949219 583.800781 1020.449219 C 583.800781 1048.949219 607.050781 1072.199219 635.398438 1072.199219 C 663.75 1072.199219 687.148438 1048.949219 687.148438 1020.449219 C 687.148438 991.949219 663.898438 968.699219 635.398438 968.699219 Z M 635.398438 1041.75 C 623.699219 1041.75 614.101562 1032.148438 614.101562 1020.449219 C 614.101562 1008.75 623.550781 999.148438 635.398438 999.148438 C 647.25 999.148438 656.699219 1008.75 656.699219 1020.449219 C 656.699219 1032.148438 647.101562 1041.75 635.398438 1041.75 Z M 635.398438 1041.75 " fill-opacity="1" fill-rule="nonzero"/><path fill="#ffffff" d="M 1212.601562 968.699219 C 1184.101562 968.699219 1160.851562 991.949219 1160.851562 1020.449219 C 1160.851562 1048.949219 1184.101562 1072.199219 1212.601562 1072.199219 C 1241.101562 1072.199219 1264.199219 1048.949219 1264.199219 1020.449219 C 1264.199219 991.949219 1241.101562 968.699219 1212.601562 968.699219 Z M 1212.601562 1041.75 C 1200.898438 1041.75 1191.300781 1032.148438 1191.300781 1020.449219 C 1191.300781 1008.75 1200.898438 999.148438 1212.601562 999.148438 C 1224.300781 999.148438 1233.898438 1008.75 1233.898438 1020.449219 C 1233.898438 1032.148438 1224.449219 1041.75 1212.601562 1041.75 Z M 1212.601562 1041.75 " fill-opacity="1" fill-rule="nonzero"/><path fill="#ffffff" d="M 725.851562 859.949219 L 329.550781 859.949219 C 327.449219 859.949219 325.5 860.398438 323.699219 861.148438 C 317.25 862.949219 312.449219 868.800781 312.449219 875.699219 L 312.449219 1017.75 C 312.449219 1021.949219 314.25 1025.550781 316.800781 1028.398438 C 319.5 1032.75 324.300781 1035.601562 329.550781 1035.601562 L 364.648438 1035.601562 C 372 1084.050781 413.851562 1121.25 464.25 1121.25 C 500.25 1121.25 532.050781 1102.050781 549.898438 1073.550781 C 567.601562 1102.050781 599.398438 1121.25 635.398438 1121.25 C 685.800781 1121.25 727.800781 1083.898438 735.148438 1035.601562 L 1113.148438 1035.601562 C 1120.5 1084.050781 1162.351562 1121.25 1212.75 1121.25 C 1263.148438 1121.25 1307.101562 1082.25 1312.949219 1032.148438 L 1341.75 1032.148438 C 1350.148438 1032.148438 1356.898438 1025.25 1356.898438 1017 L 1356.898438 905.398438 C 1356.898438 905.398438 1356.898438 904.800781 1356.898438 904.5 C 1352.25 831.898438 1302.898438 770.25 1234.351562 750.898438 C 1217.699219 746.25 1201.351562 743.699219 1185.449219 743.398438 L 1070.25 582.148438 C 1068.148438 579.300781 1065.148438 577.199219 1061.699219 576.300781 C 962.851562 550.800781 873.601562 533.550781 791.699219 518.851562 C 775.5 515.851562 758.851562 520.351562 746.398438 530.851562 C 733.800781 541.5 726.449219 556.949219 726.449219 573.449219 L 726.148438 859.949219 Z M 534.601562 1023 C 533.101562 1060.648438 502.199219 1090.800781 464.25 1090.800781 C 426.300781 1090.800781 393.601562 1059.300781 393.601562 1020.300781 C 393.601562 981.300781 425.25 949.800781 464.25 949.800781 C 503.25 949.800781 533.25 979.949219 534.601562 1017.601562 C 534.601562 1018.5 534.601562 1019.398438 534.601562 1020.300781 C 534.601562 1021.199219 534.601562 1022.101562 534.601562 1023 Z M 635.398438 1090.800781 C 597.449219 1090.800781 566.398438 1060.648438 565.050781 1023 C 565.050781 1022.101562 565.199219 1021.199219 565.199219 1020.300781 C 565.199219 1019.398438 565.199219 1018.5 565.050781 1017.601562 C 566.550781 979.949219 597.449219 949.800781 635.398438 949.800781 C 673.351562 949.800781 706.050781 981.300781 706.050781 1020.300781 C 706.050781 1059.300781 674.398438 1090.800781 635.398438 1090.800781 Z M 1212.601562 1090.800781 C 1173.75 1090.800781 1142.101562 1059.300781 1142.101562 1020.300781 C 1142.101562 981.300781 1173.75 949.800781 1212.601562 949.800781 C 1251.449219 949.800781 1283.25 981.300781 1283.25 1020.300781 C 1283.25 1059.300781 1251.601562 1090.800781 1212.601562 1090.800781 Z M 756.601562 875.25 C 756.601562 874.199219 756.601562 873 756.148438 871.949219 L 756.601562 573.601562 C 756.601562 566.101562 759.898438 559.050781 765.601562 554.25 C 771.300781 549.601562 778.949219 547.5 786.148438 548.851562 C 865.949219 563.25 952.949219 579.898438 1048.648438 604.351562 L 1165.351562 767.550781 C 1169.101562 772.648438 1175.398438 774.75 1181.101562 773.550781 C 1181.550781 773.550781 1181.851562 773.699219 1182.449219 773.699219 C 1196.398438 773.699219 1211.101562 775.800781 1226.101562 780 C 1282.199219 795.898438 1322.550781 846.300781 1326.449219 905.699219 L 1326.449219 1001.699219 L 1311.898438 1001.699219 C 1303.050781 954.75 1262.101562 919.199219 1212.75 919.199219 C 1163.398438 919.199219 1120.5 956.550781 1113.148438 1004.851562 L 735.148438 1004.851562 C 727.800781 956.398438 685.949219 919.199219 635.398438 919.199219 C 599.398438 919.199219 567.601562 938.398438 549.898438 966.898438 C 532.050781 938.398438 500.398438 919.199219 464.25 919.199219 C 413.851562 919.199219 372 956.550781 364.648438 1004.851562 L 342.75 1004.851562 L 342.75 890.101562 L 741.449219 890.101562 C 749.851562 890.101562 756.601562 883.199219 756.601562 874.949219 Z M 756.601562 875.25 " fill-opacity="1" fill-rule="nonzero"/><path fill="#ffffff" d="M 673.050781 542.550781 C 673.050781 536.851562 669.75 531.300781 664.199219 528.75 L 506.101562 454.949219 C 503.699219 453.898438 501 453.449219 498.449219 453.75 C 495.601562 453.300781 492.601562 453.75 489.898438 455.101562 L 323.851562 534.449219 C 317.851562 537.300781 314.550781 543.75 315.449219 550.050781 L 314.550781 723.898438 C 314.550781 731.851562 320.851562 738.449219 328.800781 739.050781 L 488.398438 811.5 C 490.5 812.398438 492.601562 812.851562 494.699219 812.851562 C 495.300781 812.851562 495.75 812.851562 496.351562 812.699219 C 496.800781 812.699219 497.398438 813 498 813 C 500.101562 813 502.351562 812.550781 504.300781 811.5 L 660.449219 740.699219 C 667.648438 739.5 673.050781 733.351562 673.050781 725.851562 L 673.949219 551.398438 C 673.949219 549.300781 673.5 547.351562 672.898438 545.550781 C 672.898438 544.800781 672.898438 544.050781 672.898438 543.148438 L 672.898438 542.699219 Z M 498.148438 484.800781 L 534 501.601562 L 407.101562 563.398438 L 367.5 547.351562 Z M 478.5 773.550781 L 345.148438 713.101562 L 345.898438 571.351562 L 395.101562 591.148438 L 395.101562 637.351562 C 394.949219 645.75 401.699219 652.5 409.949219 652.648438 C 418.199219 652.648438 425.101562 645.75 425.101562 637.5 L 425.101562 603.449219 C 425.101562 603.449219 479.25 625.199219 479.25 625.199219 Z M 497.101562 599.699219 L 445.050781 578.699219 L 569.398438 518.101562 L 622.5 542.851562 L 496.949219 599.699219 Z M 642.75 715.199219 L 508.800781 776.101562 L 509.550781 627.300781 L 643.648438 566.550781 L 642.898438 715.199219 Z M 642.75 715.199219 " fill-opacity="1" fill-rule="nonzero"/><path fill="#ffffff" d="M 197.398438 804.148438 L 226.050781 837.148438 L 298.648438 842.398438 L 303.898438 769.800781 L 275.398438 736.800781 L 271.800781 785.699219 C 218.550781 709.351562 206.851562 628.5 237.449219 544.949219 C 240.300781 537.148438 236.25 528.300781 228.449219 525.449219 C 220.648438 522.601562 211.800781 526.648438 208.949219 534.449219 C 174 629.851562 187.949219 721.648438 250.199219 807.898438 L 197.398438 804 Z M 197.398438 804.148438 " fill-opacity="1" fill-rule="nonzero"/><path fill="#ffffff" d="M 528.148438 395.851562 L 492.75 362.101562 C 585.601562 369.601562 655.351562 411.898438 700.351562 488.699219 C 703.199219 493.5 708.300781 496.199219 713.398438 496.199219 C 715.949219 496.199219 718.648438 495.601562 721.050781 494.101562 C 728.25 489.898438 730.648438 480.601562 726.449219 473.25 C 675 385.648438 595.199219 337.949219 489.148438 331.351562 L 525.75 293.101562 L 482.101562 294.148438 L 431.851562 346.800781 L 484.5 397.050781 L 528.148438 396 Z M 528.148438 395.851562 " fill-opacity="1" fill-rule="nonzero"/><path fill="#ffffff" d="M 308.699219 480.601562 L 308.851562 480.601562 C 317.550781 480.601562 325.648438 476.25 330.449219 468.898438 C 355.199219 432.449219 384.75 383.101562 384.449219 355.351562 C 384.449219 334.800781 376.199219 315.601562 361.5 301.199219 C 346.949219 286.800781 327.75 279.148438 307.050781 279.148438 C 264.75 279.449219 230.550781 314.25 230.851562 356.550781 C 231.148438 384.300781 261.449219 433.050781 286.800781 469.199219 C 291.75 476.25 299.851562 480.449219 308.398438 480.449219 Z M 307.5 309.601562 L 307.800781 309.601562 C 320.101562 309.601562 331.648438 314.398438 340.351562 322.949219 C 349.199219 331.648438 354 343.351562 354.148438 355.648438 C 354.148438 367.050781 342.148438 396.75 308.550781 447.148438 C 274.050781 397.351562 261.601562 367.648438 261.449219 356.398438 C 261.300781 330.898438 281.851562 309.75 307.5 309.601562 Z M 307.5 309.601562 " fill-opacity="1" fill-rule="nonzero"/><path fill="#ffffff" d="M 328.800781 355.199219 C 327.300781 346.199219 319.949219 339 310.949219 337.648438 C 295.800781 335.398438 283.199219 349.351562 287.398438 364.648438 C 289.351562 371.699219 295.050781 377.398438 302.25 379.199219 C 317.550781 383.101562 331.351562 370.351562 328.949219 355.199219 Z M 328.800781 355.199219 " fill-opacity="1" fill-rule="nonzero"/></svg>