<?xml version="1.0" encoding="UTF-8"?> <svg xmlns="http://www.w3.org/2000/svg" id="Layer_1" viewBox="0 0 120 100"><defs><style>.cls-1{fill:#b00838;stroke-width:0px;}</style></defs><path class="cls-1" d="M117.69,33.52h-13.98v-2.96c0-.73-.59-1.33-1.33-1.33h-12.26v-2.98c0-.73-.59-1.33-1.33-1.33H2.26c-.73,0-1.33.59-1.33,1.33v29.32c0,.73.59,1.33,1.33,1.33h2.7c.24,4.47,3.93,8.03,8.46,8.03,2.06,0,3.94-.75,5.41-1.97.97,3.61,4.26,6.28,8.17,6.28,1.52,0,2.94-.41,4.17-1.11.01.06.02.13.04.19.97,3.78,4.4,6.59,8.48,6.59,3.1,0,5.82-1.62,7.38-4.05,1.56,2.44,4.29,4.07,7.4,4.07,4.68,0,8.5-3.69,8.75-8.31h27.61s14.24,0,14.24,0v7.08c0,.37.14.72.41.97.25.26.6.4.96.4h0l3.65-.03c.76,0,1.36-.63,1.36-1.39,0-.75-.62-1.35-1.37-1.35h-.02l-2.26.02v-5.7h9.87c.36,0,.71-.13.97-.39.26-.26.4-.61.4-.97v-30.36c0-.76-.61-1.37-1.37-1.37ZM5.2,54.25h-1.62v-26.67h83.89v1.65H15.85c-.73,0-1.33.59-1.33,1.33v17.37c-.36-.05-.72-.08-1.09-.08-3.94,0-7.29,2.68-8.23,6.39ZM7.59,56.45c0-3.21,2.62-5.83,5.83-5.83.38,0,.74.05,1.1.12v2.89c-.34-.14-.71-.22-1.1-.22-1.69,0-3.05,1.37-3.05,3.05s1.36,3.05,3.05,3.05c.34,0,.66-.08.97-.18v2.89c-.32.05-.64.09-.97.09-3.22,0-5.83-2.62-5.83-5.83ZM18.79,58.55h-1.62v-26.67h83.89v1.63H28.15c-.76,0-1.37.61-1.37,1.37v17.28c-3.84.1-7.07,2.74-7.99,6.38ZM21.17,60.75c0-3.13,2.5-5.7,5.61-5.81v2.79c-1.58.12-2.82,1.42-2.82,3.02s1.22,2.87,2.77,3.01v2.81c-3.09-.15-5.56-2.69-5.56-5.82ZM45.72,66.38c-.04,1-.32,1.93-.8,2.75h0c-1.04,1.81-2.99,3.03-5.22,3.03-2.76,0-5.09-1.86-5.81-4.39-.15-.53-.23-1.07-.23-1.64,0-1.05.27-2.03.75-2.89h0c.64-1.17,1.65-2.1,2.88-2.64h0c.74-.32,1.55-.5,2.4-.5,1.39,0,2.66.47,3.68,1.26h0c1.04.8,1.81,1.94,2.15,3.25.12.41.18.84.2,1.28,0,.08-.02.16-.02.25,0,.08,0,.15.02.23ZM54.48,72.17c-3.2,0-5.81-2.5-6.01-5.64,0-.17.02-.34.02-.52,0-.15,0-.29,0-.44,0-.06,0-.12.02-.19,0,0,0,0,0,0,0-.16.04-.31.07-.46.21-1.03.69-1.98,1.37-2.74,1.1-1.26,2.72-2.07,4.53-2.07s3.43.8,4.53,2.07c.93,1.06,1.5,2.45,1.5,3.97,0,3.32-2.71,6.03-6.03,6.03ZM116.32,63.88h-22.74s-2.74,0-2.74,0h-27.85c-.15-.6-.36-1.17-.62-1.69-.51-1.06-1.22-1.99-2.08-2.75-1.54-1.36-3.58-2.18-5.8-2.18s-4.2.8-5.74,2.15c-.63.54-1.18,1.18-1.64,1.89-.33-.52-.7-.99-1.13-1.42-1.6-1.63-3.83-2.63-6.27-2.63-1.67,0-3.25.47-4.59,1.3-1.91,1.16-3.36,3.05-3.93,5.32h-1.67v-27.59h86.8v27.62Z"></path><path class="cls-1" d="M39.7,62.97c-.73,0-1.4.25-1.93.66-.74.57-1.22,1.48-1.22,2.49,0,.12,0,.25.03.37.18,1.57,1.5,2.79,3.13,2.79,1.34,0,2.49-.85,2.94-2.03.14-.35.21-.72.21-1.12,0-.74-.26-1.42-.68-1.95-.58-.74-1.48-1.2-2.48-1.2Z"></path><path class="cls-1" d="M54.48,62.97c-1.75,0-3.15,1.41-3.15,3.15s1.41,3.15,3.15,3.15,3.15-1.42,3.15-3.15-1.42-3.15-3.15-3.15Z"></path><polygon class="cls-1" points="43.64 53.25 44.47 53.25 44.47 41.15 43.64 41.15 43.63 41.15 42.8 41.15 42.8 53.25 43.63 53.25 43.64 53.25"></polygon><polygon class="cls-1" points="55.45 53.25 56.28 53.25 56.28 41.15 55.45 41.15 55.45 41.15 54.62 41.15 54.62 53.25 55.45 53.25 55.45 53.25"></polygon><polygon class="cls-1" points="67.27 58.5 68.1 58.5 68.1 41.15 67.27 41.15 67.26 41.15 66.43 41.15 66.43 58.5 67.26 58.5 67.27 58.5"></polygon><polygon class="cls-1" points="79.08 58.5 79.91 58.5 79.91 41.15 79.08 41.15 79.07 41.15 78.24 41.15 78.24 58.5 79.07 58.5 79.08 58.5"></polygon><polygon class="cls-1" points="102.71 58.5 103.53 58.5 103.53 41.15 102.71 41.15 102.7 41.15 101.88 41.15 101.88 58.5 102.7 58.5 102.71 58.5"></polygon><polygon class="cls-1" points="90.89 58.5 91.72 58.5 91.72 41.15 90.89 41.15 90.88 41.15 90.06 41.15 90.06 58.5 90.88 58.5 90.89 58.5"></polygon></svg> 