<svg xmlns="http://www.w3.org/2000/svg" xmlns:xlink="http://www.w3.org/1999/xlink" width="2000" zoomAndPan="magnify" viewBox="0 0 1500 1499.999933" height="2000" preserveAspectRatio="xMidYMid meet" version="1.0"><path fill="#fb452f" d="M 1470.601562 544.148438 L 1295.976562 544.148438 L 1295.976562 507.175781 C 1295.976562 498.058594 1288.609375 490.5625 1279.363281 490.5625 L 1126.226562 490.5625 L 1126.226562 453.339844 C 1126.226562 444.222656 1118.855469 436.726562 1109.613281 436.726562 L 28.777344 436.726562 C 19.65625 436.726562 12.164062 444.097656 12.164062 453.339844 L 12.164062 819.574219 C 12.164062 828.691406 19.53125 836.1875 28.777344 836.1875 L 62.5 836.1875 C 65.5 892.019531 111.589844 936.488281 168.175781 936.488281 C 193.90625 936.488281 217.386719 927.121094 235.75 911.882812 C 247.867188 956.972656 288.960938 990.324219 337.800781 990.324219 C 356.785156 990.324219 374.523438 985.203125 389.886719 976.460938 C 390.011719 977.207031 390.136719 978.082031 390.386719 978.832031 C 402.503906 1026.046875 445.347656 1061.148438 496.308594 1061.148438 C 535.03125 1061.148438 569.007812 1040.914062 588.492188 1010.558594 C 607.980469 1041.039062 642.078125 1061.398438 680.925781 1061.398438 C 739.382812 1061.398438 787.097656 1015.304688 790.222656 957.597656 L 1135.09375 957.597656 C 1135.09375 957.597656 1312.964844 957.597656 1312.964844 957.597656 L 1312.964844 1046.035156 C 1312.964844 1050.65625 1314.714844 1055.027344 1318.085938 1058.148438 C 1321.207031 1061.398438 1325.582031 1063.144531 1330.078125 1063.144531 L 1375.667969 1062.773438 C 1385.164062 1062.773438 1392.65625 1054.902344 1392.65625 1045.410156 C 1392.65625 1036.042969 1384.914062 1028.546875 1375.542969 1028.546875 L 1375.292969 1028.546875 L 1347.066406 1028.796875 L 1347.066406 957.597656 L 1470.351562 957.597656 C 1474.847656 957.597656 1479.21875 955.972656 1482.464844 952.726562 C 1485.714844 949.480469 1487.460938 945.105469 1487.460938 940.609375 L 1487.460938 561.386719 C 1487.460938 551.894531 1479.84375 544.273438 1470.351562 544.273438 Z M 65.5 803.085938 L 45.261719 803.085938 L 45.261719 469.953125 L 1093.125 469.953125 L 1093.125 490.5625 L 198.527344 490.5625 C 189.410156 490.5625 181.914062 497.933594 181.914062 507.175781 L 181.914062 724.144531 C 177.417969 723.519531 172.921875 723.144531 168.300781 723.144531 C 119.085938 723.144531 77.242188 756.621094 65.5 802.960938 Z M 95.351562 830.566406 C 95.351562 790.46875 128.078125 757.742188 168.175781 757.742188 C 172.921875 757.742188 177.417969 758.367188 181.914062 759.242188 L 181.914062 795.339844 C 177.667969 793.59375 173.046875 792.59375 168.175781 792.59375 C 147.0625 792.59375 130.078125 809.707031 130.078125 830.691406 C 130.078125 851.675781 147.0625 868.789062 168.175781 868.789062 C 172.421875 868.789062 176.417969 867.789062 180.289062 866.539062 L 180.289062 902.636719 C 176.292969 903.261719 172.296875 903.761719 168.175781 903.761719 C 127.953125 903.761719 95.351562 871.035156 95.351562 830.941406 Z M 235.25 856.796875 L 215.015625 856.796875 L 215.015625 523.664062 L 1262.875 523.664062 L 1262.875 544.023438 L 352.164062 544.023438 C 342.671875 544.023438 335.050781 551.644531 335.050781 561.136719 L 335.050781 776.980469 C 287.085938 778.230469 246.742188 811.203125 235.25 856.671875 Z M 264.976562 884.277344 C 264.976562 845.179688 296.207031 813.078125 335.050781 811.703125 L 335.050781 846.554688 C 315.316406 848.054688 299.828125 864.292969 299.828125 884.277344 C 299.828125 904.261719 315.066406 920.125 334.429688 921.875 L 334.429688 956.972656 C 295.832031 955.101562 264.976562 923.371094 264.976562 884.277344 Z M 571.628906 954.601562 C 571.128906 967.089844 567.632812 978.707031 561.636719 988.949219 C 548.648438 1011.558594 524.289062 1026.796875 496.433594 1026.796875 C 461.960938 1026.796875 432.855469 1003.566406 423.863281 971.960938 C 421.988281 965.34375 420.988281 958.597656 420.988281 951.476562 C 420.988281 938.363281 424.363281 926.121094 430.359375 915.378906 C 438.351562 900.765625 450.96875 889.148438 466.332031 882.402344 C 475.574219 878.40625 485.691406 876.15625 496.308594 876.15625 C 513.671875 876.15625 529.535156 882.027344 542.277344 891.894531 C 555.265625 901.886719 564.886719 916.128906 569.132812 932.492188 C 570.628906 937.613281 571.378906 942.984375 571.628906 948.480469 C 571.628906 949.480469 571.378906 950.476562 571.378906 951.601562 C 571.378906 952.601562 571.378906 953.476562 571.628906 954.476562 Z M 681.050781 1026.921875 C 641.078125 1026.921875 608.476562 995.695312 605.980469 956.472656 C 605.980469 954.351562 606.230469 952.226562 606.230469 949.980469 C 606.230469 948.105469 606.230469 946.355469 606.230469 944.484375 C 606.230469 943.734375 606.230469 942.984375 606.480469 942.109375 C 606.480469 940.109375 606.980469 938.238281 607.355469 936.363281 C 609.976562 923.496094 615.972656 911.632812 624.464844 902.136719 C 638.207031 886.398438 658.441406 876.28125 681.050781 876.28125 C 703.660156 876.28125 723.894531 886.273438 737.632812 902.136719 C 749.25 915.378906 756.371094 932.742188 756.371094 951.726562 C 756.371094 993.195312 722.519531 1027.046875 681.050781 1027.046875 Z M 1453.488281 923.371094 L 1169.445312 923.371094 C 1169.445312 923.371094 1135.21875 923.371094 1135.21875 923.371094 L 787.347656 923.371094 C 785.472656 915.878906 782.851562 908.757812 779.601562 902.261719 C 773.234375 889.023438 764.363281 877.40625 753.621094 867.914062 C 734.386719 850.925781 708.90625 840.683594 681.175781 840.683594 C 653.445312 840.683594 628.714844 850.675781 609.476562 867.539062 C 601.609375 874.285156 594.738281 882.277344 588.992188 891.148438 C 584.871094 884.652344 580.25 878.78125 574.878906 873.410156 C 554.890625 853.050781 527.039062 840.558594 496.558594 840.558594 C 475.699219 840.558594 455.964844 846.429688 439.226562 856.796875 C 415.367188 871.285156 397.257812 894.894531 390.136719 923.25 L 369.277344 923.25 L 369.277344 578.625 L 1453.488281 578.625 L 1453.488281 923.621094 Z M 1453.488281 923.371094 " fill-opacity="1" fill-rule="nonzero"/><path fill="#fb452f" d="M 496.433594 912.007812 C 487.316406 912.007812 478.949219 915.128906 472.328125 920.25 C 463.085938 927.371094 457.089844 938.738281 457.089844 951.351562 C 457.089844 952.851562 457.089844 954.476562 457.464844 955.972656 C 459.710938 975.585938 476.199219 990.824219 496.558594 990.824219 C 513.296875 990.824219 527.660156 980.207031 533.28125 965.46875 C 535.03125 961.09375 535.90625 956.472656 535.90625 951.476562 C 535.90625 942.234375 532.660156 933.742188 527.414062 927.121094 C 520.167969 917.878906 508.925781 912.132812 496.433594 912.132812 Z M 496.433594 912.007812 " fill-opacity="1" fill-rule="nonzero"/><path fill="#fb452f" d="M 681.050781 912.007812 C 659.191406 912.007812 641.703125 929.617188 641.703125 951.351562 C 641.703125 973.085938 659.316406 990.699219 681.050781 990.699219 C 702.785156 990.699219 720.398438 972.960938 720.398438 951.351562 C 720.398438 929.742188 702.660156 912.007812 681.050781 912.007812 Z M 681.050781 912.007812 " fill-opacity="1" fill-rule="nonzero"/><path fill="#fb452f" d="M 545.648438 790.59375 L 556.015625 790.59375 L 556.015625 639.453125 L 535.15625 639.453125 L 535.15625 790.59375 Z M 545.648438 790.59375 " fill-opacity="1" fill-rule="nonzero"/><path fill="#fb452f" d="M 693.167969 790.59375 L 703.535156 790.59375 L 703.535156 639.453125 L 682.800781 639.453125 L 682.800781 790.59375 Z M 693.167969 790.59375 " fill-opacity="1" fill-rule="nonzero"/><path fill="#fb452f" d="M 840.808594 856.171875 L 851.175781 856.171875 L 851.175781 639.453125 L 830.316406 639.453125 L 830.316406 856.171875 Z M 840.808594 856.171875 " fill-opacity="1" fill-rule="nonzero"/><path fill="#fb452f" d="M 988.328125 856.171875 L 998.695312 856.171875 L 998.695312 639.453125 L 977.832031 639.453125 L 977.832031 856.171875 Z M 988.328125 856.171875 " fill-opacity="1" fill-rule="nonzero"/><path fill="#fb452f" d="M 1283.484375 856.171875 L 1293.730469 856.171875 L 1293.730469 639.453125 L 1273.117188 639.453125 L 1273.117188 856.171875 Z M 1283.484375 856.171875 " fill-opacity="1" fill-rule="nonzero"/><path fill="#fb452f" d="M 1135.84375 856.171875 L 1146.210938 856.171875 L 1146.210938 639.453125 L 1125.476562 639.453125 L 1125.476562 856.171875 Z M 1135.84375 856.171875 " fill-opacity="1" fill-rule="nonzero"/></svg>