<svg xmlns="http://www.w3.org/2000/svg" xmlns:xlink="http://www.w3.org/1999/xlink" width="2000" zoomAndPan="magnify" viewBox="0 0 1500 1499.999933" height="2000" preserveAspectRatio="xMidYMid meet" version="1.0"><path fill="#fb452f" d="M 1495.351562 750 C 1495.351562 762.199219 1495.050781 774.390625 1494.453125 786.574219 C 1493.855469 798.757812 1492.957031 810.917969 1491.761719 823.058594 C 1490.566406 835.195312 1489.074219 847.300781 1487.28125 859.367188 C 1485.492188 871.433594 1483.40625 883.445312 1481.027344 895.410156 C 1478.648438 907.375 1475.976562 919.273438 1473.011719 931.105469 C 1470.050781 942.9375 1466.796875 954.691406 1463.253906 966.363281 C 1459.714844 978.035156 1455.890625 989.617188 1451.78125 1001.101562 C 1447.671875 1012.585938 1443.28125 1023.964844 1438.613281 1035.234375 C 1433.945312 1046.503906 1429.003906 1057.652344 1423.789062 1068.679688 C 1418.574219 1079.703125 1413.089844 1090.597656 1407.339844 1101.355469 C 1401.589844 1112.113281 1395.578125 1122.722656 1389.308594 1133.1875 C 1383.035156 1143.648438 1376.511719 1153.953125 1369.734375 1164.09375 C 1362.957031 1174.238281 1355.9375 1184.207031 1348.671875 1194.003906 C 1341.402344 1203.800781 1333.902344 1213.414062 1326.164062 1222.84375 C 1318.425781 1232.273438 1310.460938 1241.507812 1302.269531 1250.546875 C 1294.074219 1259.585938 1285.667969 1268.417969 1277.042969 1277.042969 C 1268.417969 1285.667969 1259.585938 1294.074219 1250.546875 1302.269531 C 1241.507812 1310.460938 1232.273438 1318.425781 1222.84375 1326.164062 C 1213.414062 1333.902344 1203.800781 1341.402344 1194.003906 1348.671875 C 1184.207031 1355.9375 1174.238281 1362.957031 1164.09375 1369.734375 C 1153.953125 1376.511719 1143.648438 1383.035156 1133.1875 1389.308594 C 1122.722656 1395.578125 1112.113281 1401.589844 1101.355469 1407.339844 C 1090.597656 1413.089844 1079.703125 1418.574219 1068.679688 1423.789062 C 1057.652344 1429.003906 1046.503906 1433.945312 1035.234375 1438.613281 C 1023.964844 1443.28125 1012.585938 1447.671875 1001.101562 1451.78125 C 989.617188 1455.890625 978.035156 1459.714844 966.363281 1463.253906 C 954.691406 1466.796875 942.9375 1470.046875 931.105469 1473.011719 C 919.273438 1475.976562 907.375 1478.648438 895.410156 1481.027344 C 883.445312 1483.40625 871.433594 1485.492188 859.367188 1487.28125 C 847.300781 1489.074219 835.195312 1490.566406 823.058594 1491.761719 C 810.917969 1492.957031 798.757812 1493.855469 786.574219 1494.453125 C 774.390625 1495.050781 762.199219 1495.351562 750 1495.351562 C 737.800781 1495.351562 725.609375 1495.050781 713.425781 1494.453125 C 701.242188 1493.855469 689.082031 1492.957031 676.941406 1491.761719 C 664.804688 1490.566406 652.699219 1489.074219 640.632812 1487.28125 C 628.566406 1485.492188 616.554688 1483.40625 604.589844 1481.027344 C 592.625 1478.648438 580.726562 1475.976562 568.894531 1473.011719 C 557.0625 1470.050781 545.308594 1466.796875 533.636719 1463.253906 C 521.964844 1459.714844 510.382812 1455.890625 498.898438 1451.78125 C 487.414062 1447.671875 476.035156 1443.28125 464.765625 1438.613281 C 453.496094 1433.945312 442.347656 1429.003906 431.320312 1423.789062 C 420.292969 1418.574219 409.402344 1413.089844 398.644531 1407.339844 C 387.886719 1401.589844 377.277344 1395.578125 366.8125 1389.308594 C 356.351562 1383.035156 346.046875 1376.511719 335.90625 1369.734375 C 325.761719 1362.957031 315.792969 1355.9375 305.996094 1348.671875 C 296.199219 1341.402344 286.585938 1333.902344 277.15625 1326.164062 C 267.726562 1318.425781 258.492188 1310.460938 249.453125 1302.269531 C 240.414062 1294.074219 231.582031 1285.667969 222.957031 1277.042969 C 214.332031 1268.417969 205.925781 1259.585938 197.730469 1250.546875 C 189.539062 1241.507812 181.574219 1232.273438 173.835938 1222.84375 C 166.097656 1213.414062 158.597656 1203.800781 151.328125 1194.003906 C 144.0625 1184.207031 137.042969 1174.238281 130.265625 1164.09375 C 123.488281 1153.953125 116.964844 1143.648438 110.691406 1133.1875 C 104.421875 1122.722656 98.410156 1112.113281 92.660156 1101.355469 C 86.910156 1090.597656 81.425781 1079.703125 76.210938 1068.679688 C 70.996094 1057.652344 66.054688 1046.503906 61.386719 1035.234375 C 56.71875 1023.964844 52.328125 1012.585938 48.21875 1001.101562 C 44.109375 989.617188 40.285156 978.035156 36.746094 966.363281 C 33.203125 954.691406 29.953125 942.9375 26.988281 931.105469 C 24.023438 919.273438 21.351562 907.375 18.972656 895.410156 C 16.59375 883.445312 14.507812 871.433594 12.71875 859.367188 C 10.925781 847.300781 9.433594 835.195312 8.238281 823.058594 C 7.042969 810.917969 6.144531 798.757812 5.546875 786.574219 C 4.949219 774.390625 4.648438 762.199219 4.648438 750 C 4.648438 737.800781 4.949219 725.609375 5.546875 713.425781 C 6.144531 701.242188 7.042969 689.082031 8.238281 676.941406 C 9.433594 664.804688 10.925781 652.699219 12.71875 640.632812 C 14.507812 628.566406 16.59375 616.554688 18.972656 604.589844 C 21.351562 592.625 24.023438 580.726562 26.988281 568.894531 C 29.953125 557.0625 33.203125 545.308594 36.746094 533.636719 C 40.285156 521.964844 44.109375 510.382812 48.21875 498.898438 C 52.328125 487.414062 56.71875 476.035156 61.386719 464.765625 C 66.054688 453.496094 70.996094 442.347656 76.210938 431.320312 C 81.425781 420.292969 86.910156 409.402344 92.660156 398.644531 C 98.410156 387.886719 104.421875 377.277344 110.691406 366.8125 C 116.964844 356.351562 123.488281 346.046875 130.265625 335.90625 C 137.042969 325.761719 144.0625 315.792969 151.328125 305.996094 C 158.597656 296.199219 166.097656 286.585938 173.835938 277.15625 C 181.574219 267.726562 189.539062 258.492188 197.730469 249.453125 C 205.925781 240.414062 214.332031 231.582031 222.957031 222.957031 C 231.582031 214.332031 240.414062 205.925781 249.453125 197.730469 C 258.492188 189.539062 267.726562 181.574219 277.15625 173.835938 C 286.585938 166.097656 296.199219 158.597656 305.996094 151.328125 C 315.792969 144.0625 325.761719 137.042969 335.90625 130.265625 C 346.046875 123.488281 356.351562 116.964844 366.8125 110.691406 C 377.277344 104.421875 387.886719 98.410156 398.644531 92.660156 C 409.402344 86.910156 420.292969 81.425781 431.320312 76.210938 C 442.347656 70.996094 453.496094 66.054688 464.765625 61.386719 C 476.035156 56.71875 487.414062 52.328125 498.898438 48.21875 C 510.382812 44.109375 521.964844 40.285156 533.636719 36.746094 C 545.308594 33.203125 557.0625 29.949219 568.894531 26.988281 C 580.726562 24.023438 592.625 21.351562 604.589844 18.972656 C 616.554688 16.59375 628.566406 14.507812 640.632812 12.71875 C 652.699219 10.925781 664.804688 9.433594 676.941406 8.238281 C 689.082031 7.042969 701.242188 6.144531 713.425781 5.546875 C 725.609375 4.949219 737.800781 4.648438 750 4.648438 C 762.199219 4.648438 774.390625 4.949219 786.574219 5.546875 C 798.757812 6.144531 810.917969 7.042969 823.058594 8.238281 C 835.195312 9.433594 847.300781 10.925781 859.367188 12.71875 C 871.433594 14.507812 883.445312 16.59375 895.410156 18.972656 C 907.375 21.351562 919.273438 24.023438 931.105469 26.988281 C 942.9375 29.949219 954.691406 33.203125 966.363281 36.746094 C 978.035156 40.285156 989.617188 44.109375 1001.101562 48.21875 C 1012.585938 52.328125 1023.964844 56.71875 1035.234375 61.386719 C 1046.503906 66.054688 1057.652344 70.996094 1068.679688 76.210938 C 1079.703125 81.425781 1090.597656 86.910156 1101.355469 92.660156 C 1112.113281 98.410156 1122.722656 104.421875 1133.1875 110.691406 C 1143.648438 116.964844 1153.953125 123.488281 1164.09375 130.265625 C 1174.238281 137.042969 1184.207031 144.0625 1194.003906 151.328125 C 1203.800781 158.597656 1213.414062 166.097656 1222.84375 173.835938 C 1232.273438 181.574219 1241.507812 189.539062 1250.546875 197.730469 C 1259.585938 205.925781 1268.417969 214.332031 1277.042969 222.957031 C 1285.667969 231.582031 1294.074219 240.414062 1302.269531 249.453125 C 1310.460938 258.492188 1318.425781 267.726562 1326.164062 277.15625 C 1333.902344 286.585938 1341.402344 296.199219 1348.671875 305.996094 C 1355.9375 315.792969 1362.957031 325.761719 1369.734375 335.90625 C 1376.511719 346.046875 1383.035156 356.351562 1389.308594 366.8125 C 1395.578125 377.277344 1401.589844 387.886719 1407.339844 398.644531 C 1413.089844 409.402344 1418.574219 420.292969 1423.789062 431.320312 C 1429.003906 442.347656 1433.945312 453.496094 1438.613281 464.765625 C 1443.28125 476.035156 1447.671875 487.414062 1451.78125 498.898438 C 1455.890625 510.382812 1459.714844 521.964844 1463.253906 533.636719 C 1466.796875 545.308594 1470.046875 557.0625 1473.011719 568.894531 C 1475.976562 580.726562 1478.648438 592.625 1481.027344 604.589844 C 1483.40625 616.554688 1485.492188 628.566406 1487.28125 640.632812 C 1489.074219 652.699219 1490.566406 664.804688 1491.761719 676.941406 C 1492.957031 689.082031 1493.855469 701.242188 1494.453125 713.425781 C 1495.050781 725.609375 1495.351562 737.800781 1495.351562 750 Z M 1495.351562 750 " fill-opacity="1" fill-rule="nonzero"/><path fill="#ffffff" d="M 1104 619.949219 C 1101.148438 615.75 1096.199219 613.199219 1091.101562 613.199219 L 988.050781 613.199219 C 979.351562 613.199219 972.300781 620.25 972.300781 628.949219 L 972.300781 742.949219 C 972.300781 751.648438 979.351562 758.699219 988.050781 758.699219 L 1170.601562 759.300781 C 1176.449219 759.300781 1181.851562 756.148438 1184.550781 750.898438 C 1187.25 745.648438 1186.949219 739.5 1183.5 734.550781 L 1104.148438 619.800781 Z M 1003.800781 727.199219 L 1003.800781 644.550781 L 1082.851562 644.550781 L 1140.449219 727.648438 L 1003.800781 727.050781 Z M 1003.800781 727.199219 " fill-opacity="1" fill-rule="nonzero"/><path fill="#ffffff" d="M 493.199219 935.550781 C 463.648438 935.550781 439.5 959.699219 439.5 989.25 C 439.5 1018.800781 463.648438 1042.949219 493.199219 1042.949219 C 522.75 1042.949219 546.898438 1018.800781 546.898438 989.25 C 546.898438 959.699219 522.75 935.550781 493.199219 935.550781 Z M 493.199219 1011.449219 C 481.050781 1011.449219 471 1001.398438 471 989.25 C 471 977.101562 481.050781 967.050781 493.199219 967.050781 C 505.351562 967.050781 515.25 977.101562 515.25 989.25 C 515.25 1001.398438 505.351562 1011.449219 493.199219 1011.449219 Z M 493.199219 1011.449219 " fill-opacity="1" fill-rule="nonzero"/><path fill="#ffffff" d="M 670.949219 935.550781 C 641.398438 935.550781 617.398438 959.699219 617.398438 989.25 C 617.398438 1018.800781 641.398438 1042.949219 670.949219 1042.949219 C 700.5 1042.949219 724.648438 1018.800781 724.648438 989.25 C 724.648438 959.699219 700.5 935.550781 670.949219 935.550781 Z M 670.949219 1011.449219 C 658.800781 1011.449219 648.898438 1001.398438 648.898438 989.25 C 648.898438 977.101562 658.800781 967.050781 670.949219 967.050781 C 683.101562 967.050781 693.148438 977.101562 693.148438 989.25 C 693.148438 1001.398438 683.101562 1011.449219 670.949219 1011.449219 Z M 670.949219 1011.449219 " fill-opacity="1" fill-rule="nonzero"/><path fill="#ffffff" d="M 1270.800781 935.550781 C 1241.25 935.550781 1217.101562 959.699219 1217.101562 989.25 C 1217.101562 1018.800781 1241.25 1042.949219 1270.800781 1042.949219 C 1300.351562 1042.949219 1324.351562 1018.800781 1324.351562 989.25 C 1324.351562 959.699219 1300.199219 935.550781 1270.800781 935.550781 Z M 1270.800781 1011.449219 C 1258.5 1011.449219 1248.601562 1001.398438 1248.601562 989.25 C 1248.601562 977.101562 1258.5 967.050781 1270.800781 967.050781 C 1283.101562 967.050781 1292.851562 977.101562 1292.851562 989.25 C 1292.851562 1001.398438 1282.949219 1011.449219 1270.800781 1011.449219 Z M 1270.800781 1011.449219 " fill-opacity="1" fill-rule="nonzero"/><path fill="#ffffff" d="M 1293.300781 709.351562 C 1276.050781 704.398438 1258.949219 701.851562 1242.449219 701.550781 L 1122.75 534 C 1120.648438 531 1117.5 528.75 1113.898438 528 C 1011.300781 501.449219 918.449219 483.601562 833.398438 468.300781 C 816.449219 465.148438 799.351562 469.800781 786.148438 480.75 C 773.101562 491.851562 765.449219 507.898438 765.449219 525 L 765.148438 822.601562 L 353.398438 822.601562 C 351.300781 822.601562 349.199219 823.199219 347.25 823.800781 C 340.5 825.601562 335.550781 831.75 335.550781 838.949219 L 335.550781 986.550781 C 335.550781 990.898438 337.351562 994.648438 340.050781 997.648438 C 342.75 1002.148438 347.851562 1005.148438 353.25 1005.148438 L 389.699219 1005.148438 C 397.351562 1055.398438 440.699219 1094.25 493.199219 1094.25 C 530.699219 1094.25 563.550781 1074.449219 582.148438 1044.75 C 600.601562 1074.449219 633.449219 1094.25 670.949219 1094.25 C 723.449219 1094.25 766.949219 1055.550781 774.601562 1005.148438 L 1167.300781 1005.148438 C 1174.949219 1055.398438 1218.300781 1094.25 1270.800781 1094.25 C 1323.300781 1094.25 1368.75 1053.75 1374.898438 1001.699219 L 1404.898438 1001.699219 C 1413.601562 1001.699219 1420.648438 994.648438 1420.648438 985.949219 L 1420.648438 868.949219 C 1415.699219 793.648438 1364.550781 729.449219 1293.449219 709.351562 Z M 566.398438 992.25 C 564.898438 1031.25 532.800781 1062.75 493.199219 1062.75 C 453.601562 1062.75 419.851562 1029.898438 419.851562 989.398438 C 419.851562 948.898438 452.699219 916.199219 493.199219 916.199219 C 533.699219 916.199219 564.898438 947.550781 566.398438 986.699219 C 566.398438 987.601562 566.398438 988.5 566.398438 989.398438 C 566.398438 990.300781 566.398438 991.351562 566.398438 992.25 Z M 670.949219 1062.601562 C 631.5 1062.601562 599.25 1031.25 597.75 991.949219 C 597.75 991.050781 597.898438 990.148438 597.898438 989.25 C 597.898438 988.351562 597.75 987.300781 597.75 986.550781 C 599.25 947.398438 631.5 916.050781 670.949219 916.050781 C 710.398438 916.050781 744.300781 948.898438 744.300781 989.25 C 744.300781 1029.601562 711.449219 1062.601562 670.949219 1062.601562 Z M 1270.800781 1062.601562 C 1230.449219 1062.601562 1197.601562 1029.75 1197.601562 989.25 C 1197.601562 948.75 1230.449219 916.050781 1270.800781 916.050781 C 1311.148438 916.050781 1344.148438 948.898438 1344.148438 989.25 C 1344.148438 1029.601562 1311.300781 1062.601562 1270.800781 1062.601562 Z M 1389 970.050781 L 1373.699219 970.050781 C 1364.699219 921.300781 1321.949219 884.398438 1270.800781 884.398438 C 1219.648438 884.398438 1174.949219 923.101562 1167.300781 973.5 L 774.601562 973.5 C 766.949219 923.25 723.449219 884.398438 670.949219 884.398438 C 633.449219 884.398438 600.601562 904.351562 582.148438 933.898438 C 563.550781 904.351562 530.699219 884.398438 493.199219 884.398438 C 440.699219 884.398438 397.351562 923.101562 389.699219 973.5 L 366.898438 973.5 L 366.898438 854.25 L 781.199219 854.25 C 789.898438 854.25 796.949219 847.199219 796.949219 838.5 C 796.949219 837.300781 796.949219 836.101562 796.5 835.050781 L 796.800781 525 C 796.800781 517.199219 800.25 510 806.25 504.898438 C 812.25 499.949219 820.050781 497.851562 827.550781 499.199219 C 910.5 514.199219 1000.800781 531.449219 1100.398438 556.949219 L 1221.601562 726.601562 C 1225.351562 731.851562 1231.949219 734.101562 1237.949219 732.75 C 1238.398438 732.75 1238.851562 732.898438 1239.300781 732.898438 C 1253.851562 732.898438 1269.148438 735.148438 1284.601562 739.5 C 1342.800781 755.851562 1384.800781 808.351562 1389 870.148438 Z M 1389 970.050781 " fill-opacity="1" fill-rule="nonzero"/><path fill="#ffffff" d="M 723.898438 761.101562 L 723.898438 512.398438 C 723.898438 502.351562 717.148438 494.101562 708.148438 491.25 L 475.351562 398.398438 C 468.148438 395.398438 459.75 399 456.75 406.351562 C 453.898438 413.699219 457.351562 421.949219 464.699219 424.949219 L 628.351562 490.199219 L 185.851562 490.199219 L 349.351562 424.949219 C 356.699219 421.949219 360.300781 413.699219 357.300781 406.351562 C 354.449219 399 346.050781 395.398438 338.699219 398.398438 L 103.949219 492.148438 C 98.398438 494.25 95.101562 499.648438 94.949219 505.199219 C 94.199219 507.601562 93.75 509.851562 93.75 512.398438 L 93.75 761.101562 C 93.75 773.25 103.800781 783.300781 115.949219 783.300781 L 701.699219 783.300781 C 713.851562 783.300781 723.898438 773.25 723.898438 761.101562 Z M 196.5 735.601562 L 141.449219 735.601562 L 141.449219 537.898438 L 196.5 537.898438 Z M 292.648438 735.601562 L 236.550781 735.601562 L 236.550781 537.898438 L 292.648438 537.898438 Z M 388.5 735.601562 L 332.398438 735.601562 L 332.398438 537.898438 L 388.5 537.898438 Z M 484.648438 735.601562 L 428.550781 735.601562 L 428.550781 537.898438 L 484.648438 537.898438 Z M 580.648438 735.601562 L 524.550781 735.601562 L 524.550781 537.898438 L 580.648438 537.898438 Z M 676.050781 735.601562 L 620.398438 735.601562 L 620.398438 537.898438 L 676.050781 537.898438 Z M 676.050781 735.601562 " fill-opacity="1" fill-rule="nonzero"/><path fill="#ffffff" d="M 407.550781 392.25 C 398.550781 392.25 391.199219 384.898438 391.199219 375.898438 C 391.199219 367.949219 384.75 361.648438 376.949219 361.648438 C 369.148438 361.648438 362.699219 368.101562 362.699219 375.898438 C 362.699219 399.601562 381.148438 419.101562 404.550781 420.75 C 405.601562 421.050781 406.648438 421.199219 407.851562 421.199219 C 432.601562 421.199219 452.851562 401.101562 452.851562 376.199219 C 452.851562 356.25 439.800781 339.300781 421.648438 333.449219 L 421.648438 315.148438 C 421.648438 307.199219 415.199219 300.898438 407.398438 300.898438 C 399.601562 300.898438 393.148438 307.351562 393.148438 315.148438 L 393.148438 344.699219 C 393.148438 346.949219 393.75 349.199219 394.648438 351.148438 C 396.75 356.25 401.851562 360 407.851562 360 C 416.699219 360 423.898438 367.050781 424.199219 375.75 C 424.199219 375.75 424.199219 376.050781 424.199219 376.199219 C 424.199219 385.199219 416.851562 392.550781 407.851562 392.550781 Z M 407.550781 392.25 " fill-opacity="1" fill-rule="nonzero"/></svg>