<?xml version="1.0" encoding="UTF-8"?> <svg xmlns="http://www.w3.org/2000/svg" id="Layer_1" viewBox="0 0 100 100"><defs><style>.cls-1{fill:#b10838;}.cls-1,.cls-2{stroke-width:0px;}.cls-2{fill:#fff;}</style></defs><circle class="cls-1" cx="50" cy="50" r="49.69"></circle><path class="cls-2" d="M10.94,67.15h2.75c.58,3.8,3.85,6.72,7.81,6.72,2.83,0,5.32-1.51,6.71-3.74,1.4,2.23,3.88,3.74,6.71,3.74,3.96,0,7.23-2.92,7.81-6.72h29.64c.58,3.8,3.85,6.72,7.81,6.72s7.39-3.06,7.85-6.98h2.26c.66,0,1.19-.54,1.19-1.19v-8.82c-.37-5.69-4.23-10.52-9.61-12.04-1.3-.37-2.59-.56-3.83-.58l-9.03-12.64c-.17-.22-.4-.39-.67-.46-7.75-2-14.75-3.35-21.16-4.5-1.27-.23-2.57.11-3.56.94-.99.83-1.56,2.05-1.56,3.34l-.02,22.45H10.94c-.17,0-.33.04-.46.1-.51.14-.88.6-.88,1.15v11.13c0,.32.13.62.34.83.21.34.58.56,1,.56ZM27.02,66.17c-.11,2.95-2.55,5.32-5.53,5.32s-5.53-2.47-5.53-5.53,2.48-5.53,5.53-5.53,5.41,2.37,5.53,5.32c0,.07-.02.14-.02.22s0,.14.02.21ZM34.92,71.48c-2.98,0-5.41-2.36-5.52-5.32,0-.06,0-.14,0-.21s0-.14,0-.22c.11-2.95,2.54-5.32,5.52-5.32s5.53,2.48,5.53,5.53-2.47,5.53-5.53,5.53ZM80.17,71.48c-3.05,0-5.53-2.47-5.53-5.53s2.48-5.53,5.53-5.53,5.53,2.48,5.53,5.53-2.47,5.53-5.53,5.53ZM11.98,55.77h31.25c.66,0,1.19-.53,1.19-1.19,0-.09-.02-.18-.03-.26l.02-23.39c0-.58.26-1.14.71-1.51.45-.38,1.03-.53,1.61-.42,6.25,1.13,13.07,2.43,20.57,4.36l9.15,12.8c.29.4.78.57,1.23.46.03,0,.06.02.1.02,1.1,0,2.25.16,3.43.5,4.4,1.23,7.55,5.2,7.87,9.86v7.53h-1.15c-.68-3.68-3.91-6.46-7.77-6.46s-7.23,2.92-7.81,6.72h-29.64c-.58-3.8-3.85-6.72-7.81-6.72-2.83,0-5.31,1.5-6.71,3.74-1.39-2.24-3.88-3.74-6.71-3.74-3.96,0-7.23,2.92-7.81,6.72h-1.71v-9Z"></path><path class="cls-2" d="M58.83,48.57l13.77.05h0c.44,0,.85-.24,1.05-.63.21-.39.18-.86-.07-1.23l-5.99-8.66c-.22-.32-.59-.51-.98-.51h-7.78c-.66,0-1.19.53-1.19,1.19v8.61c0,.66.53,1.19,1.19,1.19ZM60.02,39.96h5.97l4.33,6.27-10.3-.04v-6.23Z"></path><path class="cls-2" d="M21.5,61.91c-2.23,0-4.04,1.82-4.04,4.05s1.82,4.05,4.04,4.05,4.05-1.82,4.05-4.05-1.82-4.05-4.05-4.05ZM21.5,67.63c-.92,0-1.67-.75-1.67-1.67s.74-1.67,1.67-1.67,1.67.75,1.67,1.67-.75,1.67-1.67,1.67Z"></path><path class="cls-2" d="M34.92,61.91c-2.23,0-4.05,1.82-4.05,4.05s1.82,4.05,4.05,4.05,4.05-1.82,4.05-4.05-1.82-4.05-4.05-4.05ZM34.92,67.63c-.92,0-1.67-.75-1.67-1.67s.75-1.67,1.67-1.67,1.67.75,1.67,1.67-.75,1.67-1.67,1.67Z"></path><path class="cls-2" d="M80.16,61.91c-2.23,0-4.05,1.82-4.05,4.05s1.82,4.05,4.05,4.05,4.05-1.82,4.05-4.05-1.82-4.05-4.05-4.05ZM80.16,67.63c-.92,0-1.67-.75-1.67-1.67s.74-1.67,1.67-1.67,1.67.75,1.67,1.67-.75,1.67-1.67,1.67Z"></path><path class="cls-2" d="M30.91,18.3c-1.09-1.09-2.53-1.69-4.07-1.69-3.17,0-5.76,2.59-5.76,5.76v15.73c-1.22,1.39-1.9,3.15-1.9,5.03,0,4.21,3.44,7.65,7.66,7.65s7.66-3.44,7.66-7.65c0-1.87-.68-3.64-1.91-5.04v-15.72c0-1.54-.59-2.98-1.68-4.07ZM26.85,48.42c-2.93,0-5.31-2.38-5.31-5.3,0-1.43.55-2.76,1.56-3.76.25-.25.36-.58.34-.9h0c0-.08,0-.17,0-.25v-15.84c0-1.88,1.53-3.41,3.41-3.41.91,0,1.77.35,2.41,1,.65.64,1,1.5,1,2.41v1.66h-2.34c-.22,0-.42.09-.56.23-.14.14-.23.34-.23.56,0,.44.35.8.79.8h2.34v2.03h-.92c-.22,0-.42.1-.56.24s-.23.34-.23.56c0,.44.35.79.79.79h.92v2.04h-2.34c-.22,0-.42.09-.56.23s-.23.34-.23.56c0,.44.35.8.79.8h2.34v5.33c0,.09,0,.18,0,.26v.03s0,.08,0,.12c0,.04,0,.07,0,.11,0,.03.02.06.03.1,0,.04.02.07.03.11,0,.03.02.06.04.09.02.04.04.08.06.11.02.03.03.06.06.08.02.03.06.07.09.1,0,0,0,.02.02.02,1.01,1.01,1.56,2.35,1.56,3.77,0,2.92-2.38,5.3-5.31,5.3Z"></path><path class="cls-2" d="M28.52,40.66v-4.24c0-.46-.19-.88-.49-1.18-.3-.3-.72-.49-1.18-.49-.92,0-1.67.75-1.67,1.67v4.22c-.77.53-1.28,1.42-1.28,2.43,0,1.62,1.32,2.94,2.94,2.94s2.94-1.32,2.94-2.94c0-1-.5-1.88-1.26-2.41Z"></path></svg> 