<svg xmlns="http://www.w3.org/2000/svg" xmlns:xlink="http://www.w3.org/1999/xlink" width="2000" zoomAndPan="magnify" viewBox="0 0 1500 1499.999933" height="2000" preserveAspectRatio="xMidYMid meet" version="1.0"><path fill="#fb452f" d="M 1495.351562 750 C 1495.351562 762.199219 1495.050781 774.390625 1494.453125 786.574219 C 1493.855469 798.757812 1492.957031 810.917969 1491.761719 823.058594 C 1490.566406 835.195312 1489.074219 847.300781 1487.28125 859.367188 C 1485.492188 871.433594 1483.40625 883.445312 1481.027344 895.410156 C 1478.648438 907.375 1475.976562 919.273438 1473.011719 931.105469 C 1470.050781 942.9375 1466.796875 954.691406 1463.253906 966.363281 C 1459.714844 978.035156 1455.890625 989.617188 1451.78125 1001.101562 C 1447.671875 1012.585938 1443.28125 1023.964844 1438.613281 1035.234375 C 1433.945312 1046.503906 1429.003906 1057.652344 1423.789062 1068.679688 C 1418.574219 1079.703125 1413.089844 1090.597656 1407.339844 1101.355469 C 1401.589844 1112.113281 1395.578125 1122.722656 1389.308594 1133.1875 C 1383.035156 1143.648438 1376.511719 1153.953125 1369.734375 1164.09375 C 1362.957031 1174.238281 1355.9375 1184.207031 1348.671875 1194.003906 C 1341.402344 1203.800781 1333.902344 1213.414062 1326.164062 1222.84375 C 1318.425781 1232.273438 1310.460938 1241.507812 1302.269531 1250.546875 C 1294.074219 1259.585938 1285.667969 1268.417969 1277.042969 1277.042969 C 1268.417969 1285.667969 1259.585938 1294.074219 1250.546875 1302.269531 C 1241.507812 1310.460938 1232.273438 1318.425781 1222.84375 1326.164062 C 1213.414062 1333.902344 1203.800781 1341.402344 1194.003906 1348.671875 C 1184.207031 1355.9375 1174.238281 1362.957031 1164.09375 1369.734375 C 1153.953125 1376.511719 1143.648438 1383.035156 1133.1875 1389.308594 C 1122.722656 1395.578125 1112.113281 1401.589844 1101.355469 1407.339844 C 1090.597656 1413.089844 1079.703125 1418.574219 1068.679688 1423.789062 C 1057.652344 1429.003906 1046.503906 1433.945312 1035.234375 1438.613281 C 1023.964844 1443.28125 1012.585938 1447.671875 1001.101562 1451.78125 C 989.617188 1455.890625 978.035156 1459.714844 966.363281 1463.253906 C 954.691406 1466.796875 942.9375 1470.046875 931.105469 1473.011719 C 919.273438 1475.976562 907.375 1478.648438 895.410156 1481.027344 C 883.445312 1483.40625 871.433594 1485.492188 859.367188 1487.28125 C 847.300781 1489.074219 835.195312 1490.566406 823.058594 1491.761719 C 810.917969 1492.957031 798.757812 1493.855469 786.574219 1494.453125 C 774.390625 1495.050781 762.199219 1495.351562 750 1495.351562 C 737.800781 1495.351562 725.609375 1495.050781 713.425781 1494.453125 C 701.242188 1493.855469 689.082031 1492.957031 676.941406 1491.761719 C 664.804688 1490.566406 652.699219 1489.074219 640.632812 1487.28125 C 628.566406 1485.492188 616.554688 1483.40625 604.589844 1481.027344 C 592.625 1478.648438 580.726562 1475.976562 568.894531 1473.011719 C 557.0625 1470.050781 545.308594 1466.796875 533.636719 1463.253906 C 521.964844 1459.714844 510.382812 1455.890625 498.898438 1451.78125 C 487.414062 1447.671875 476.035156 1443.28125 464.765625 1438.613281 C 453.496094 1433.945312 442.347656 1429.003906 431.320312 1423.789062 C 420.292969 1418.574219 409.402344 1413.089844 398.644531 1407.339844 C 387.886719 1401.589844 377.277344 1395.578125 366.8125 1389.308594 C 356.351562 1383.035156 346.046875 1376.511719 335.90625 1369.734375 C 325.761719 1362.957031 315.792969 1355.9375 305.996094 1348.671875 C 296.199219 1341.402344 286.585938 1333.902344 277.15625 1326.164062 C 267.726562 1318.425781 258.492188 1310.460938 249.453125 1302.269531 C 240.414062 1294.074219 231.582031 1285.667969 222.957031 1277.042969 C 214.332031 1268.417969 205.925781 1259.585938 197.730469 1250.546875 C 189.539062 1241.507812 181.574219 1232.273438 173.835938 1222.84375 C 166.097656 1213.414062 158.597656 1203.800781 151.328125 1194.003906 C 144.0625 1184.207031 137.042969 1174.238281 130.265625 1164.09375 C 123.488281 1153.953125 116.964844 1143.648438 110.691406 1133.1875 C 104.421875 1122.722656 98.410156 1112.113281 92.660156 1101.355469 C 86.910156 1090.597656 81.425781 1079.703125 76.210938 1068.679688 C 70.996094 1057.652344 66.054688 1046.503906 61.386719 1035.234375 C 56.71875 1023.964844 52.328125 1012.585938 48.21875 1001.101562 C 44.109375 989.617188 40.285156 978.035156 36.746094 966.363281 C 33.203125 954.691406 29.953125 942.9375 26.988281 931.105469 C 24.023438 919.273438 21.351562 907.375 18.972656 895.410156 C 16.59375 883.445312 14.507812 871.433594 12.71875 859.367188 C 10.925781 847.300781 9.433594 835.195312 8.238281 823.058594 C 7.042969 810.917969 6.144531 798.757812 5.546875 786.574219 C 4.949219 774.390625 4.648438 762.199219 4.648438 750 C 4.648438 737.800781 4.949219 725.609375 5.546875 713.425781 C 6.144531 701.242188 7.042969 689.082031 8.238281 676.941406 C 9.433594 664.804688 10.925781 652.699219 12.71875 640.632812 C 14.507812 628.566406 16.59375 616.554688 18.972656 604.589844 C 21.351562 592.625 24.023438 580.726562 26.988281 568.894531 C 29.953125 557.0625 33.203125 545.308594 36.746094 533.636719 C 40.285156 521.964844 44.109375 510.382812 48.21875 498.898438 C 52.328125 487.414062 56.71875 476.035156 61.386719 464.765625 C 66.054688 453.496094 70.996094 442.347656 76.210938 431.320312 C 81.425781 420.292969 86.910156 409.402344 92.660156 398.644531 C 98.410156 387.886719 104.421875 377.277344 110.691406 366.8125 C 116.964844 356.351562 123.488281 346.046875 130.265625 335.90625 C 137.042969 325.761719 144.0625 315.792969 151.328125 305.996094 C 158.597656 296.199219 166.097656 286.585938 173.835938 277.15625 C 181.574219 267.726562 189.539062 258.492188 197.730469 249.453125 C 205.925781 240.414062 214.332031 231.582031 222.957031 222.957031 C 231.582031 214.332031 240.414062 205.925781 249.453125 197.730469 C 258.492188 189.539062 267.726562 181.574219 277.15625 173.835938 C 286.585938 166.097656 296.199219 158.597656 305.996094 151.328125 C 315.792969 144.0625 325.761719 137.042969 335.90625 130.265625 C 346.046875 123.488281 356.351562 116.964844 366.8125 110.691406 C 377.277344 104.421875 387.886719 98.410156 398.644531 92.660156 C 409.402344 86.910156 420.292969 81.425781 431.320312 76.210938 C 442.347656 70.996094 453.496094 66.054688 464.765625 61.386719 C 476.035156 56.71875 487.414062 52.328125 498.898438 48.21875 C 510.382812 44.109375 521.964844 40.285156 533.636719 36.746094 C 545.308594 33.203125 557.0625 29.949219 568.894531 26.988281 C 580.726562 24.023438 592.625 21.351562 604.589844 18.972656 C 616.554688 16.59375 628.566406 14.507812 640.632812 12.71875 C 652.699219 10.925781 664.804688 9.433594 676.941406 8.238281 C 689.082031 7.042969 701.242188 6.144531 713.425781 5.546875 C 725.609375 4.949219 737.800781 4.648438 750 4.648438 C 762.199219 4.648438 774.390625 4.949219 786.574219 5.546875 C 798.757812 6.144531 810.917969 7.042969 823.058594 8.238281 C 835.195312 9.433594 847.300781 10.925781 859.367188 12.71875 C 871.433594 14.507812 883.445312 16.59375 895.410156 18.972656 C 907.375 21.351562 919.273438 24.023438 931.105469 26.988281 C 942.9375 29.949219 954.691406 33.203125 966.363281 36.746094 C 978.035156 40.285156 989.617188 44.109375 1001.101562 48.21875 C 1012.585938 52.328125 1023.964844 56.71875 1035.234375 61.386719 C 1046.503906 66.054688 1057.652344 70.996094 1068.679688 76.210938 C 1079.703125 81.425781 1090.597656 86.910156 1101.355469 92.660156 C 1112.113281 98.410156 1122.722656 104.421875 1133.1875 110.691406 C 1143.648438 116.964844 1153.953125 123.488281 1164.09375 130.265625 C 1174.238281 137.042969 1184.207031 144.0625 1194.003906 151.328125 C 1203.800781 158.597656 1213.414062 166.097656 1222.84375 173.835938 C 1232.273438 181.574219 1241.507812 189.539062 1250.546875 197.730469 C 1259.585938 205.925781 1268.417969 214.332031 1277.042969 222.957031 C 1285.667969 231.582031 1294.074219 240.414062 1302.269531 249.453125 C 1310.460938 258.492188 1318.425781 267.726562 1326.164062 277.15625 C 1333.902344 286.585938 1341.402344 296.199219 1348.671875 305.996094 C 1355.9375 315.792969 1362.957031 325.761719 1369.734375 335.90625 C 1376.511719 346.046875 1383.035156 356.351562 1389.308594 366.8125 C 1395.578125 377.277344 1401.589844 387.886719 1407.339844 398.644531 C 1413.089844 409.402344 1418.574219 420.292969 1423.789062 431.320312 C 1429.003906 442.347656 1433.945312 453.496094 1438.613281 464.765625 C 1443.28125 476.035156 1447.671875 487.414062 1451.78125 498.898438 C 1455.890625 510.382812 1459.714844 521.964844 1463.253906 533.636719 C 1466.796875 545.308594 1470.046875 557.0625 1473.011719 568.894531 C 1475.976562 580.726562 1478.648438 592.625 1481.027344 604.589844 C 1483.40625 616.554688 1485.492188 628.566406 1487.28125 640.632812 C 1489.074219 652.699219 1490.566406 664.804688 1491.761719 676.941406 C 1492.957031 689.082031 1493.855469 701.242188 1494.453125 713.425781 C 1495.050781 725.609375 1495.351562 737.800781 1495.351562 750 Z M 1495.351562 750 " fill-opacity="1" fill-rule="nonzero"/><path fill="#ffffff" d="M 164.101562 1007.25 L 205.351562 1007.25 C 214.050781 1064.25 263.101562 1108.050781 322.5 1108.050781 C 364.949219 1108.050781 402.300781 1085.398438 423.148438 1051.949219 C 444.148438 1085.398438 481.351562 1108.050781 523.800781 1108.050781 C 583.199219 1108.050781 632.25 1064.25 640.949219 1007.25 L 1085.550781 1007.25 C 1094.25 1064.25 1143.300781 1108.050781 1202.699219 1108.050781 C 1262.101562 1108.050781 1313.550781 1062.148438 1320.449219 1003.351562 L 1354.351562 1003.351562 C 1364.25 1003.351562 1372.199219 995.25 1372.199219 985.5 L 1372.199219 853.199219 C 1366.648438 767.851562 1308.75 695.398438 1228.050781 672.601562 C 1208.550781 667.050781 1189.199219 664.199219 1170.601562 663.898438 L 1035.148438 474.300781 C 1032.601562 471 1029.148438 468.449219 1025.101562 467.398438 C 908.851562 437.398438 803.851562 417.148438 707.699219 399.898438 C 688.648438 396.449219 669.148438 401.550781 654.300781 414 C 639.449219 426.449219 630.898438 444.75 630.898438 464.101562 L 630.601562 800.851562 L 164.101562 800.851562 C 161.550781 800.851562 159.148438 801.449219 157.199219 802.351562 C 149.550781 804.449219 144 811.351562 144 819.601562 L 144 986.550781 C 144 991.351562 145.949219 995.851562 149.101562 999 C 152.25 1004.101562 157.800781 1007.398438 164.101562 1007.398438 Z M 405.300781 992.550781 C 403.648438 1036.800781 367.050781 1072.351562 322.351562 1072.351562 C 277.648438 1072.351562 239.398438 1035.300781 239.398438 989.398438 C 239.398438 943.5 276.601562 906.449219 322.351562 906.449219 C 368.101562 906.449219 403.5 942 405.300781 986.25 C 405.300781 987.300781 405 988.351562 405 989.550781 C 405 990.75 405 991.648438 405.300781 992.699219 Z M 523.800781 1072.199219 C 479.101562 1072.199219 442.648438 1036.800781 441 992.398438 C 441 991.5 441 990.300781 441 989.25 C 441 988.199219 441 987.148438 441 985.949219 C 442.648438 941.699219 479.101562 906.148438 523.800781 906.148438 C 568.5 906.148438 606.75 943.351562 606.75 989.101562 C 606.75 1034.851562 569.699219 1072.050781 523.800781 1072.050781 Z M 1202.550781 1072.199219 C 1156.800781 1072.199219 1119.601562 1035.148438 1119.601562 989.25 C 1119.601562 943.351562 1156.800781 906.300781 1202.550781 906.300781 C 1248.300781 906.300781 1285.5 943.5 1285.5 989.25 C 1285.5 1035 1248.449219 1072.199219 1202.550781 1072.199219 Z M 179.699219 836.550781 L 648.449219 836.550781 C 658.351562 836.550781 666.300781 828.601562 666.300781 818.699219 C 666.300781 817.351562 666 816 665.851562 814.800781 L 666.148438 463.949219 C 666.148438 455.25 670.050781 446.851562 676.800781 441.300781 C 683.550781 435.601562 692.25 433.351562 700.949219 435 C 794.699219 451.949219 897 471.449219 1009.5 500.398438 L 1146.75 692.398438 C 1151.101562 698.398438 1158.449219 700.949219 1165.199219 699.300781 C 1165.648438 699.300781 1166.101562 699.601562 1166.699219 699.601562 C 1183.199219 699.601562 1200.449219 702 1218.148438 707.101562 C 1284.148438 725.550781 1331.398438 785.101562 1336.199219 855 L 1336.199219 967.949219 L 1318.949219 967.949219 C 1308.75 912.75 1260.300781 871.050781 1202.398438 871.050781 C 1144.5 871.050781 1093.949219 914.851562 1085.25 971.851562 L 640.648438 971.851562 C 631.949219 914.851562 582.898438 871.050781 523.5 871.050781 C 481.050781 871.050781 443.851562 893.550781 422.851562 927.148438 C 402 893.550781 364.648438 871.050781 322.199219 871.050781 C 262.800781 871.050781 213.75 914.851562 205.050781 971.851562 L 179.398438 971.851562 L 179.398438 836.851562 Z M 179.699219 836.550781 " fill-opacity="1" fill-rule="nonzero"/><path fill="#ffffff" d="M 882.449219 728.550781 L 1089 729.300781 C 1095.601562 729.300781 1101.75 725.699219 1104.75 719.851562 C 1107.898438 714 1107.449219 706.949219 1103.699219 701.398438 L 1013.851562 571.5 C 1010.550781 566.699219 1005 563.851562 999.148438 563.851562 L 882.449219 563.851562 C 872.550781 563.851562 864.601562 571.800781 864.601562 581.699219 L 864.601562 710.851562 C 864.601562 720.75 872.550781 728.699219 882.449219 728.699219 Z M 900.300781 599.398438 L 989.851562 599.398438 L 1054.800781 693.449219 L 900.300781 692.851562 Z M 900.300781 599.398438 " fill-opacity="1" fill-rule="nonzero"/><path fill="#ffffff" d="M 322.5 928.648438 C 289.050781 928.648438 261.898438 955.949219 261.898438 989.398438 C 261.898438 1022.851562 289.199219 1050.148438 322.5 1050.148438 C 355.800781 1050.148438 383.25 1022.851562 383.25 989.398438 C 383.25 955.949219 355.949219 928.648438 322.5 928.648438 Z M 322.5 1014.449219 C 308.699219 1014.449219 297.449219 1003.199219 297.449219 989.398438 C 297.449219 975.601562 308.550781 964.351562 322.5 964.351562 C 336.449219 964.351562 347.550781 975.601562 347.550781 989.398438 C 347.550781 1003.199219 336.300781 1014.449219 322.5 1014.449219 Z M 322.5 1014.449219 " fill-opacity="1" fill-rule="nonzero"/><path fill="#ffffff" d="M 523.800781 928.648438 C 490.351562 928.648438 463.050781 955.949219 463.050781 989.398438 C 463.050781 1022.851562 490.351562 1050.148438 523.800781 1050.148438 C 557.25 1050.148438 584.550781 1022.851562 584.550781 989.398438 C 584.550781 955.949219 557.25 928.648438 523.800781 928.648438 Z M 523.800781 1014.449219 C 510 1014.449219 498.75 1003.199219 498.75 989.398438 C 498.75 975.601562 510 964.351562 523.800781 964.351562 C 537.601562 964.351562 548.851562 975.601562 548.851562 989.398438 C 548.851562 1003.199219 537.601562 1014.449219 523.800781 1014.449219 Z M 523.800781 1014.449219 " fill-opacity="1" fill-rule="nonzero"/><path fill="#ffffff" d="M 1202.398438 928.648438 C 1168.949219 928.648438 1141.648438 955.949219 1141.648438 989.398438 C 1141.648438 1022.851562 1168.949219 1050.148438 1202.398438 1050.148438 C 1235.851562 1050.148438 1263.148438 1022.851562 1263.148438 989.398438 C 1263.148438 955.949219 1235.851562 928.648438 1202.398438 928.648438 Z M 1202.398438 1014.449219 C 1188.601562 1014.449219 1177.351562 1003.199219 1177.351562 989.398438 C 1177.351562 975.601562 1188.449219 964.351562 1202.398438 964.351562 C 1216.351562 964.351562 1227.449219 975.601562 1227.449219 989.398438 C 1227.449219 1003.199219 1216.199219 1014.449219 1202.398438 1014.449219 Z M 1202.398438 1014.449219 " fill-opacity="1" fill-rule="nonzero"/><path fill="#ffffff" d="M 463.648438 274.5 C 447.300781 258.148438 425.699219 249.148438 402.601562 249.148438 C 355.050781 249.148438 316.199219 288 316.199219 335.550781 L 316.199219 571.5 C 297.898438 592.351562 287.699219 618.75 287.699219 646.949219 C 287.699219 710.101562 339.300781 761.699219 402.601562 761.699219 C 465.898438 761.699219 517.5 710.101562 517.5 646.949219 C 517.5 618.898438 507.300781 592.351562 488.851562 571.351562 L 488.851562 335.550781 C 488.851562 312.449219 480 290.851562 463.648438 274.5 Z M 402.75 726.300781 C 358.800781 726.300781 323.101562 690.601562 323.101562 646.800781 C 323.101562 625.351562 331.351562 605.398438 346.5 590.398438 C 350.25 586.648438 351.898438 581.699219 351.601562 576.898438 C 351.601562 575.699219 351.601562 574.351562 351.601562 573.148438 L 351.601562 335.550781 C 351.601562 307.351562 374.550781 284.398438 402.75 284.398438 C 416.398438 284.398438 429.300781 289.648438 438.898438 299.398438 C 448.648438 309 453.898438 321.898438 453.898438 335.550781 L 453.898438 360.449219 L 418.800781 360.449219 C 415.5 360.449219 412.5 361.800781 410.398438 363.898438 C 408.300781 366 406.949219 369 406.949219 372.300781 C 406.949219 378.898438 412.199219 384.300781 418.800781 384.300781 L 453.898438 384.300781 L 453.898438 414.75 L 440.101562 414.75 C 436.800781 414.75 433.800781 416.25 431.699219 418.351562 C 429.601562 420.449219 428.25 423.449219 428.25 426.75 C 428.25 433.351562 433.5 438.601562 440.101562 438.601562 L 453.898438 438.601562 L 453.898438 469.199219 L 418.800781 469.199219 C 415.5 469.199219 412.5 470.550781 410.398438 472.648438 C 408.300781 474.75 406.949219 477.75 406.949219 481.050781 C 406.949219 487.648438 412.199219 493.050781 418.800781 493.050781 L 453.898438 493.050781 L 453.898438 573 C 453.898438 574.351562 453.898438 575.699219 453.898438 576.898438 L 453.898438 577.351562 C 453.898438 577.351562 453.898438 578.550781 453.898438 579.148438 C 453.898438 579.75 453.898438 580.199219 453.898438 580.800781 C 453.898438 581.25 454.199219 581.699219 454.351562 582.300781 C 454.351562 582.898438 454.648438 583.351562 454.800781 583.949219 C 454.800781 584.398438 455.101562 584.851562 455.398438 585.300781 C 455.699219 585.898438 456 586.5 456.300781 586.949219 C 456.601562 587.398438 456.75 587.851562 457.199219 588.148438 C 457.5 588.601562 458.101562 589.199219 458.550781 589.648438 C 458.550781 589.648438 458.550781 589.949219 458.851562 589.949219 C 474 605.101562 482.25 625.199219 482.25 646.5 C 482.25 690.300781 446.550781 726 402.601562 726 Z M 402.75 726.300781 " fill-opacity="1" fill-rule="nonzero"/><path fill="#ffffff" d="M 427.800781 609.898438 L 427.800781 546.300781 C 427.800781 539.398438 424.949219 533.101562 420.449219 528.601562 C 415.949219 524.101562 409.648438 521.25 402.75 521.25 C 388.949219 521.25 377.699219 532.5 377.699219 546.300781 L 377.699219 609.601562 C 366.148438 617.550781 358.5 630.898438 358.5 646.050781 C 358.5 670.351562 378.300781 690.148438 402.601562 690.148438 C 426.898438 690.148438 446.699219 670.351562 446.699219 646.050781 C 446.699219 631.050781 439.199219 617.851562 427.800781 609.898438 Z M 427.800781 609.898438 " fill-opacity="1" fill-rule="nonzero"/></svg>