<svg xmlns="http://www.w3.org/2000/svg" xmlns:xlink="http://www.w3.org/1999/xlink" width="2000" zoomAndPan="magnify" viewBox="0 0 1500 1499.999933" height="2000" preserveAspectRatio="xMidYMid meet" version="1.0"><path fill="#fb452f" d="M 1495.351562 750 C 1495.351562 762.199219 1495.050781 774.390625 1494.453125 786.574219 C 1493.855469 798.757812 1492.957031 810.917969 1491.761719 823.058594 C 1490.566406 835.195312 1489.074219 847.300781 1487.28125 859.367188 C 1485.492188 871.433594 1483.40625 883.445312 1481.027344 895.410156 C 1478.648438 907.375 1475.976562 919.273438 1473.011719 931.105469 C 1470.050781 942.9375 1466.796875 954.691406 1463.253906 966.363281 C 1459.714844 978.035156 1455.890625 989.617188 1451.78125 1001.101562 C 1447.671875 1012.585938 1443.28125 1023.964844 1438.613281 1035.234375 C 1433.945312 1046.503906 1429.003906 1057.652344 1423.789062 1068.679688 C 1418.574219 1079.703125 1413.089844 1090.597656 1407.339844 1101.355469 C 1401.589844 1112.113281 1395.578125 1122.722656 1389.308594 1133.1875 C 1383.035156 1143.648438 1376.511719 1153.953125 1369.734375 1164.09375 C 1362.957031 1174.238281 1355.9375 1184.207031 1348.671875 1194.003906 C 1341.402344 1203.800781 1333.902344 1213.414062 1326.164062 1222.84375 C 1318.425781 1232.273438 1310.460938 1241.507812 1302.269531 1250.546875 C 1294.074219 1259.585938 1285.667969 1268.417969 1277.042969 1277.042969 C 1268.417969 1285.667969 1259.585938 1294.074219 1250.546875 1302.269531 C 1241.507812 1310.460938 1232.273438 1318.425781 1222.84375 1326.164062 C 1213.414062 1333.902344 1203.800781 1341.402344 1194.003906 1348.671875 C 1184.207031 1355.9375 1174.238281 1362.957031 1164.09375 1369.734375 C 1153.953125 1376.511719 1143.648438 1383.035156 1133.1875 1389.308594 C 1122.722656 1395.578125 1112.113281 1401.589844 1101.355469 1407.339844 C 1090.597656 1413.089844 1079.703125 1418.574219 1068.679688 1423.789062 C 1057.652344 1429.003906 1046.503906 1433.945312 1035.234375 1438.613281 C 1023.964844 1443.28125 1012.585938 1447.671875 1001.101562 1451.78125 C 989.617188 1455.890625 978.035156 1459.714844 966.363281 1463.253906 C 954.691406 1466.796875 942.9375 1470.046875 931.105469 1473.011719 C 919.273438 1475.976562 907.375 1478.648438 895.410156 1481.027344 C 883.445312 1483.40625 871.433594 1485.492188 859.367188 1487.28125 C 847.300781 1489.074219 835.195312 1490.566406 823.058594 1491.761719 C 810.917969 1492.957031 798.757812 1493.855469 786.574219 1494.453125 C 774.390625 1495.050781 762.199219 1495.351562 750 1495.351562 C 737.800781 1495.351562 725.609375 1495.050781 713.425781 1494.453125 C 701.242188 1493.855469 689.082031 1492.957031 676.941406 1491.761719 C 664.804688 1490.566406 652.699219 1489.074219 640.632812 1487.28125 C 628.566406 1485.492188 616.554688 1483.40625 604.589844 1481.027344 C 592.625 1478.648438 580.726562 1475.976562 568.894531 1473.011719 C 557.0625 1470.050781 545.308594 1466.796875 533.636719 1463.253906 C 521.964844 1459.714844 510.382812 1455.890625 498.898438 1451.78125 C 487.414062 1447.671875 476.035156 1443.28125 464.765625 1438.613281 C 453.496094 1433.945312 442.347656 1429.003906 431.320312 1423.789062 C 420.292969 1418.574219 409.402344 1413.089844 398.644531 1407.339844 C 387.886719 1401.589844 377.277344 1395.578125 366.8125 1389.308594 C 356.351562 1383.035156 346.046875 1376.511719 335.90625 1369.734375 C 325.761719 1362.957031 315.792969 1355.9375 305.996094 1348.671875 C 296.199219 1341.402344 286.585938 1333.902344 277.15625 1326.164062 C 267.726562 1318.425781 258.492188 1310.460938 249.453125 1302.269531 C 240.414062 1294.074219 231.582031 1285.667969 222.957031 1277.042969 C 214.332031 1268.417969 205.925781 1259.585938 197.730469 1250.546875 C 189.539062 1241.507812 181.574219 1232.273438 173.835938 1222.84375 C 166.097656 1213.414062 158.597656 1203.800781 151.328125 1194.003906 C 144.0625 1184.207031 137.042969 1174.238281 130.265625 1164.09375 C 123.488281 1153.953125 116.964844 1143.648438 110.691406 1133.1875 C 104.421875 1122.722656 98.410156 1112.113281 92.660156 1101.355469 C 86.910156 1090.597656 81.425781 1079.703125 76.210938 1068.679688 C 70.996094 1057.652344 66.054688 1046.503906 61.386719 1035.234375 C 56.71875 1023.964844 52.328125 1012.585938 48.21875 1001.101562 C 44.109375 989.617188 40.285156 978.035156 36.746094 966.363281 C 33.203125 954.691406 29.953125 942.9375 26.988281 931.105469 C 24.023438 919.273438 21.351562 907.375 18.972656 895.410156 C 16.59375 883.445312 14.507812 871.433594 12.71875 859.367188 C 10.925781 847.300781 9.433594 835.195312 8.238281 823.058594 C 7.042969 810.917969 6.144531 798.757812 5.546875 786.574219 C 4.949219 774.390625 4.648438 762.199219 4.648438 750 C 4.648438 737.800781 4.949219 725.609375 5.546875 713.425781 C 6.144531 701.242188 7.042969 689.082031 8.238281 676.941406 C 9.433594 664.804688 10.925781 652.699219 12.71875 640.632812 C 14.507812 628.566406 16.59375 616.554688 18.972656 604.589844 C 21.351562 592.625 24.023438 580.726562 26.988281 568.894531 C 29.953125 557.0625 33.203125 545.308594 36.746094 533.636719 C 40.285156 521.964844 44.109375 510.382812 48.21875 498.898438 C 52.328125 487.414062 56.71875 476.035156 61.386719 464.765625 C 66.054688 453.496094 70.996094 442.347656 76.210938 431.320312 C 81.425781 420.292969 86.910156 409.402344 92.660156 398.644531 C 98.410156 387.886719 104.421875 377.277344 110.691406 366.8125 C 116.964844 356.351562 123.488281 346.046875 130.265625 335.90625 C 137.042969 325.761719 144.0625 315.792969 151.328125 305.996094 C 158.597656 296.199219 166.097656 286.585938 173.835938 277.15625 C 181.574219 267.726562 189.539062 258.492188 197.730469 249.453125 C 205.925781 240.414062 214.332031 231.582031 222.957031 222.957031 C 231.582031 214.332031 240.414062 205.925781 249.453125 197.730469 C 258.492188 189.539062 267.726562 181.574219 277.15625 173.835938 C 286.585938 166.097656 296.199219 158.597656 305.996094 151.328125 C 315.792969 144.0625 325.761719 137.042969 335.90625 130.265625 C 346.046875 123.488281 356.351562 116.964844 366.8125 110.691406 C 377.277344 104.421875 387.886719 98.410156 398.644531 92.660156 C 409.402344 86.910156 420.292969 81.425781 431.320312 76.210938 C 442.347656 70.996094 453.496094 66.054688 464.765625 61.386719 C 476.035156 56.71875 487.414062 52.328125 498.898438 48.21875 C 510.382812 44.109375 521.964844 40.285156 533.636719 36.746094 C 545.308594 33.203125 557.0625 29.949219 568.894531 26.988281 C 580.726562 24.023438 592.625 21.351562 604.589844 18.972656 C 616.554688 16.59375 628.566406 14.507812 640.632812 12.71875 C 652.699219 10.925781 664.804688 9.433594 676.941406 8.238281 C 689.082031 7.042969 701.242188 6.144531 713.425781 5.546875 C 725.609375 4.949219 737.800781 4.648438 750 4.648438 C 762.199219 4.648438 774.390625 4.949219 786.574219 5.546875 C 798.757812 6.144531 810.917969 7.042969 823.058594 8.238281 C 835.195312 9.433594 847.300781 10.925781 859.367188 12.71875 C 871.433594 14.507812 883.445312 16.59375 895.410156 18.972656 C 907.375 21.351562 919.273438 24.023438 931.105469 26.988281 C 942.9375 29.949219 954.691406 33.203125 966.363281 36.746094 C 978.035156 40.285156 989.617188 44.109375 1001.101562 48.21875 C 1012.585938 52.328125 1023.964844 56.71875 1035.234375 61.386719 C 1046.503906 66.054688 1057.652344 70.996094 1068.679688 76.210938 C 1079.703125 81.425781 1090.597656 86.910156 1101.355469 92.660156 C 1112.113281 98.410156 1122.722656 104.421875 1133.1875 110.691406 C 1143.648438 116.964844 1153.953125 123.488281 1164.09375 130.265625 C 1174.238281 137.042969 1184.207031 144.0625 1194.003906 151.328125 C 1203.800781 158.597656 1213.414062 166.097656 1222.84375 173.835938 C 1232.273438 181.574219 1241.507812 189.539062 1250.546875 197.730469 C 1259.585938 205.925781 1268.417969 214.332031 1277.042969 222.957031 C 1285.667969 231.582031 1294.074219 240.414062 1302.269531 249.453125 C 1310.460938 258.492188 1318.425781 267.726562 1326.164062 277.15625 C 1333.902344 286.585938 1341.402344 296.199219 1348.671875 305.996094 C 1355.9375 315.792969 1362.957031 325.761719 1369.734375 335.90625 C 1376.511719 346.046875 1383.035156 356.351562 1389.308594 366.8125 C 1395.578125 377.277344 1401.589844 387.886719 1407.339844 398.644531 C 1413.089844 409.402344 1418.574219 420.292969 1423.789062 431.320312 C 1429.003906 442.347656 1433.945312 453.496094 1438.613281 464.765625 C 1443.28125 476.035156 1447.671875 487.414062 1451.78125 498.898438 C 1455.890625 510.382812 1459.714844 521.964844 1463.253906 533.636719 C 1466.796875 545.308594 1470.046875 557.0625 1473.011719 568.894531 C 1475.976562 580.726562 1478.648438 592.625 1481.027344 604.589844 C 1483.40625 616.554688 1485.492188 628.566406 1487.28125 640.632812 C 1489.074219 652.699219 1490.566406 664.804688 1491.761719 676.941406 C 1492.957031 689.082031 1493.855469 701.242188 1494.453125 713.425781 C 1495.050781 725.609375 1495.351562 737.800781 1495.351562 750 Z M 1495.351562 750 " fill-opacity="1" fill-rule="nonzero"/><path fill="#ffffff" d="M 1273.949219 476.398438 L 749.101562 337.199219 L 225.898438 476.398438 C 204 481.050781 186.148438 497.398438 186.148438 522.75 L 186.148438 1042.050781 C 186.148438 1067.398438 204 1088.25 225.898438 1088.25 L 305.550781 1088.25 L 305.550781 688.800781 C 305.550781 665.699219 324.300781 646.949219 347.101562 646.949219 L 655.5 646.949219 C 678.449219 646.949219 697.050781 665.699219 697.050781 688.800781 L 697.050781 1088.25 L 802.949219 1088.25 L 802.949219 688.800781 C 802.949219 665.699219 821.699219 646.949219 844.800781 646.949219 L 1152.898438 646.949219 C 1176 646.949219 1194.449219 665.699219 1194.449219 688.800781 L 1194.449219 1088.25 L 1273.648438 1088.25 C 1295.851562 1088.25 1313.550781 1067.398438 1313.550781 1042.050781 L 1313.550781 522.75 C 1313.550781 497.398438 1299.148438 482.851562 1273.648438 476.398438 Z M 1170.449219 594.601562 L 325.351562 594.601562 C 313.5 594.601562 304.199219 584.851562 304.199219 573.148438 C 304.199219 561.449219 313.5 552 325.351562 552 L 1170.449219 552 C 1182.300781 552 1191.601562 561.601562 1191.601562 573.148438 C 1191.601562 584.699219 1182.300781 594.601562 1170.449219 594.601562 Z M 1170.449219 594.601562 " fill-opacity="1" fill-rule="nonzero"/><path fill="#ffffff" d="M 421.351562 802.800781 L 585.148438 802.800781 C 604.800781 802.800781 622.648438 816.300781 631.648438 838.199219 L 646.050781 873 L 646.050781 753.601562 C 646.050781 744.148438 638.398438 736.5 628.949219 736.5 L 373.351562 736.5 C 363.898438 736.5 356.25 744.148438 356.25 753.601562 L 356.25 885.898438 C 356.25 885.898438 376.800781 836.25 376.800781 836.25 C 385.351562 815.550781 402.300781 802.800781 421.050781 802.800781 Z M 421.351562 802.800781 " fill-opacity="1" fill-rule="nonzero"/><path fill="#ffffff" d="M 646.199219 925.5 C 643.800781 923.851562 641.25 922.5 638.550781 921.449219 L 614.699219 864.148438 C 608.699219 849.300781 597.300781 840.300781 585.300781 840.300781 L 421.5 840.300781 C 410.25 840.300781 399.898438 848.699219 394.050781 862.199219 L 370.050781 920.25 C 364.949219 921 360.300781 923.101562 356.550781 926.101562 C 349.800781 931.351562 345.601562 939.601562 345.601562 948.75 L 345.601562 1087.351562 L 367.949219 1087.351562 L 367.949219 1112.25 C 367.949219 1123.351562 376.949219 1132.648438 388.351562 1132.648438 L 398.398438 1132.648438 C 409.5 1132.648438 418.800781 1123.351562 418.800781 1112.25 L 418.800781 1087.351562 L 586.199219 1087.351562 L 586.199219 1112.25 C 586.199219 1123.351562 595.5 1132.648438 606.601562 1132.648438 L 616.648438 1132.648438 C 627.898438 1132.648438 637.199219 1123.351562 637.199219 1112.25 L 637.199219 1087.351562 L 657.601562 1087.351562 L 657.601562 947.550781 C 657.601562 938.550781 653.25 930.300781 646.5 925.199219 Z M 404.699219 1050.898438 C 403.5 1058.398438 394.5 1064.101562 383.550781 1064.101562 C 378.449219 1064.101562 373.648438 1062.898438 370.050781 1060.800781 C 365.25 1058.101562 362.25 1053.75 362.25 1049.25 C 362.25 1044.300781 365.550781 1039.949219 370.800781 1037.25 C 374.25 1035.300781 378.75 1034.25 383.550781 1034.25 C 388.351562 1034.25 393.148438 1035.449219 396.601562 1037.398438 C 401.550781 1040.101562 404.851562 1044.449219 404.851562 1049.25 C 404.851562 1049.851562 404.699219 1050.300781 404.699219 1051.050781 Z M 584.550781 1064.25 L 567.75 1064.25 L 567.75 974.851562 L 555.449219 974.851562 L 555.449219 1064.25 L 538.648438 1064.25 L 538.648438 960 L 525.449219 960 L 525.449219 1064.25 L 509.101562 1064.25 L 509.101562 959.550781 L 496.050781 959.550781 L 496.050781 1064.25 L 479.699219 1064.25 L 479.699219 959.550781 L 466.5 959.550781 L 466.5 1064.25 L 449.699219 1064.25 L 449.699219 973.648438 L 437.398438 973.648438 L 437.398438 1064.25 L 420.300781 1064.25 L 420.300781 995.25 C 420.300781 982.949219 424.351562 971.699219 431.101562 962.550781 C 437.25 954.300781 446.101562 947.699219 456 944.25 C 461.699219 942 468 940.949219 474.449219 940.949219 L 531.449219 940.949219 C 537.75 940.949219 544.050781 942 549.75 944.25 C 559.648438 947.699219 568.199219 954.300781 574.199219 962.550781 C 580.949219 971.398438 584.699219 982.5 584.699219 994.351562 L 584.699219 1064.101562 Z M 392.398438 922.648438 L 393.300781 920.101562 L 413.851562 870.601562 C 416.699219 863.851562 420.148438 861.898438 421.351562 861.898438 L 585.148438 861.898438 C 587.25 861.898438 591.449219 864.75 594.75 872.550781 L 614.550781 920.101562 L 615.601562 922.648438 Z M 634.800781 1061.699219 C 631.5 1063.351562 627.300781 1064.25 622.949219 1064.25 C 611.699219 1064.25 602.550781 1058.25 601.800781 1050.449219 C 601.648438 1050.148438 601.648438 1049.699219 601.648438 1049.398438 C 601.648438 1044.601562 604.800781 1040.25 609.75 1037.550781 C 613.351562 1035.601562 617.851562 1034.398438 622.949219 1034.398438 C 627.148438 1034.398438 631.050781 1035.148438 634.199219 1036.800781 C 640.199219 1039.351562 644.101562 1044.148438 644.101562 1049.398438 C 644.101562 1054.648438 640.5 1059.148438 634.648438 1061.851562 Z M 634.800781 1061.699219 " fill-opacity="1" fill-rule="nonzero"/><path fill="#ffffff" d="M 918.898438 802.800781 L 1082.699219 802.800781 C 1102.351562 802.800781 1120.199219 816.300781 1129.199219 838.199219 L 1143.601562 873 L 1143.601562 753.601562 C 1143.601562 744.148438 1135.949219 736.5 1126.5 736.5 L 870.898438 736.5 C 861.449219 736.5 853.800781 744.148438 853.800781 753.601562 L 853.800781 885.898438 C 853.800781 885.898438 874.351562 836.25 874.351562 836.25 C 882.898438 815.550781 899.851562 802.800781 918.601562 802.800781 Z M 918.898438 802.800781 " fill-opacity="1" fill-rule="nonzero"/><path fill="#ffffff" d="M 1143.75 925.5 C 1141.351562 923.851562 1138.800781 922.5 1136.101562 921.449219 L 1112.25 864.148438 C 1106.25 849.300781 1094.851562 840.300781 1082.851562 840.300781 L 919.050781 840.300781 C 907.800781 840.300781 897.449219 848.699219 891.601562 862.199219 L 867.601562 920.25 C 862.5 921 857.851562 923.101562 854.101562 926.101562 C 847.351562 931.351562 843.148438 939.601562 843.148438 948.75 L 843.148438 1087.351562 L 865.5 1087.351562 L 865.5 1112.25 C 865.5 1123.351562 874.648438 1132.648438 885.898438 1132.648438 L 895.949219 1132.648438 C 907.050781 1132.648438 916.351562 1123.351562 916.351562 1112.25 L 916.351562 1087.351562 L 1083.75 1087.351562 L 1083.75 1112.25 C 1083.75 1123.351562 1093.050781 1132.648438 1104.148438 1132.648438 L 1114.199219 1132.648438 C 1125.449219 1132.648438 1134.75 1123.351562 1134.75 1112.25 L 1134.75 1087.351562 L 1155.148438 1087.351562 L 1155.148438 947.550781 C 1155.148438 938.550781 1150.800781 930.300781 1144.050781 925.199219 Z M 902.25 1050.898438 C 901.050781 1058.398438 892.050781 1064.101562 881.101562 1064.101562 C 876 1064.101562 871.199219 1062.898438 867.601562 1060.800781 C 862.800781 1058.101562 859.800781 1053.75 859.800781 1049.25 C 859.800781 1044.300781 863.101562 1039.949219 868.351562 1037.25 C 871.800781 1035.300781 876.300781 1034.25 881.101562 1034.25 C 885.898438 1034.25 890.699219 1035.449219 894.148438 1037.398438 C 899.101562 1040.101562 902.398438 1044.449219 902.398438 1049.25 C 902.398438 1049.851562 902.25 1050.300781 902.25 1051.050781 Z M 1082.101562 1064.25 L 1065.300781 1064.25 L 1065.300781 974.851562 L 1053 974.851562 L 1053 1064.25 L 1036.199219 1064.25 L 1036.199219 960 L 1023 960 L 1023 1064.25 L 1006.648438 1064.25 L 1006.648438 959.550781 L 993.601562 959.550781 L 993.601562 1064.25 L 977.25 1064.25 L 977.25 959.550781 L 964.050781 959.550781 L 964.050781 1064.25 L 947.25 1064.25 L 947.25 973.648438 L 934.949219 973.648438 L 934.949219 1064.25 L 917.851562 1064.25 L 917.851562 995.25 C 917.851562 982.949219 921.898438 971.699219 928.648438 962.550781 C 934.800781 954.300781 943.648438 947.699219 953.550781 944.25 C 959.25 942 965.550781 940.949219 972 940.949219 L 1029 940.949219 C 1035.300781 940.949219 1041.601562 942 1047.300781 944.25 C 1057.199219 947.699219 1065.75 954.300781 1071.75 962.550781 C 1078.5 971.398438 1082.25 982.5 1082.25 994.351562 L 1082.25 1064.101562 Z M 889.949219 922.648438 L 890.851562 920.101562 L 911.398438 870.601562 C 914.25 863.851562 917.699219 861.898438 918.898438 861.898438 L 1082.699219 861.898438 C 1084.800781 861.898438 1089 864.75 1092.300781 872.550781 L 1112.101562 920.101562 L 1113.148438 922.648438 Z M 1132.351562 1061.699219 C 1129.050781 1063.351562 1124.851562 1064.25 1120.5 1064.25 C 1109.25 1064.25 1100.101562 1058.25 1099.351562 1050.449219 C 1099.199219 1050.148438 1099.199219 1049.699219 1099.199219 1049.398438 C 1099.199219 1044.601562 1102.351562 1040.25 1107.300781 1037.550781 C 1110.898438 1035.601562 1115.398438 1034.398438 1120.5 1034.398438 C 1124.699219 1034.398438 1128.601562 1035.148438 1131.75 1036.800781 C 1137.75 1039.351562 1141.648438 1044.148438 1141.648438 1049.398438 C 1141.648438 1054.648438 1138.050781 1059.148438 1132.199219 1061.851562 Z M 1132.351562 1061.699219 " fill-opacity="1" fill-rule="nonzero"/></svg>